<svg width="11" height="16" viewBox="0 0 11 16" fill="none" xmlns="http://www.w3.org/2000/svg">
<path d="M2.63708e-05 7.99098C2.63787e-05 8.18209 0.0346629 8.36126 0.103935 8.52849C0.173207 8.69571 0.292197 8.851 0.460907 8.99433L8.21209 15.6236C8.51934 15.8864 8.90369 16.0116 9.36513 15.9992C9.82657 15.9867 10.2104 15.8496 10.5165 15.5878C10.8237 15.325 10.9774 14.9906 10.9774 14.5844C10.9774 14.1783 10.8237 13.8439 10.5165 13.5811L3.98036 7.99098L10.5584 2.36504C10.8656 2.10226 11.0126 1.77354 10.9992 1.37889C10.9858 0.98424 10.8249 0.656003 10.5165 0.394176C10.2092 0.131393 9.81819 5.44541e-08 9.34334 7.63336e-08C8.86849 9.8213e-08 8.47744 0.131394 8.17019 0.394176L0.460907 6.98763C0.293314 7.13096 0.174324 7.28624 0.103935 7.45347C0.0335461 7.6207 -0.00109039 7.79987 2.63708e-05 7.99098Z" fill="black"/>
</svg>
