<svg width="13" height="11" viewBox="0 0 13 11" fill="none" xmlns="http://www.w3.org/2000/svg">
<path d="M3.51316 10.0476C4.5602 10.0476 5.2603 10.4387 5.56938 10.6594C5.68292 10.7225 6.00459 10.9117 6.07397 10.918V1.3813C5.66397 0.618126 4.45929 0 3.21044 0C1.6336 0 0.296428 0.908257 0 1.52009V10.426C0 10.8423 0.245996 11 0.542424 11C0.782097 11 0.939797 10.918 1.09115 10.7919C1.4633 10.4576 2.34002 10.0476 3.51316 10.0476ZM9.39162 10.0476C10.5648 10.0476 11.4353 10.4576 11.8136 10.7919C11.9587 10.9117 12.1164 11 12.356 11C12.6525 11 12.8985 10.8423 12.8985 10.426V1.52009C12.6021 0.908257 11.2712 0 9.69437 0C8.44552 0 7.24081 0.618126 6.83085 1.3813V10.9306C6.90022 10.9243 7.22189 10.7288 7.34173 10.6594C7.64448 10.4387 8.34461 10.0476 9.39162 10.0476Z" fill="#A3A3A3"/>
</svg>
