<svg width="30" height="33" viewBox="0 0 30 33" fill="none" xmlns="http://www.w3.org/2000/svg">
<path d="M23.3729 15.5296L24.8738 15.5497L24.8537 17.0505L23.3529 17.0304L23.3729 15.5296Z" fill="#A179DC"/>
<path fill-rule="evenodd" clip-rule="evenodd" d="M29.4295 9.81144C29.4365 9.27342 29.3278 8.79647 29.1006 8.38534C28.8773 7.98105 28.5395 7.64019 28.0839 7.36816C26.4721 6.40985 24.8596 5.45276 23.2472 4.49567C21.0972 3.21957 18.9472 1.94347 16.7989 0.664483C15.7854 0.0611268 14.7947 0.0693849 13.7728 0.653996C12.8565 1.17802 9.72816 2.92122 6.89037 4.50252L6.89014 4.50265C5.0193 5.54513 3.27478 6.51723 2.37364 7.02322C1.43959 7.54739 0.977591 8.36253 0.963099 9.42987C0.932998 11.6273 0.90362 13.8247 0.874243 16.0222C0.844865 18.2196 0.815487 20.4171 0.785385 22.6146C0.77835 23.1408 0.882505 23.6084 1.09958 24.0133C1.32274 24.4297 1.66521 24.7799 2.13131 25.0581C3.01547 25.5861 4.72445 26.599 6.55945 27.6867L6.56273 27.6886C9.36193 29.3477 12.4533 31.1801 13.3569 31.7296C14.3632 32.3417 15.3533 32.3763 16.383 31.8001C18.5958 30.5616 20.8102 29.3261 23.0247 28.0907L23.0266 28.0896C24.6326 27.1937 26.2386 26.2977 27.8441 25.4005C28.3175 25.135 28.6692 24.7938 28.9034 24.3839C29.1309 23.9849 29.2477 23.5203 29.2547 22.9939C29.2547 22.9939 29.3722 14.2065 29.4295 9.81144ZM15.3238 5.63142C19.2385 5.68376 22.6279 7.85548 24.4163 11.0401L24.3988 11.0094L19.7576 13.5998C18.8706 12.0512 17.2209 10.9921 15.3129 10.9453L15.2528 10.9441C12.3426 10.9052 9.9518 13.2329 9.9129 16.143C9.90017 17.0947 10.142 17.9901 10.5729 18.7665C11.46 20.3644 13.1532 21.4567 15.1119 21.4829C17.0669 21.509 18.7866 20.466 19.717 18.8967L24.2803 21.6224C22.4278 24.7316 19.0285 26.806 15.1587 26.7965L15.0409 26.7956C11.1138 26.7431 7.71489 24.5581 5.93131 21.3569C5.06059 19.7941 4.57456 17.9893 4.6002 16.072C4.67833 10.2278 9.47935 5.55329 15.3238 5.63142ZM19.7395 18.8585L19.717 18.8967C19.7246 18.884 19.732 18.8713 19.7395 18.8585ZM23.383 14.7792L23.403 13.2784L22.6526 13.2683L22.6326 14.7692L21.1317 14.7491L21.1217 15.4995L22.6225 15.5196L22.6025 17.0204L21.1016 17.0003L21.0916 17.7508L22.5924 17.7708L22.5724 19.2717L23.3228 19.2817L23.3428 17.7809L24.8437 17.8009L24.8236 19.3018L25.574 19.3118L25.5941 17.811L27.0949 17.831L27.105 17.0806L25.6041 17.0605L25.6242 15.5597L27.125 15.5798L27.1351 14.8294L25.6342 14.8093L25.6543 13.3084L24.9039 13.2984L24.8838 14.7993L23.383 14.7792Z" fill="#A179DC"/>
<path d="M5.91426 21.3262L1.09958 24.0133C1.32274 24.4297 1.66521 24.7799 2.13131 25.0581C3.01571 25.5862 4.72541 26.5996 6.56098 27.6875C9.36065 29.347 12.4532 31.18 13.3569 31.7296C14.3632 32.3417 15.3533 32.3763 16.383 31.8001C18.596 30.5614 20.8107 29.3259 23.0254 28.0903C24.6318 27.1941 26.2382 26.2979 27.8441 25.4005C28.3175 25.135 28.6692 24.7938 28.9034 24.3839L24.2803 21.6224C22.4278 24.7316 19.0285 26.806 15.1587 26.7965L15.0409 26.7956C11.1138 26.7431 7.71489 24.5581 5.93131 21.3569C5.92561 21.3467 5.91992 21.3364 5.91426 21.3262Z" fill="#280068"/>
<path d="M19.717 18.8967C18.7866 20.466 17.0669 21.509 15.1119 21.4829C13.1532 21.4567 11.46 20.3644 10.5729 18.7665C10.5672 18.7563 10.5615 18.7459 10.5559 18.7356L15.1523 16.1703L19.717 18.8967Z" fill="#280068"/>
<path d="M23.3729 15.5296L24.8738 15.5497L24.8537 17.0505L23.3529 17.0304L23.3729 15.5296Z" fill="#390091"/>
<path fill-rule="evenodd" clip-rule="evenodd" d="M29.1006 8.38534C29.3278 8.79647 29.4365 9.27342 29.4295 9.81144C29.3722 14.2065 29.2547 22.9939 29.2547 22.9939C29.2475 23.5203 29.1309 23.9849 28.9034 24.3839L15.1523 16.1703L29.1006 8.38534ZM23.383 14.7792L23.403 13.2784L22.6526 13.2683L22.6326 14.7692L21.1317 14.7491L21.1217 15.4995L22.6225 15.5196L22.6025 17.0204L21.1016 17.0003L21.0916 17.7508L22.5924 17.7708L22.5724 19.2717L23.3228 19.2817L23.3428 17.7809L24.8437 17.8009L24.8236 19.3018L25.574 19.3118L25.5941 17.811L27.0949 17.831L27.105 17.0806L25.6041 17.0605L25.6242 15.5597L27.125 15.5798L27.1351 14.8294L25.6342 14.8093L25.6543 13.3084L24.9039 13.2984L24.8838 14.7993L23.383 14.7792Z" fill="#390091"/>
</svg>
