<svg width="225" height="190" viewBox="0 0 225 190" fill="none" xmlns="http://www.w3.org/2000/svg">
<path d="M224.871 189.786C224.871 189.866 174.525 189.925 112.441 189.925C50.3566 189.925 0 189.866 0 189.786C0 189.707 50.3301 189.648 112.441 189.648C174.552 189.648 224.871 189.712 224.871 189.786Z" fill="#263238"/>
<path d="M66.987 101.491L44.6252 99.1764L35.1538 77.6799L27.7954 79.5965C27.7954 79.5965 33.2319 102.314 39.3161 105.834C45.4003 109.354 66.1853 109.986 66.1853 109.986L66.987 101.491Z" fill="#FFC727"/>
<path d="M78.8752 112.425C82.5138 108.331 82.1446 102.062 78.0507 98.4237C73.9568 94.7851 67.6883 95.1542 64.0497 99.2482C60.4111 103.342 60.7802 109.611 64.8742 113.249C68.9681 116.888 75.2366 116.519 78.8752 112.425Z" fill="#263238"/>
<path d="M71.4626 115.762C69.1644 115.762 66.9374 114.965 65.161 113.507C63.3845 112.049 62.1685 110.021 61.7202 107.767C61.2718 105.513 61.6189 103.173 62.7022 101.146C63.7856 99.1195 65.5381 97.5311 67.6613 96.6516C69.7845 95.7722 72.1469 95.6561 74.3461 96.3232C76.5453 96.9904 78.4451 98.3994 79.7218 100.31C80.9986 102.221 81.5733 104.515 81.348 106.802C81.1228 109.09 80.1115 111.228 78.4865 112.853C77.5662 113.778 76.4715 114.511 75.2659 115.011C74.0602 115.51 72.7675 115.766 71.4626 115.762ZM71.4626 95.9274C69.1706 95.925 66.9488 96.7174 65.1756 98.1696C63.4023 99.6217 62.1875 101.644 61.738 103.891C61.2885 106.139 61.6322 108.472 62.7105 110.495C63.7887 112.517 65.5349 114.103 67.6514 114.983C69.768 115.862 72.1239 115.98 74.3179 115.317C76.5119 114.654 78.4081 113.251 79.6835 111.347C80.9589 109.443 81.5346 107.155 81.3125 104.874C81.0903 102.593 80.0841 100.459 78.4652 98.8367C77.5483 97.9129 76.4573 97.18 75.2553 96.6806C74.0533 96.1812 72.7642 95.9252 71.4626 95.9274Z" fill="#263238"/>
<path d="M42.6208 107.532C46.6152 106.573 49.0759 102.558 48.1169 98.5635C47.1579 94.5691 43.1424 92.1084 39.148 93.0673C35.1536 94.0263 32.6929 98.0418 33.6519 102.036C34.6109 106.031 38.6264 108.491 42.6208 107.532Z" fill="#263238"/>
<path d="M35.2361 79.4178C37.6101 77.0439 37.6101 73.1949 35.2361 70.821C32.8621 68.447 29.0132 68.447 26.6392 70.821C24.2653 73.1949 24.2653 77.0439 26.6392 79.4178C29.0132 81.7918 32.8621 81.7918 35.2361 79.4178Z" fill="#263238"/>
<path d="M40.4125 71.8297L35.4071 76.0566L33.6019 73.919L38.6073 69.6921C38.8709 69.4695 39.212 69.3607 39.5558 69.3897C39.8996 69.4187 40.2177 69.5831 40.4403 69.8466L40.5636 69.9926C40.6746 70.123 40.7588 70.2741 40.8113 70.4371C40.8638 70.6001 40.8836 70.7719 40.8696 70.9426C40.8556 71.1132 40.8079 71.2795 40.7295 71.4317C40.651 71.584 40.5433 71.7192 40.4125 71.8297Z" fill="#263238"/>
<path d="M34.0547 64.0886V70.4595C34.0547 70.5087 34.0351 70.556 34.0003 70.5909C33.9654 70.6257 33.9182 70.6453 33.8689 70.6453H31.4479C31.3987 70.6453 31.3514 70.6257 31.3165 70.5909C31.2817 70.556 31.2621 70.5087 31.2621 70.4595V64.0886C31.2621 63.7436 31.3992 63.4127 31.6431 63.1688C31.887 62.9249 32.2179 62.7878 32.5628 62.7878H32.754C33.0989 62.7878 33.4298 62.9249 33.6737 63.1688C33.9177 63.4127 34.0547 63.7436 34.0547 64.0886Z" fill="#263238"/>
<path d="M29.5467 64.1126L30.9375 70.3298C30.9483 70.3779 30.9395 70.4283 30.9131 70.4699C30.8867 70.5115 30.8448 70.541 30.7967 70.5517L28.4342 71.0803C28.3861 71.091 28.3357 71.0822 28.2941 71.0558C28.2525 71.0294 28.2231 70.9876 28.2123 70.9395L26.8214 64.7223C26.7461 64.3856 26.8076 64.0328 26.9924 63.7415C27.1772 63.4502 27.4702 63.2443 27.8068 63.169L27.9933 63.1272C28.33 63.0519 28.6828 63.1134 28.9741 63.2982C29.2654 63.483 29.4713 63.776 29.5467 64.1126Z" fill="#263238"/>
<path d="M24.6972 65.6709L27.8827 71.1882C27.9073 71.2309 27.914 71.2817 27.9012 71.3293C27.8885 71.3769 27.8573 71.4174 27.8147 71.4421L25.7181 72.6526C25.6754 72.6772 25.6247 72.6839 25.5771 72.6711C25.5295 72.6584 25.4889 72.6272 25.4642 72.5845L22.2788 67.0672C22.1063 66.7684 22.0596 66.4134 22.1488 66.0802C22.2381 65.747 22.4561 65.4628 22.7549 65.2904L22.9204 65.1948C23.2192 65.0223 23.5742 64.9756 23.9074 65.0649C24.2406 65.1541 24.5247 65.3721 24.6972 65.6709Z" fill="#263238"/>
<path d="M164.174 157.178L170.867 154.332L151.554 108.92L144.86 111.767L164.174 157.178Z" fill="#FFC727"/>
<path d="M152.513 113.26C156.054 109.08 155.536 102.822 151.357 99.2821C147.178 95.7417 140.92 96.2595 137.379 100.439C133.839 104.618 134.357 110.876 138.536 114.416C142.715 117.957 148.973 117.439 152.513 113.26Z" fill="#263238"/>
<path d="M144.967 116.802C143.411 116.803 141.877 116.439 140.487 115.738C139.098 115.038 137.893 114.021 136.968 112.769C136.044 111.518 135.426 110.067 135.165 108.533C134.903 106.999 135.006 105.426 135.464 103.939C136.007 102.185 137.025 100.616 138.406 99.406C139.788 98.1964 141.477 97.3934 143.287 97.0864C145.097 96.7793 146.957 96.9802 148.66 97.6668C150.363 98.3533 151.842 99.4986 152.933 100.975C154.024 102.452 154.684 104.202 154.84 106.032C154.996 107.861 154.641 109.698 153.816 111.338C152.99 112.978 151.726 114.357 150.164 115.322C148.602 116.286 146.803 116.799 144.967 116.802ZM144.967 96.9571C143.134 96.959 141.338 97.4693 139.777 98.4313C138.217 99.3933 136.955 100.769 136.13 102.406C135.305 104.043 134.951 105.877 135.106 107.703C135.261 109.529 135.92 111.277 137.009 112.751C138.098 114.225 139.575 115.368 141.275 116.053C142.975 116.738 144.832 116.938 146.639 116.63C148.446 116.323 150.132 115.52 151.51 114.311C152.888 113.103 153.903 111.535 154.444 109.784C155.215 107.274 154.959 104.561 153.731 102.24C152.504 99.9183 150.406 98.1789 147.898 97.4031C146.938 97.106 145.939 96.9556 144.935 96.9571H144.967Z" fill="#263238"/>
<path d="M165.027 136.501C166.126 132.543 163.809 128.443 159.852 127.343C155.894 126.243 151.793 128.56 150.694 132.518C149.594 136.476 151.911 140.576 155.869 141.676C159.827 142.776 163.927 140.459 165.027 136.501Z" fill="#263238"/>
<path d="M169.075 163.74C172.432 163.74 175.154 161.018 175.154 157.661C175.154 154.304 172.432 151.582 169.075 151.582C165.718 151.582 162.996 154.304 162.996 157.661C162.996 161.018 165.718 163.74 169.075 163.74Z" fill="#263238"/>
<path d="M161.124 163.783L164.528 158.198L166.917 159.654L163.513 165.239C163.334 165.534 163.045 165.745 162.709 165.826C162.374 165.908 162.02 165.852 161.726 165.673L161.563 165.573C161.416 165.485 161.288 165.368 161.187 165.23C161.085 165.092 161.012 164.936 160.971 164.769C160.931 164.603 160.923 164.43 160.949 164.261C160.976 164.092 161.035 163.929 161.124 163.783Z" fill="#263238"/>
<path d="M169.599 169.11L167.582 163.067C167.567 163.02 167.57 162.969 167.592 162.925C167.614 162.881 167.653 162.848 167.7 162.832L169.996 162.065C170.043 162.05 170.094 162.053 170.138 162.075C170.182 162.097 170.215 162.136 170.231 162.183L172.248 168.226C172.3 168.389 172.32 168.56 172.306 168.73C172.292 168.9 172.244 169.066 172.166 169.218C172.088 169.37 171.981 169.505 171.85 169.615C171.72 169.726 171.569 169.809 171.406 169.861L171.225 169.922C170.902 170.026 170.551 169.999 170.247 169.847C169.943 169.695 169.711 169.431 169.599 169.11Z" fill="#263238"/>
<path d="M173.873 167.662L170.585 162.205C170.572 162.184 170.564 162.161 170.56 162.137C170.557 162.113 170.558 162.088 170.564 162.064C170.569 162.041 170.58 162.018 170.594 161.999C170.609 161.979 170.627 161.962 170.648 161.95L172.722 160.7C172.743 160.688 172.766 160.679 172.79 160.676C172.814 160.672 172.839 160.673 172.862 160.679C172.886 160.685 172.908 160.696 172.928 160.71C172.947 160.725 172.964 160.743 172.977 160.764L176.265 166.221C176.443 166.516 176.496 166.87 176.413 167.205C176.33 167.54 176.117 167.828 175.822 168.006L175.658 168.105C175.363 168.283 175.008 168.336 174.674 168.253C174.339 168.17 174.051 167.957 173.873 167.662Z" fill="#263238"/>
<path d="M177.977 164.653L173.209 160.428C173.172 160.396 173.149 160.35 173.146 160.3C173.143 160.251 173.16 160.203 173.193 160.166L174.795 158.358C174.827 158.321 174.873 158.299 174.922 158.296C174.972 158.293 175.02 158.309 175.057 158.342L179.825 162.567C180.084 162.796 180.24 163.118 180.261 163.462C180.282 163.806 180.165 164.145 179.936 164.403L179.81 164.546C179.581 164.803 179.259 164.958 178.916 164.978C178.572 164.998 178.235 164.881 177.977 164.653Z" fill="#263238"/>
<path d="M68.5156 95.5131C68.5156 95.5131 69.2324 165.136 108.302 166.495C147.371 167.855 149.012 96.0121 149.012 95.5131C149.012 95.5131 144.398 85.1339 108.764 85.5373C73.1292 85.9408 68.5156 95.5131 68.5156 95.5131Z" fill="#FFC727"/>
<path d="M90.4528 83.2598H123.475C125.63 83.2598 127.377 81.5127 127.377 79.3576V78.7895C127.377 76.6344 125.63 74.8874 123.475 74.8874H90.4528C88.2977 74.8874 86.5506 76.6344 86.5506 78.7895V79.3576C86.5506 81.5127 88.2977 83.2598 90.4528 83.2598Z" fill="#263238"/>
<path d="M105.542 21.3506H108.393V6.93644H105.542V21.3506Z" fill="#263238"/>
<path d="M150.559 64.2623C155.061 63.1924 157.843 58.6758 156.773 54.1744C155.703 49.6729 151.186 46.891 146.685 47.9609C142.183 49.0309 139.402 53.5474 140.471 58.0489C141.541 62.5503 146.058 65.3322 150.559 64.2623Z" fill="#FFC727"/>
<path d="M65.9074 63.7183C70.4196 62.6948 73.2478 58.2072 72.2243 53.6949C71.2008 49.1827 66.7132 46.3545 62.2009 47.378C57.6887 48.4015 54.8605 52.8891 55.884 57.4014C56.9075 61.9137 61.3951 64.7419 65.9074 63.7183Z" fill="#FFC727"/>
<path d="M105.74 18.0206C105.74 18.0206 71.6774 17.6118 66.2939 47.1356C60.9105 76.6594 89.707 77.1903 97.9945 77.7477C101.748 78.0026 109.786 78.0291 116.879 77.9017C132.583 77.6309 143.679 74.5941 147.454 60.026C147.903 58.3178 148.186 56.57 148.298 54.8072C149.291 38.8163 138.497 17.2349 105.74 18.0206Z" fill="#FFC727"/>
<path d="M130.016 63.1596L80.5304 63.9295C79.2957 63.9513 78.0688 63.7293 76.9199 63.2764C75.7711 62.8235 74.7228 62.1484 73.8352 61.2899C72.9476 60.4313 72.238 59.4062 71.747 58.273C71.2561 57.1399 70.9934 55.9211 70.974 54.6864C70.9529 53.4514 71.1755 52.2244 71.629 51.0755C72.0826 49.9266 72.7581 48.8784 73.6171 47.9909C74.4761 47.1033 75.5016 46.3938 76.635 45.9029C77.7684 45.412 78.9874 45.1494 80.2224 45.13L129.708 44.3602C130.943 44.3377 132.17 44.5591 133.32 45.0118C134.469 45.4645 135.517 46.1395 136.405 46.9982C137.293 47.8569 138.002 48.8823 138.493 50.0158C138.984 51.1492 139.246 52.3683 139.265 53.6033C139.286 54.8385 139.064 56.0658 138.611 57.215C138.158 58.3641 137.482 59.4126 136.623 60.3003C135.764 61.188 134.738 61.8975 133.605 62.3882C132.471 62.8788 131.251 63.141 130.016 63.1596Z" fill="#263238"/>
<path d="M90.8143 53.6615C90.6992 54.2466 90.4132 54.7845 89.9924 55.2071C89.5717 55.6297 89.0351 55.9181 88.4504 56.0358C87.8658 56.1535 87.2594 56.0951 86.7079 55.8682C86.1564 55.6413 85.6846 55.2559 85.3521 54.7609C85.0196 54.2658 84.8413 53.6833 84.8399 53.087C84.8384 52.4906 85.0138 51.9072 85.3438 51.4105C85.6739 50.9139 86.1438 50.5262 86.6941 50.2965C87.2445 50.0669 87.8506 50.0056 88.4358 50.1203C88.8245 50.1966 89.1944 50.3487 89.5244 50.5679C89.8543 50.7872 90.1378 51.0693 90.3587 51.3981C90.5796 51.727 90.7335 52.0961 90.8117 52.4845C90.8898 52.8729 90.8907 53.2728 90.8143 53.6615Z" fill="white"/>
<path d="M125.371 53.1095C125.257 53.6951 124.972 54.2337 124.551 54.6571C124.131 55.0805 123.594 55.3698 123.01 55.4882C122.425 55.6066 121.818 55.5489 121.266 55.3224C120.714 55.0959 120.242 54.7108 119.909 54.2158C119.576 53.7207 119.397 53.138 119.396 52.5414C119.394 51.9448 119.569 51.3611 119.899 50.8641C120.229 50.3671 120.699 49.9793 121.25 49.7496C121.801 49.5199 122.407 49.4586 122.992 49.5737C123.776 49.7277 124.467 50.1866 124.913 50.8495C125.359 51.5125 125.524 52.3253 125.371 53.1095Z" fill="white"/>
<path d="M120.396 123.163C120.202 125.82 119.225 128.359 117.588 130.461C115.95 132.562 113.727 134.131 111.198 134.968C108.669 135.806 105.949 135.875 103.381 135.166C100.813 134.458 98.513 133.004 96.7713 130.989C95.0297 128.973 93.9248 126.486 93.5964 123.843C93.268 121.199 93.7309 118.518 94.9264 116.137C96.122 113.757 97.9966 111.784 100.313 110.469C102.63 109.154 105.284 108.555 107.941 108.749C111.504 109.01 114.817 110.674 117.153 113.377C119.488 116.08 120.655 119.6 120.396 123.163Z" fill="#263238"/>
<path d="M116.749 122.897C116.607 124.834 115.894 126.685 114.701 128.216C113.507 129.747 111.886 130.89 110.043 131.5C108.2 132.11 106.217 132.16 104.346 131.643C102.474 131.127 100.798 130.066 99.529 128.597C98.26 127.127 97.4553 125.315 97.2166 123.388C96.9779 121.461 97.3159 119.507 98.1879 117.772C99.0599 116.037 100.427 114.6 102.116 113.642C103.804 112.684 105.739 112.249 107.676 112.391C108.962 112.484 110.216 112.83 111.368 113.409C112.52 113.988 113.547 114.788 114.39 115.764C115.232 116.739 115.875 117.872 116.279 119.096C116.684 120.32 116.844 121.612 116.749 122.897Z" fill="white"/>
<path d="M112.019 124.681C111.944 124.145 111.913 123.603 111.928 123.062C111.902 122.048 111.88 120.599 111.88 118.815L111.987 119.011L106.938 116.065H107.219L102.122 118.926C101.984 119.16 102.308 118.613 102.276 118.671V119.425V120.185C102.276 120.684 102.276 121.183 102.25 121.671C102.25 122.648 102.213 123.593 102.197 124.506L102.059 124.262L107.049 127.309H106.826C108.382 126.471 109.667 125.802 110.543 125.345C111.014 125.077 111.506 124.846 112.013 124.655C111.617 124.977 111.19 125.26 110.739 125.499C109.879 126.03 108.615 126.778 107.023 127.697L106.911 127.761L106.8 127.697L101.745 124.75L101.607 124.671V124.501C101.607 123.588 101.618 122.643 101.639 121.666C101.639 121.177 101.639 120.684 101.639 120.179V119.425V118.693C101.607 118.751 101.931 118.21 101.793 118.438L106.906 115.603L107.055 115.523L107.193 115.608L112.178 118.656L112.289 118.725V118.852C112.231 120.689 112.172 122.165 112.119 123.168C112.133 123.675 112.099 124.181 112.019 124.681Z" fill="#FFC727"/>
<path d="M110.292 9.9669C112.127 8.13201 112.127 5.15706 110.292 3.32217C108.457 1.48727 105.482 1.48728 103.648 3.32217C101.813 5.15706 101.813 8.132 103.648 9.9669C105.482 11.8018 108.457 11.8018 110.292 9.9669Z" fill="#FFC727"/>
<path d="M99.4623 52.2705C99.6853 52.2971 99.5738 53.3323 100.232 54.7499C100.605 55.5635 101.148 56.2876 101.825 56.8735C102.618 57.5713 103.605 58.0103 104.655 58.1317C105.71 58.1998 106.76 57.9482 107.67 57.4097C108.44 56.962 109.106 56.3557 109.624 55.6312C110.526 54.3729 110.606 53.3164 110.829 53.3323C110.919 53.3323 111.01 53.5978 111.01 54.0968C110.989 54.8078 110.808 55.505 110.479 56.1355C109.984 57.0885 109.253 57.8984 108.355 58.4874C107.245 59.2695 105.893 59.6311 104.541 59.5076C103.189 59.384 101.925 58.7834 100.975 57.8132C100.2 57.0718 99.6296 56.1428 99.319 55.1162C99.0976 54.4312 99.0395 53.704 99.1491 52.9925C99.2393 52.4988 99.3774 52.2546 99.4623 52.2705Z" fill="white"/>
<path d="M144.818 66.0265C144.765 66.0265 145.375 65.0709 145.964 63.3986C146.697 61.2083 147.161 58.937 147.345 56.6348C147.557 54.3406 147.611 52.0345 147.504 49.733C147.467 48.8464 147.424 48.1403 147.382 47.6093C147.346 47.3526 147.337 47.0928 147.355 46.8342C147.423 47.0844 147.468 47.3403 147.488 47.5987C147.562 48.0925 147.637 48.8092 147.701 49.7224C147.867 52.0424 147.84 54.3723 147.621 56.6879C147.434 59.0117 146.94 61.3004 146.15 63.4941C145.9 64.1558 145.599 64.7966 145.248 65.4107C145.122 65.6279 144.978 65.834 144.818 66.0265Z" fill="#263238"/>
<path d="M65.9255 46.3511C65.8954 46.6089 65.8403 46.8632 65.7609 47.1103C65.6919 47.3492 65.6175 47.6412 65.5485 47.9916C65.4795 48.342 65.3733 48.7242 65.3096 49.1649C65.1235 50.1882 64.9994 51.2218 64.938 52.2601C64.8666 53.5304 64.8843 54.8042 64.9911 56.072C65.1097 57.3376 65.3154 58.5935 65.6069 59.8308C65.8507 60.8429 66.1556 61.8393 66.5201 62.8145C66.6634 63.2339 66.828 63.6003 66.9607 63.9294C67.0935 64.2586 67.2209 64.5347 67.3271 64.7576C67.4481 64.9869 67.5476 65.2268 67.6244 65.4744C67.4733 65.2638 67.3418 65.0399 67.2315 64.8054C67.0814 64.54 66.945 64.2671 66.8227 63.9878C66.674 63.6693 66.4935 63.303 66.3396 62.8835C65.9454 61.9109 65.619 60.9122 65.3627 59.8945C65.052 58.6454 64.8355 57.3748 64.715 56.0932C64.6068 54.8129 64.5961 53.5261 64.6831 52.2442C64.7572 51.1967 64.9026 50.1554 65.1185 49.1277C65.1981 48.6871 65.3096 48.2995 65.3999 47.9544C65.4901 47.6093 65.5751 47.3173 65.6547 47.0784C65.7251 46.829 65.8156 46.5858 65.9255 46.3511Z" fill="#263238"/>
<path d="M68.3354 95.4546L68.5372 95.513L69.1318 95.7147L71.3935 96.5111L73.0287 97.0951C73.6286 97.2968 74.2922 97.488 74.9983 97.7056C76.4159 98.1251 78.0139 98.6719 79.8296 99.0966L82.6593 99.824C83.6468 100.073 84.6874 100.259 85.7598 100.493C87.8835 100.981 90.2142 101.316 92.6616 101.709C97.9545 102.435 103.289 102.816 108.631 102.85C113.974 102.819 119.308 102.437 124.601 101.709C127.033 101.316 129.347 100.987 131.503 100.493C132.565 100.265 133.626 100.079 134.603 99.8293L137.438 99.1019C139.249 98.6772 140.847 98.1304 142.264 97.7109C142.97 97.4933 143.634 97.3022 144.234 97.1004L145.869 96.5164L148.131 95.72L148.725 95.5183C148.792 95.4919 148.862 95.4723 148.933 95.4599L148.736 95.5448L148.152 95.7731L145.906 96.6173L144.234 97.2437C143.639 97.4508 142.976 97.6472 142.27 97.8755C140.852 98.3109 139.259 98.8683 137.444 99.309L134.609 100.052C133.626 100.307 132.581 100.498 131.508 100.737C129.385 101.236 127.049 101.576 124.606 101.979C119.303 102.724 113.955 103.112 108.599 103.142C103.246 103.108 97.9 102.718 92.5979 101.974C90.1611 101.576 87.8198 101.231 85.6961 100.732C84.6343 100.493 83.5725 100.302 82.5956 100.047L79.7606 99.3037C77.9449 98.863 76.3522 98.3056 74.9346 97.8702C74.2285 97.6419 73.5702 97.4455 72.9703 97.2384L71.3404 96.6279L69.0946 95.7838L68.5106 95.5555C68.4492 95.5275 68.3905 95.4937 68.3354 95.4546Z" fill="#263238"/>
<g opacity="0.3">
<path d="M68.5156 95.513C68.5156 95.513 73.1292 85.9567 108.764 85.5373C144.398 85.1178 149.012 95.513 149.012 95.513C149.012 95.513 113.048 113.24 68.5156 95.513Z" fill="black"/>
</g>
<path d="M100.992 20.4321C100.951 20.436 100.91 20.436 100.87 20.4321L100.514 20.4693C100.195 20.5011 99.7281 20.5118 99.1282 20.5808C97.4354 20.7451 95.7557 21.0235 94.1005 21.4143C85.5394 23.375 77.9882 28.3928 72.8641 35.5258C70.3886 38.9536 68.5143 42.7776 67.3215 46.8342C67.1357 47.4076 67.0348 47.8641 66.9445 48.1667L66.8437 48.5171C66.8341 48.5576 66.8199 48.5968 66.8012 48.6339C66.7941 48.5935 66.7941 48.5522 66.8012 48.5118C66.8012 48.4163 66.8437 48.2995 66.8755 48.1561C66.9498 47.8482 67.0295 47.3863 67.1994 46.8023C67.6425 45.1529 68.2104 43.5396 68.8983 41.9764C71.1676 36.7814 74.6223 32.1903 78.9855 28.5709C83.3673 24.9789 88.5292 22.4625 94.058 21.2232C95.7229 20.8449 97.4144 20.5946 99.1175 20.4746C99.7228 20.4215 100.179 20.4268 100.509 20.4109H100.87C100.954 20.4215 100.992 20.4268 100.992 20.4321Z" fill="white"/>
<path d="M67.6666 61.3013C67.4539 60.9726 67.2894 60.615 67.1782 60.2395C66.5484 58.4653 66.255 56.5892 66.3128 54.7074C66.2977 54.3168 66.3443 53.9262 66.4509 53.55C66.5358 53.55 66.419 55.3233 66.7588 57.4682C67.0986 59.613 67.7463 61.2695 67.6666 61.3013Z" fill="white"/>
<path d="M58.731 58.5566C58.731 58.5566 58.6089 58.4717 58.4443 58.2699C58.2097 57.984 58.0084 57.6723 57.8444 57.3408C57.2774 56.2434 57.0605 54.9985 57.2228 53.7739C57.3851 52.5494 57.9189 51.404 58.7522 50.4921C58.9963 50.2128 59.2725 49.9633 59.5751 49.7489C59.6791 49.6614 59.7977 49.5931 59.9255 49.5471C59.9574 49.5896 59.4796 49.9134 58.9009 50.6089C58.1414 51.5185 57.6554 52.6248 57.4994 53.7995C57.3434 54.9742 57.5238 56.169 58.0196 57.2453C58.3912 58.0894 58.7681 58.5248 58.731 58.5566Z" fill="white"/>
<path d="M107.272 3.36885C106.858 3.32325 106.441 3.31437 106.025 3.3423C105.53 3.38575 105.051 3.54205 104.626 3.7992C104.2 4.05636 103.839 4.40753 103.571 4.82579C103.302 5.24405 103.133 5.71827 103.076 6.21208C103.019 6.70589 103.076 7.20616 103.243 7.67451C103.386 8.06295 103.564 8.43784 103.774 8.79473C103.774 8.79473 103.668 8.73102 103.519 8.56113C103.315 8.31536 103.153 8.03723 103.041 7.73822C102.839 7.24246 102.758 6.7052 102.807 6.1719C102.857 5.63861 103.033 5.12498 103.323 4.67447C103.612 4.22397 104.006 3.84985 104.471 3.58377C104.936 3.31769 105.458 3.16749 105.993 3.14587C106.311 3.12382 106.63 3.15431 106.938 3.23612C107.177 3.27328 107.272 3.35292 107.272 3.36885Z" fill="white"/>
<path d="M153.546 52.1167C153.488 52.1804 152.665 51.3894 151.423 50.7948C150.18 50.2001 149.05 50.0249 149.06 49.94C149.926 49.9184 150.781 50.1273 151.539 50.5452C152.338 50.8791 153.031 51.422 153.546 52.1167Z" fill="white"/>
<path d="M80.7267 145.063C80.7024 145.031 80.6811 144.997 80.663 144.962L80.4878 144.649C80.3285 144.346 80.1161 143.943 79.84 143.428C79.702 143.162 79.5534 142.865 79.3835 142.546L78.8844 141.485C78.5234 140.715 78.1199 139.839 77.7217 138.83C77.52 138.336 77.3076 137.816 77.0846 137.28C76.8617 136.744 76.6705 136.16 76.4529 135.57C75.9963 134.397 75.6087 133.107 75.1574 131.769C74.3239 129.061 73.5063 126.062 72.7896 122.876C72.0729 119.691 71.5526 116.617 71.1279 113.819C70.7031 111.021 70.4271 108.51 70.2572 106.354C70.1563 105.293 70.0926 104.326 70.0395 103.477C69.9864 102.627 69.9386 101.884 69.9227 101.3C69.9068 100.716 69.8908 100.265 69.8749 99.9251V99.5694C69.8692 99.5289 69.8692 99.4878 69.8749 99.4473C69.881 99.4877 69.881 99.5289 69.8749 99.5694L69.9068 99.9251C69.9068 100.26 69.9652 100.721 70.0023 101.295C70.0395 101.868 70.0926 102.622 70.1669 103.466C70.2412 104.31 70.3103 105.277 70.4271 106.338C70.6182 108.462 70.958 110.989 71.3561 113.771C71.7543 116.553 72.333 119.611 73.0338 122.797C73.7346 125.982 74.5575 128.976 75.3698 131.679C75.8211 133.017 76.198 134.301 76.644 135.475C76.8563 136.069 77.0581 136.637 77.2598 137.184L77.8757 138.745C78.2579 139.738 78.6508 140.619 79.0012 141.4L79.479 142.461C79.633 142.785 79.7816 143.083 79.9144 143.353L80.509 144.596L80.6576 144.92C80.6898 144.962 80.7133 145.011 80.7267 145.063Z" fill="white"/>
<path d="M59.9521 101.778C58.6568 101.827 57.3596 101.781 56.0711 101.64C54.7765 101.595 53.4868 101.458 52.2114 101.231C53.5067 101.182 54.8038 101.228 56.0924 101.369C57.387 101.414 58.6768 101.551 59.9521 101.778Z" fill="white"/>
<path d="M39.9796 90.4429C39.2266 89.3461 38.5507 88.1983 37.9568 87.0079C37.2837 85.8612 36.6912 84.6691 36.1836 83.4402C36.9343 84.5393 37.6084 85.6887 38.201 86.8805C38.8776 88.0243 39.4719 89.2147 39.9796 90.4429Z" fill="white"/>
<path d="M99.5741 161.802C99.3651 161.798 99.157 161.773 98.9529 161.728C98.3912 161.628 97.8362 161.493 97.2912 161.324C96.4815 161.078 95.6903 160.775 94.9233 160.417C93.9891 159.966 93.091 159.444 92.2369 158.856C91.3925 158.252 90.5972 157.583 89.8585 156.854C89.2602 156.255 88.7066 155.612 88.202 154.932C87.8564 154.478 87.5424 154.001 87.2623 153.504C87.1477 153.33 87.0533 153.143 86.981 152.947C87.0234 152.92 87.4694 153.69 88.356 154.816C88.8772 155.47 89.4393 156.09 90.039 156.674C91.5085 158.101 93.1946 159.288 95.0348 160.188C95.7865 160.551 96.5595 160.869 97.3496 161.139C98.7087 161.595 99.5847 161.749 99.5741 161.802Z" fill="white"/>
<path d="M107.718 137.242C107.595 137.264 107.471 137.276 107.347 137.28C106.993 137.309 106.639 137.32 106.285 137.311C104.965 137.282 103.655 137.07 102.393 136.68C101.521 136.408 100.673 136.067 99.8555 135.66C98.9183 135.178 98.0293 134.608 97.2009 133.956C95.2819 132.482 93.7693 130.544 92.8052 128.324C91.8412 126.104 91.4575 123.676 91.6901 121.267C91.7767 120.222 91.9633 119.187 92.2476 118.178C92.502 117.302 92.8306 116.449 93.2298 115.629C93.8056 114.44 94.5455 113.337 95.4277 112.353C95.6643 112.085 95.916 111.829 96.1816 111.589C96.2695 111.501 96.3635 111.419 96.463 111.345C96.463 111.345 96.1126 111.722 95.5073 112.407C94.6578 113.406 93.9437 114.512 93.3837 115.698C92.5488 117.446 92.0516 119.335 91.9184 121.267C91.7032 123.633 92.0864 126.016 93.0326 128.195C93.9789 130.374 95.4579 132.28 97.3337 133.738C98.1377 134.386 99.0017 134.954 99.9139 135.437C100.713 135.859 101.546 136.214 102.404 136.499C103.647 136.902 104.937 137.14 106.242 137.205C107.203 137.242 107.718 137.211 107.718 137.242Z" fill="white"/>
<path d="M43.4413 95.4334C43.4413 95.4758 43.0325 95.2794 42.3795 95.1255C41.5057 94.9342 40.5999 94.9432 39.73 95.152C38.8602 95.3607 38.049 95.7636 37.3571 96.3306C36.8262 96.7713 36.5713 97.1217 36.5342 97.0951C36.6799 96.7438 36.9052 96.4312 37.1925 96.182C37.8816 95.5497 38.7206 95.1038 39.6301 94.8864C40.5396 94.669 41.4896 94.6873 42.3901 94.9396C42.7738 95.0211 43.1336 95.1901 43.4413 95.4334Z" fill="white"/>
<path d="M121.841 42.6454C121.841 42.7197 115.321 42.7834 107.283 42.7834C99.2451 42.7834 92.7202 42.7197 92.7202 42.6454C92.7202 42.571 99.2398 42.5073 107.283 42.5073C115.326 42.5073 121.841 42.5604 121.841 42.6454Z" fill="white"/>
<path d="M96.9935 75.8429C96.9139 75.8653 96.8319 75.8778 96.7493 75.88L96.0378 75.9437C95.7299 75.9703 95.353 75.9915 94.9123 76.0021C94.4717 76.0127 93.9726 76.034 93.4205 76.0021C92.3109 76.0021 90.9942 75.9225 89.5342 75.7685C87.9542 75.5847 86.3857 75.3135 84.8357 74.9562C83.2893 74.5854 81.765 74.1281 80.2699 73.5865C79.0517 73.1404 77.8574 72.6318 76.6916 72.0628C76.1607 71.8292 75.7519 71.585 75.3643 71.3779C74.9767 71.1709 74.6476 70.985 74.3821 70.847L73.7716 70.4754C73.6992 70.4353 73.6315 70.3872 73.5698 70.332C73.5698 70.332 73.6548 70.332 73.7981 70.4276L74.4352 70.7515C74.706 70.9001 75.0404 71.0753 75.4333 71.2824C75.8262 71.4894 76.2721 71.7018 76.7765 71.9248C77.7746 72.392 78.9904 72.891 80.3601 73.3848C83.3371 74.4521 86.4255 75.1787 89.5661 75.5509C91.0101 75.7207 92.3215 75.8163 93.4205 75.8429C93.9514 75.8747 94.4823 75.8429 94.9123 75.8429C95.3424 75.8429 95.7246 75.8429 96.0325 75.8429H96.7439C96.8266 75.8291 96.9109 75.8291 96.9935 75.8429Z" fill="white"/>
<path d="M139.376 99.7656C139.337 99.7915 139.294 99.8112 139.249 99.824L138.867 99.9674L137.391 100.498C136.748 100.732 135.962 101.003 135.033 101.273C134.104 101.544 133.058 101.895 131.874 102.192L130.027 102.68C129.385 102.845 128.705 102.983 128.009 103.148C126.618 103.482 125.111 103.747 123.529 104.05C116.637 105.25 109.634 105.679 102.648 105.33C101.055 105.229 99.5103 105.149 98.0875 104.984C97.3761 104.91 96.6859 104.857 96.0276 104.767L94.1322 104.507C92.9218 104.363 91.8387 104.146 90.8884 103.976C89.9381 103.806 89.1152 103.647 88.4515 103.493L86.9225 103.153L86.5243 103.057C86.4782 103.05 86.4335 103.035 86.3916 103.015C86.4393 103.011 86.4873 103.011 86.5349 103.015L86.9331 103.084L88.4728 103.376C89.1417 103.509 89.9593 103.662 90.9149 103.806C91.8706 103.949 92.9483 104.156 94.1588 104.289L96.0488 104.528C96.7071 104.613 97.3973 104.661 98.1087 104.73C99.5263 104.884 101.055 104.953 102.659 105.048C105.871 105.181 109.401 105.186 113.107 104.969C116.813 104.751 120.311 104.289 123.481 103.769C125.074 103.477 126.571 103.238 127.962 102.898C128.657 102.739 129.337 102.606 129.979 102.447L131.827 101.974C133.011 101.693 134.056 101.364 134.986 101.098C135.915 100.833 136.711 100.567 137.353 100.371L138.845 99.893L139.238 99.7762L139.376 99.7656Z" fill="white"/>
</svg>
