<svg width="12" height="12" viewBox="0 0 12 12" fill="none" xmlns="http://www.w3.org/2000/svg">
<path d="M5.99998 12C9.27644 12 12 9.28234 12 6C12 2.72353 9.27057 0 5.9941 0C2.71174 0 0 2.72353 0 6C0 9.28234 2.71764 12 5.99998 12ZM5.99998 11C3.22351 11 1.00585 8.77646 1.00585 6C1.00585 3.22941 3.21764 1 5.9941 1C8.76467 1 10.9941 3.22941 11 6C11.0059 8.77646 8.77057 11 5.99998 11ZM2.91764 6.63528H5.9941C6.2235 6.63528 6.40586 6.45882 6.40586 6.22352V2.25882C6.40586 2.02942 6.2235 1.85296 5.9941 1.85296C5.76468 1.85296 5.58822 2.02942 5.58822 2.25882V5.81764H2.91764C2.68822 5.81764 2.51173 5.99413 2.51173 6.22352C2.51173 6.45882 2.68822 6.63528 2.91764 6.63528Z" fill="#A3A3A3"/>
</svg>
