<svg width="157" height="144" viewBox="0 0 157 144" fill="none" xmlns="http://www.w3.org/2000/svg">
<path d="M156.383 0.462402H0V116.841H156.383V0.462402Z" fill="#37474F"/>
<path d="M148.487 8.03174H7.89978V91.602H148.487V8.03174Z" fill="white"/>
<path d="M156.383 99.6748H0V116.841H156.383V99.6748Z" fill="#C7C7C7"/>
<path d="M111.545 137.82H44.843V143.394H111.545V137.82Z" fill="#37474F"/>
<path d="M103.597 137.824H52.7839L54.0749 128.148L54.1355 127.691L54.2567 126.787L54.3173 126.33L54.4385 125.422L54.4571 125.282L54.4991 124.965L54.6249 124.056L54.6809 123.604L55.5851 116.845H100.796L101.644 123.217L101.691 123.525L101.831 124.583L101.868 124.89L101.924 125.282L102.012 125.948L102.05 126.251L102.19 127.314L102.236 127.617L103.597 137.824Z" fill="#C7C7C7"/>
<path d="M148.487 8.03174H7.89978V12.5528H148.487V8.03174Z" fill="#263238"/>
<path d="M11.5028 10.3015C11.5028 10.5239 11.4368 10.7412 11.3132 10.9261C11.1895 11.1109 11.0138 11.2549 10.8083 11.3397C10.6028 11.4246 10.3767 11.4466 10.1586 11.4029C9.94062 11.3591 9.74048 11.2517 9.58358 11.0941C9.42667 10.9366 9.32006 10.736 9.27724 10.5178C9.23443 10.2996 9.25734 10.0736 9.34307 9.86842C9.42881 9.66325 9.57351 9.48814 9.75884 9.36527C9.94418 9.24241 10.1618 9.17731 10.3842 9.17823C10.5315 9.17823 10.6773 9.20732 10.8133 9.26383C10.9493 9.32034 11.0729 9.40315 11.1768 9.50752C11.2807 9.61189 11.363 9.73575 11.419 9.87201C11.4749 10.0083 11.5034 10.1542 11.5028 10.3015Z" fill="#C7C7C7"/>
<path d="M16.0663 10.3015C16.0663 10.5239 16.0003 10.7412 15.8766 10.9261C15.753 11.1109 15.5773 11.2549 15.3718 11.3397C15.1662 11.4246 14.9401 11.4466 14.7221 11.4029C14.5041 11.3591 14.304 11.2517 14.1471 11.0941C13.9901 10.9366 13.8835 10.736 13.8407 10.5178C13.7979 10.2996 13.8208 10.0736 13.9066 9.86842C13.9923 9.66325 14.137 9.48814 14.3223 9.36527C14.5077 9.24241 14.7253 9.17731 14.9476 9.17823C15.0949 9.17823 15.2408 9.20732 15.3768 9.26383C15.5128 9.32034 15.6363 9.40315 15.7403 9.50752C15.8442 9.61189 15.9265 9.73575 15.9825 9.87201C16.0384 10.0083 16.0669 10.1542 16.0663 10.3015Z" fill="white"/>
<path d="M20.6478 10.3015C20.6478 10.5237 20.5819 10.7408 20.4585 10.9256C20.3351 11.1103 20.1596 11.2543 19.9544 11.3393C19.7491 11.4243 19.5233 11.4465 19.3054 11.4032C19.0875 11.3599 18.8873 11.2529 18.7302 11.0958C18.5732 10.9387 18.4662 10.7385 18.4228 10.5206C18.3795 10.3028 18.4017 10.0769 18.4868 9.87165C18.5718 9.66639 18.7157 9.49096 18.9005 9.36753C19.0852 9.2441 19.3024 9.17822 19.5245 9.17822C19.8224 9.17822 20.1081 9.29657 20.3188 9.50723C20.5295 9.71788 20.6478 10.0036 20.6478 10.3015Z" fill="#FFC727"/>
<path d="M80.9742 107.104C80.9733 107.665 80.8059 108.213 80.4933 108.679C80.1808 109.144 79.737 109.507 79.2183 109.72C78.6996 109.934 78.1293 109.988 77.5795 109.877C77.0297 109.766 76.5252 109.495 76.1299 109.097C75.7347 108.699 75.4663 108.193 75.3589 107.642C75.2516 107.092 75.3099 106.522 75.5267 106.004C75.7435 105.487 76.1089 105.046 76.5766 104.736C77.0444 104.427 77.5935 104.263 78.1543 104.266C78.9043 104.269 79.6222 104.57 80.1508 105.102C80.6793 105.634 80.9754 106.354 80.9742 107.104Z" fill="#37474F"/>
<path d="M101.925 125.282H54.4581L54.5 124.965L54.6259 124.056L54.6818 123.604L55.586 116.845H100.797L101.645 123.217L101.692 123.525L101.832 124.583L101.869 124.89L101.925 125.282Z" fill="#A6A6A6"/>
<path d="M148.487 12.5481H7.89978V31.2803H148.487V12.5481Z" fill="#FFC727"/>
<path d="M140.349 84.2469H83.5421V44.3262H140.349V84.2469ZM84.0082 83.7808H139.883V44.7923H84.0082V83.7808Z" fill="#EBEBEB"/>
<path d="M83.426 43.9733L83.1603 44.3555L139.561 83.5607L139.827 83.1785L83.426 43.9733Z" fill="#EBEBEB"/>
<path d="M83.9099 84.205L83.6396 83.8228C84.1803 83.4453 137.762 46.0414 139.976 44.3728L140.256 44.7457C138.037 46.4189 84.4506 83.8275 83.9099 84.205Z" fill="#EBEBEB"/>
<path d="M104.866 12.5481H51.5167V28.9079H104.866V12.5481Z" fill="#263238"/>
<path d="M73.4653 36.4307H36.4529V37.1857H73.4653V36.4307Z" fill="#EBEBEB"/>
<path d="M65.057 38.3323H36.4529V39.0873H65.057V38.3323Z" fill="#EBEBEB"/>
<path d="M71.2467 40.2339H36.4529V40.989H71.2467V40.2339Z" fill="#EBEBEB"/>
<path d="M74.2903 42.1357H36.4529V42.8908H74.2903V42.1357Z" fill="#EBEBEB"/>
<path d="M56.0707 44.0374H36.4529V44.7924H56.0707V44.0374Z" fill="#EBEBEB"/>
<path d="M73.5818 45.9436H36.4529V46.6987H73.5818V45.9436Z" fill="#EBEBEB"/>
<path d="M67.3595 47.8452H36.4529V48.6003H67.3595V47.8452Z" fill="#EBEBEB"/>
<path d="M75.3017 49.7468H36.4529V50.5019H75.3017V49.7468Z" fill="#EBEBEB"/>
<path d="M73.5818 51.6487H36.4529V52.4037H73.5818V51.6487Z" fill="#EBEBEB"/>
<path d="M75.3017 53.5503H36.4529V54.3054H75.3017V53.5503Z" fill="#EBEBEB"/>
<path d="M21.7248 17.6704H16.2668V18.4255H21.7248V17.6704Z" fill="white"/>
<path d="M21.7248 19.5723H16.2668V20.3273H21.7248V19.5723Z" fill="white"/>
<path d="M21.7248 21.4739H16.2668V22.2289H21.7248V21.4739Z" fill="white"/>
<path d="M140.116 36.4307H83.7749V40.6115H140.116V36.4307Z" fill="#B0E7FF"/>
<path d="M34.1415 36.426H16.2668V54.3053H34.1415V36.426Z" fill="#B0E7FF"/>
<path d="M25.2058 45.3658C26.9897 45.3658 28.4359 43.9197 28.4359 42.1358C28.4359 40.3519 26.9897 38.9058 25.2058 38.9058C23.422 38.9058 21.9758 40.3519 21.9758 42.1358C21.9758 43.9197 23.422 45.3658 25.2058 45.3658Z" fill="white"/>
<path d="M30.7899 51.0521V54.3147H19.6037V51.0521C19.6037 49.5687 20.193 48.1461 21.2419 47.0972C22.2908 46.0483 23.7134 45.459 25.1968 45.459C26.6802 45.459 28.1028 46.0483 29.1517 47.0972C30.2006 48.1461 30.7899 49.5687 30.7899 51.0521Z" fill="white"/>
<path d="M62.6795 25.1467V21.884C62.6789 21.8439 62.6862 21.804 62.7012 21.7667C62.7161 21.7294 62.7384 21.6954 62.7665 21.6668C62.7947 21.6382 62.8284 21.6154 62.8654 21.5999C62.9025 21.5844 62.9423 21.5764 62.9824 21.5764H63.7701C64.0495 21.5764 64.3174 21.6874 64.515 21.8849C64.7125 22.0825 64.8235 22.3504 64.8235 22.6298C64.8239 22.8589 64.7485 23.0818 64.6091 23.2637C64.8282 23.3992 64.9971 23.6026 65.0902 23.8429C65.1832 24.0832 65.1954 24.3472 65.1247 24.595C65.0541 24.8428 64.9045 25.0608 64.6987 25.2159C64.493 25.371 64.2422 25.4547 63.9845 25.4543H62.9824C62.9423 25.4543 62.9025 25.4463 62.8654 25.4308C62.8284 25.4153 62.7947 25.3926 62.7665 25.3639C62.7384 25.3353 62.7161 25.3013 62.7012 25.2641C62.6862 25.2268 62.6789 25.1869 62.6795 25.1467ZM63.2901 23.0726H63.7562C63.8749 23.0654 63.9863 23.0132 64.0678 22.9266C64.1492 22.8399 64.1945 22.7254 64.1943 22.6065C64.1943 22.4903 64.1481 22.3788 64.0659 22.2967C63.9838 22.2145 63.8723 22.1684 63.7562 22.1684H63.2901V23.0726ZM63.2901 24.8344H63.9845C64.0596 24.8344 64.1339 24.8195 64.2032 24.7907C64.2725 24.7618 64.3354 24.7195 64.3883 24.6662C64.4411 24.6129 64.4829 24.5497 64.5112 24.4801C64.5395 24.4106 64.5538 24.3362 64.5532 24.2611C64.5532 24.1099 64.4934 23.9647 64.3869 23.8574C64.2804 23.75 64.1358 23.689 63.9845 23.6878H63.2901V24.8344Z" fill="white"/>
<path d="M65.9704 25.1467V21.884C65.9698 21.8439 65.9772 21.804 65.9921 21.7667C66.0071 21.7294 66.0293 21.6954 66.0575 21.6668C66.0857 21.6382 66.1193 21.6154 66.1564 21.5999C66.1934 21.5844 66.2332 21.5764 66.2734 21.5764C66.355 21.5764 66.4332 21.6088 66.4909 21.6665C66.5486 21.7242 66.581 21.8025 66.581 21.884V24.8391H68.0865C68.1677 24.8415 68.2447 24.8755 68.3013 24.9338C68.3579 24.9921 68.3895 25.0701 68.3894 25.1513C68.3882 25.2313 68.3559 25.3077 68.2994 25.3642C68.2428 25.4208 68.1665 25.4531 68.0865 25.4543H66.2734C66.233 25.4549 66.1929 25.4474 66.1556 25.4321C66.1182 25.4168 66.0844 25.3941 66.056 25.3654C66.0277 25.3366 66.0055 25.3024 65.9908 25.2648C65.9761 25.2272 65.9692 25.187 65.9704 25.1467Z" fill="white"/>
<path d="M71.9224 22.0566C72.2804 22.4341 72.48 22.9346 72.48 23.4548C72.48 23.9751 72.2804 24.4756 71.9224 24.8531C71.7544 25.0375 71.5501 25.1853 71.3223 25.2872C71.0946 25.389 70.8482 25.4428 70.5987 25.445C70.3442 25.4442 70.0926 25.3912 69.8593 25.2894C69.626 25.1876 69.4161 25.0391 69.2424 24.8531C68.8906 24.4725 68.6952 23.9732 68.6952 23.4548C68.6952 22.9365 68.8906 22.4372 69.2424 22.0566C69.4149 21.869 69.6246 21.7194 69.8581 21.6175C70.0917 21.5156 70.3439 21.4635 70.5987 21.4646C70.8486 21.4646 71.0956 21.5173 71.3237 21.6193C71.5518 21.7213 71.7558 21.8703 71.9224 22.0566ZM71.8525 23.4548C71.8514 23.096 71.7168 22.7504 71.475 22.4854C71.3627 22.3621 71.226 22.2636 71.0735 22.1963C70.921 22.1289 70.7561 22.0941 70.5894 22.0941C70.4227 22.0941 70.2578 22.1289 70.1053 22.1963C69.9528 22.2636 69.8161 22.3621 69.7038 22.4854C69.458 22.7479 69.3228 23.0951 69.3263 23.4548C69.3239 23.8129 69.4591 24.1582 69.7038 24.4196C69.8145 24.5455 69.9507 24.6463 70.1034 24.7154C70.2561 24.7845 70.4218 24.8202 70.5894 24.8202C70.757 24.8202 70.9227 24.7845 71.0754 24.7154C71.2281 24.6463 71.3643 24.5455 71.475 24.4196C71.7197 24.1582 71.8548 23.8129 71.8525 23.4548Z" fill="white"/>
<path d="M73.4044 23.464C73.4069 23.1986 73.4616 22.9363 73.5656 22.692C73.6696 22.4478 73.8207 22.2265 74.0103 22.0407C74.2 21.855 74.4244 21.7085 74.6707 21.6096C74.9171 21.5107 75.1805 21.4614 75.4459 21.4645C75.9029 21.463 76.3473 21.6139 76.709 21.8933C76.7462 21.917 76.778 21.9482 76.8025 21.9849C76.8269 22.0216 76.8435 22.0629 76.851 22.1064C76.8585 22.1498 76.8569 22.1944 76.8463 22.2372C76.8356 22.2799 76.8162 22.32 76.7892 22.3549C76.7621 22.3897 76.7281 22.4185 76.6893 22.4395C76.6505 22.4604 76.6078 22.4731 76.5639 22.4766C76.5199 22.4801 76.4757 22.4743 76.4341 22.4598C76.3925 22.4452 76.3543 22.4221 76.3222 22.392C76.0705 22.1995 75.7627 22.0947 75.4459 22.0937C75.2611 22.092 75.0778 22.127 74.9066 22.1966C74.7354 22.2662 74.5797 22.3691 74.4485 22.4992C74.3177 22.6221 74.2134 22.7705 74.1422 22.9352C74.0709 23.1 74.0342 23.2776 74.0342 23.457C74.0342 23.6365 74.0709 23.8141 74.1422 23.9788C74.2134 24.1436 74.3177 24.2919 74.4485 24.4149C74.5797 24.545 74.7354 24.6479 74.9066 24.7175C75.0778 24.7871 75.2611 24.822 75.4459 24.8204C75.713 24.8172 75.9747 24.7449 76.2056 24.6106V23.8509H75.4133C75.3296 23.8497 75.2497 23.8159 75.1905 23.7567C75.1313 23.6975 75.0975 23.6176 75.0963 23.5339C75.0963 23.4927 75.1046 23.452 75.1206 23.414C75.1366 23.3761 75.1601 23.3417 75.1897 23.3131C75.2193 23.2844 75.2543 23.2619 75.2927 23.247C75.3311 23.2321 75.3721 23.2251 75.4133 23.2263H76.5179C76.5591 23.2251 76.6001 23.2321 76.6385 23.247C76.6769 23.2619 76.7119 23.2844 76.7415 23.3131C76.771 23.3417 76.7945 23.3761 76.8106 23.414C76.8266 23.452 76.8349 23.4927 76.8349 23.5339V24.7504C76.8374 24.7815 76.8374 24.8126 76.8349 24.8437V24.8716C76.8137 24.9265 76.7763 24.9737 76.7277 25.0068C76.3674 25.2855 75.9247 25.4364 75.4692 25.4356C75.204 25.4424 74.9401 25.3967 74.6926 25.3012C74.4451 25.2057 74.2189 25.0622 74.027 24.879C73.8351 24.6958 73.6813 24.4765 73.5745 24.2336C73.4677 23.9908 73.4099 23.7293 73.4044 23.464Z" fill="white"/>
<path d="M81.0438 23.9441H80.3586V25.1466C80.3586 25.2282 80.3262 25.3064 80.2686 25.3641C80.2109 25.4218 80.1326 25.4542 80.051 25.4542C79.9694 25.4542 79.8912 25.4218 79.8335 25.3641C79.7758 25.3064 79.7434 25.2282 79.7434 25.1466V21.8839C79.7434 21.8023 79.7758 21.7241 79.8335 21.6664C79.8912 21.6087 79.9694 21.5763 80.051 21.5763H81.0438C81.2058 21.5661 81.3682 21.5893 81.521 21.6443C81.6737 21.6993 81.8135 21.785 81.9319 21.8962C82.0502 22.0073 82.1445 22.1415 82.209 22.2905C82.2735 22.4395 82.3067 22.6002 82.3067 22.7625C82.3067 22.9249 82.2735 23.0855 82.209 23.2345C82.1445 23.3835 82.0502 23.5177 81.9319 23.6288C81.8135 23.74 81.6737 23.8257 81.521 23.8807C81.3682 23.9357 81.2058 23.9589 81.0438 23.9487V23.9441ZM80.3586 23.3521H81.0438C81.1231 23.3593 81.2031 23.3499 81.2785 23.3244C81.354 23.299 81.4233 23.2581 81.4821 23.2044C81.5409 23.1507 81.5879 23.0853 81.62 23.0124C81.6521 22.9396 81.6687 22.8608 81.6687 22.7811C81.6687 22.7015 81.6521 22.6227 81.62 22.5499C81.5879 22.477 81.5409 22.4116 81.4821 22.3579C81.4233 22.3042 81.354 22.2633 81.2785 22.2379C81.2031 22.2124 81.1231 22.203 81.0438 22.2102H80.3586V23.3521Z" fill="white"/>
<path d="M86.0308 22.0565C86.3888 22.4341 86.5884 22.9345 86.5884 23.4548C86.5884 23.9751 86.3888 24.4756 86.0308 24.8531C85.8628 25.0375 85.6585 25.1853 85.4307 25.2871C85.2029 25.389 84.9566 25.4428 84.7071 25.445C84.4526 25.4442 84.201 25.3912 83.9677 25.2894C83.7344 25.1876 83.5245 25.0391 83.3508 24.8531C82.999 24.4724 82.8036 23.9731 82.8036 23.4548C82.8036 22.9365 82.999 22.4372 83.3508 22.0565C83.5245 21.8705 83.7344 21.722 83.9677 21.6202C84.201 21.5184 84.4526 21.4655 84.7071 21.4646C84.957 21.4646 85.204 21.5173 85.4321 21.6193C85.6602 21.7213 85.8642 21.8703 86.0308 22.0565ZM85.9609 23.4548C85.9598 23.096 85.8252 22.7504 85.5834 22.4853C85.4711 22.3621 85.3344 22.2636 85.1819 22.1963C85.0294 22.1289 84.8645 22.0941 84.6978 22.0941C84.5311 22.0941 84.3662 22.1289 84.2137 22.1963C84.0612 22.2636 83.9245 22.3621 83.8122 22.4853C83.5664 22.7479 83.4311 23.0951 83.4347 23.4548C83.4323 23.8129 83.5675 24.1582 83.8122 24.4196C83.9229 24.5455 84.0591 24.6463 84.2118 24.7154C84.3645 24.7845 84.5302 24.8202 84.6978 24.8202C84.8654 24.8202 85.0311 24.7845 85.1838 24.7154C85.3365 24.6463 85.4727 24.5455 85.5834 24.4196C85.8281 24.1582 85.9632 23.8129 85.9609 23.4548Z" fill="white"/>
<path d="M87.5314 24.4893C87.5797 24.4302 87.6495 24.3925 87.7255 24.3847C87.8015 24.3768 87.8775 24.3994 87.9369 24.4474C88.234 24.7008 88.6052 24.8512 88.9949 24.8762C89.242 24.8808 89.4845 24.8092 89.6894 24.6711C89.7581 24.6281 89.8156 24.5693 89.8569 24.4995C89.8983 24.4298 89.9224 24.3512 89.9271 24.2703C89.9274 24.2075 89.9096 24.146 89.8758 24.0931C89.8342 24.0261 89.7786 23.9688 89.7127 23.9254C89.4762 23.7967 89.2191 23.7099 88.953 23.669C88.7068 23.6269 88.4672 23.5533 88.2399 23.4499C88.0308 23.358 87.8516 23.2095 87.7225 23.0211C87.6386 22.8802 87.5951 22.719 87.5967 22.555C87.6018 22.3953 87.6446 22.239 87.7216 22.0989C87.7985 21.9588 87.9074 21.8388 88.0394 21.7487C88.3205 21.552 88.6566 21.4493 88.9996 21.4551C89.4403 21.4827 89.8618 21.6454 90.2068 21.9212C90.2688 21.9629 90.3119 22.0274 90.3267 22.1007C90.3416 22.1739 90.3269 22.2501 90.286 22.3127C90.2661 22.3449 90.2399 22.3728 90.209 22.3946C90.178 22.4164 90.1429 22.4317 90.1059 22.4395C90.0688 22.4474 90.0306 22.4476 89.9935 22.4402C89.9563 22.4328 89.9211 22.418 89.8898 22.3966C89.6369 22.1892 89.3258 22.0654 88.9996 22.0423C88.7784 22.0372 88.5614 22.1025 88.3797 22.2288C88.3205 22.2674 88.2709 22.3189 88.2346 22.3794C88.1982 22.44 88.1761 22.508 88.1699 22.5784C88.1662 22.6322 88.1792 22.686 88.2072 22.7322C88.2462 22.7903 88.297 22.8396 88.3564 22.8766C88.5691 23.0044 88.8052 23.0884 89.0509 23.1237C89.3149 23.1669 89.572 23.2453 89.8152 23.3567C90.0414 23.4551 90.2341 23.617 90.3699 23.8228C90.4554 23.9632 90.5005 24.1245 90.5004 24.2889C90.4973 24.4588 90.4533 24.6254 90.3722 24.7747C90.291 24.9239 90.1751 25.0515 90.0343 25.1465C89.7351 25.3588 89.3758 25.4699 89.0089 25.4635C88.495 25.4352 88.0042 25.2405 87.6106 24.9088C87.577 24.8872 87.5481 24.859 87.5258 24.8259C87.5034 24.7928 87.4881 24.7554 87.4806 24.7161C87.4732 24.6769 87.4739 24.6365 87.4826 24.5975C87.4913 24.5585 87.5079 24.5217 87.5314 24.4893Z" fill="white"/>
<path d="M93.6377 22.1868H92.7567V25.1465C92.7567 25.2269 92.7248 25.3039 92.668 25.3607C92.6112 25.4175 92.5341 25.4495 92.4538 25.4495C92.3734 25.4495 92.2964 25.4175 92.2396 25.3607C92.1827 25.3039 92.1508 25.2269 92.1508 25.1465V22.1868H91.2746C91.1934 22.1856 91.1158 22.1528 91.0584 22.0954C91.001 22.038 90.9682 21.9604 90.967 21.8792C90.9663 21.8386 90.9739 21.7983 90.9891 21.7607C91.0043 21.7231 91.027 21.689 91.0557 21.6603C91.0843 21.6316 91.1185 21.6089 91.1561 21.5937C91.1937 21.5785 91.234 21.5709 91.2746 21.5716H93.6377C93.7193 21.5716 93.7975 21.604 93.8552 21.6617C93.9129 21.7194 93.9453 21.7976 93.9453 21.8792C93.9441 21.9604 93.9113 22.038 93.8539 22.0954C93.7964 22.1528 93.7189 22.1856 93.6377 22.1868Z" fill="white"/>
<path d="M99.4685 26.6101H56.9097V27.1741H99.4685V26.6101Z" fill="white"/>
<path d="M43.6125 56.9014H16.2668V84.247H43.6125V56.9014Z" fill="#EBEBEB"/>
<path d="M16.2662 76.0439H43.6071V56.8969H16.2662L16.2662 76.0439Z" fill="#FFC727"/>
<path d="M19.4641 62.3407C19.4641 62.7887 19.5969 63.2266 19.8458 63.5991C20.0947 63.9716 20.4485 64.262 20.8624 64.4334C21.2763 64.6049 21.7318 64.6497 22.1712 64.5623C22.6106 64.4749 23.0142 64.2592 23.331 63.9424C23.6478 63.6256 23.8635 63.222 23.9509 62.7826C24.0383 62.3432 23.9935 61.8877 23.822 61.4738C23.6506 61.0599 23.3603 60.7061 22.9877 60.4572C22.6152 60.2083 22.1773 60.0754 21.7293 60.0754C21.4316 60.0748 21.1368 60.133 20.8617 60.2466C20.5866 60.3602 20.3366 60.5271 20.1261 60.7375C19.9157 60.948 19.7488 61.198 19.6352 61.4731C19.5216 61.7482 19.4634 62.043 19.4641 62.3407Z" fill="#DBDBDB"/>
<path d="M28.4085 71.8817H43.6124L36.0105 61.5764L28.4085 71.8817Z" fill="#C7C7C7"/>
<path d="M22.447 71.9283H34.9988L28.7252 65.2212L22.447 71.9283Z" fill="#DBDBDB"/>
<path d="M43.6078 71.9189H16.2668V76.0439H43.6078V71.9189Z" fill="#DBDBDB"/>
<path d="M41.6731 77.9456H18.21V78.7006H41.6731V77.9456Z" fill="white"/>
<path d="M34.4673 79.8472H18.21V80.6022H34.4673V79.8472Z" fill="white"/>
<path d="M37.9816 81.7488H18.21V82.5038H37.9816V81.7488Z" fill="white"/>
<path d="M75.3014 56.9014H47.9558V84.247H75.3014V56.9014Z" fill="#EBEBEB"/>
<path d="M47.9557 76.0439H75.2966V56.8969H47.9557V76.0439Z" fill="#B0E7FF"/>
<path d="M61.6264 71.9283C64.4991 71.9283 66.828 69.5995 66.828 66.7267C66.828 63.854 64.4991 61.5251 61.6264 61.5251C58.7536 61.5251 56.4248 63.854 56.4248 66.7267C56.4248 69.5995 58.7536 71.9283 61.6264 71.9283Z" fill="#EBEBEB"/>
<path d="M59.1377 63.9021V69.5511L65.1177 66.7266L59.1377 63.9021Z" fill="white"/>
<path d="M73.3626 77.9456H49.8995V78.7006H73.3626V77.9456Z" fill="white"/>
<path d="M66.1568 79.8472H49.8995V80.6022H66.1568V79.8472Z" fill="white"/>
<path d="M69.6712 81.7488H49.8995V82.5038H69.6712V81.7488Z" fill="white"/>
<path d="M140.14 17.6704H112.085V22.2288H140.14V17.6704Z" fill="white"/>
<path d="M140.139 17.6704H135.581V22.2288H140.139V17.6704Z" fill="#263238"/>
<path d="M138.01 19.5123L137.59 19.8303L138.882 21.5355L139.302 21.2174L138.01 19.5123Z" fill="white"/>
<path d="M138.476 18.8032C138.613 18.9835 138.693 19.2003 138.707 19.4263C138.721 19.6523 138.668 19.8774 138.554 20.0732C138.44 20.269 138.271 20.4267 138.068 20.5264C137.865 20.6261 137.636 20.6634 137.412 20.6336C137.187 20.6037 136.977 20.5081 136.807 20.3587C136.636 20.2093 136.514 20.0129 136.456 19.7942C136.397 19.5755 136.404 19.3443 136.477 19.1298C136.549 18.9152 136.684 18.727 136.863 18.5888C137.105 18.4036 137.411 18.3221 137.714 18.3623C138.016 18.4025 138.29 18.5611 138.476 18.8032Z" fill="white"/>
<path d="M138.112 19.0827C138.196 19.1908 138.245 19.3212 138.255 19.4575C138.264 19.5937 138.233 19.7297 138.165 19.8482C138.097 19.9666 137.995 20.0622 137.873 20.1229C137.75 20.1835 137.613 20.2064 137.477 20.1888C137.342 20.1711 137.215 20.1136 137.112 20.0236C137.009 19.9336 136.935 19.8152 136.9 19.6832C136.865 19.5513 136.869 19.4118 136.913 19.2825C136.957 19.1532 137.039 19.0399 137.147 18.9569C137.292 18.8461 137.475 18.7972 137.656 18.8207C137.836 18.8443 138.001 18.9385 138.112 19.0827Z" fill="#263238"/>
</svg>
