<svg width="157" height="143" viewBox="0 0 157 143" fill="none" xmlns="http://www.w3.org/2000/svg">
<path d="M156.38 0H0V116.377H156.38V0Z" fill="#37474F"/>
<path d="M148.484 7.56934H7.89984V91.1386H148.484V7.56934Z" fill="white"/>
<path d="M156.38 99.2112H0V116.377H156.38V99.2112Z" fill="#C7C7C7"/>
<path d="M111.543 137.356H44.8421V142.93H111.543V137.356Z" fill="#37474F"/>
<path d="M103.596 137.36H52.7836L54.0746 127.684L54.1352 127.228L54.2564 126.323L54.317 125.867L54.4382 124.958L54.4568 124.818L54.4987 124.501L54.6246 123.592L54.6805 123.14L55.5847 116.382H100.795L101.643 122.753L101.69 123.061L101.829 124.119L101.867 124.426L101.923 124.818L102.011 125.484L102.048 125.787L102.188 126.85L102.235 127.153L103.596 137.36Z" fill="#C7C7C7"/>
<path d="M148.484 7.56934H7.89984V12.0904H148.484V7.56934Z" fill="#263238"/>
<path d="M11.5026 9.8391C11.5026 10.0615 11.4366 10.2788 11.313 10.4636C11.1894 10.6485 11.0137 10.7924 10.8081 10.8773C10.6026 10.9622 10.3765 10.9842 10.1585 10.9404C9.94049 10.8967 9.74035 10.7893 9.58345 10.6317C9.42654 10.4741 9.31994 10.2736 9.27712 10.0554C9.23431 9.83717 9.25722 9.61117 9.34295 9.40601C9.42868 9.20084 9.57338 9.02573 9.75871 8.90287C9.94404 8.78 10.1617 8.71491 10.384 8.71583C10.5313 8.71583 10.6772 8.74492 10.8132 8.80143C10.9492 8.85793 11.0727 8.94075 11.1766 9.04511C11.2806 9.14948 11.3629 9.27334 11.4188 9.4096C11.4748 9.54585 11.5032 9.69181 11.5026 9.8391Z" fill="#C7C7C7"/>
<path d="M16.0655 9.8391C16.0655 10.0615 15.9995 10.2788 15.8759 10.4636C15.7522 10.6485 15.5765 10.7924 15.371 10.8773C15.1655 10.9622 14.9394 10.9842 14.7214 10.9404C14.5034 10.8967 14.3032 10.7893 14.1463 10.6317C13.9894 10.4741 13.8828 10.2736 13.84 10.0554C13.7972 9.83717 13.8201 9.61117 13.9058 9.40601C13.9916 9.20084 14.1362 9.02573 14.3216 8.90287C14.5069 8.78 14.7245 8.71491 14.9469 8.71583C15.0942 8.71583 15.24 8.74492 15.376 8.80143C15.5121 8.85793 15.6356 8.94075 15.7395 9.04511C15.8434 9.14948 15.9257 9.27334 15.9817 9.4096C16.0376 9.54585 16.0661 9.69181 16.0655 9.8391Z" fill="white"/>
<path d="M20.6475 9.83909C20.6475 10.0613 20.5816 10.2784 20.4582 10.4631C20.3347 10.6479 20.1593 10.7918 19.9541 10.8769C19.7488 10.9619 19.523 10.9841 19.3051 10.9408C19.0872 10.8974 18.887 10.7905 18.7299 10.6334C18.5728 10.4763 18.4659 10.2761 18.4225 10.0582C18.3792 9.84034 18.4014 9.61449 18.4864 9.40924C18.5715 9.20398 18.7154 9.02855 18.9002 8.90513C19.0849 8.7817 19.302 8.71582 19.5242 8.71582C19.8221 8.71582 20.1078 8.83417 20.3185 9.04482C20.5291 9.25547 20.6475 9.54118 20.6475 9.83909Z" fill="#FFC727"/>
<path d="M80.9725 106.641C80.9716 107.201 80.8042 107.749 80.4917 108.215C80.1791 108.681 79.7354 109.043 79.2167 109.257C78.698 109.47 78.1276 109.525 77.5779 109.414C77.0281 109.303 76.5236 109.031 76.1283 108.633C75.7331 108.235 75.4647 107.729 75.3574 107.178C75.25 106.628 75.3084 106.058 75.5251 105.541C75.7419 105.023 76.1073 104.582 76.575 104.272C77.0428 103.963 77.5918 103.799 78.1527 103.802C78.9026 103.806 79.6205 104.107 80.1491 104.639C80.6776 105.171 80.9737 105.891 80.9725 106.641Z" fill="#37474F"/>
<path d="M101.923 124.818H54.4573L54.4992 124.501L54.6251 123.592L54.681 123.14L55.5852 116.382H100.795L101.643 122.753L101.69 123.061L101.83 124.119L101.867 124.426L101.923 124.818Z" fill="#A6A6A6"/>
<path d="M148.484 12.0857H7.89984V30.8177H148.484V12.0857Z" fill="#E7E7E7"/>
<path d="M140.346 83.7836H83.5403V43.8633H140.346V83.7836ZM84.0064 83.3175H139.88V44.3294H84.0064V83.3175Z" fill="#EBEBEB"/>
<path d="M83.425 43.5104L83.1593 43.8926L139.559 83.0974L139.824 82.7152L83.425 43.5104Z" fill="#EBEBEB"/>
<path d="M83.9088 83.7416L83.6384 83.3594C84.1791 82.9819 137.76 45.5785 139.974 43.9099L140.253 44.2828C138.035 45.956 84.4494 83.3641 83.9088 83.7416Z" fill="#EBEBEB"/>
<path d="M104.864 12.0857H51.5161V28.4453H104.864V12.0857Z" fill="#263238"/>
<path d="M73.4638 35.9678H36.4521V36.7228H73.4638V35.9678Z" fill="#EBEBEB"/>
<path d="M65.0556 37.8696H36.4521V38.6247H65.0556V37.8696Z" fill="#EBEBEB"/>
<path d="M71.2452 39.7712H36.4521V40.5263H71.2452V39.7712Z" fill="#EBEBEB"/>
<path d="M74.2887 41.6729H36.4521V42.4279H74.2887V41.6729Z" fill="#EBEBEB"/>
<path d="M56.0696 43.5745H36.4521V44.3295H56.0696V43.5745Z" fill="#EBEBEB"/>
<path d="M73.5803 45.4807H36.4521V46.2358H73.5803V45.4807Z" fill="#EBEBEB"/>
<path d="M67.3581 47.3823H36.4521V48.1374H67.3581V47.3823Z" fill="#EBEBEB"/>
<path d="M75.3001 49.2839H36.4521V50.039H75.3001V49.2839Z" fill="#EBEBEB"/>
<path d="M73.5803 51.1855H36.4521V51.9406H73.5803V51.1855Z" fill="#EBEBEB"/>
<path d="M75.3001 53.0872H36.4521V53.8422H75.3001V53.0872Z" fill="#EBEBEB"/>
<path d="M21.724 17.208H16.2662V17.9631H21.724V17.208Z" fill="white"/>
<path d="M21.724 19.1096H16.2662V19.8647H21.724V19.1096Z" fill="white"/>
<path d="M21.724 21.0112H16.2662V21.7663H21.724V21.0112Z" fill="white"/>
<path d="M140.113 35.9678H83.7733V40.1486H140.113V35.9678Z" fill="#E7E7E7"/>
<path d="M34.1404 35.9631H16.2662V53.8422H34.1404V35.9631Z" fill="#A6A6A6"/>
<path d="M25.2053 44.9028C26.9891 44.9028 28.4352 43.4567 28.4352 41.6729C28.4352 39.889 26.9891 38.4429 25.2053 38.4429C23.4214 38.4429 21.9753 39.889 21.9753 41.6729C21.9753 43.4567 23.4214 44.9028 25.2053 44.9028Z" fill="white"/>
<path d="M30.7892 50.5891V53.8517H19.6032V50.5891C19.6032 49.1058 20.1925 47.6832 21.2414 46.6343C22.2903 45.5854 23.7129 44.9961 25.1962 44.9961C26.6796 44.9961 28.1022 45.5854 29.151 46.6343C30.1999 47.6832 30.7892 49.1058 30.7892 50.5891Z" fill="white"/>
<path d="M62.6784 24.684V21.4214C62.6778 21.3812 62.6852 21.3413 62.7001 21.304C62.7151 21.2667 62.7373 21.2328 62.7655 21.2041C62.7937 21.1755 62.8273 21.1528 62.8644 21.1373C62.9014 21.1218 62.9412 21.1138 62.9814 21.1138H63.7691C64.0484 21.1138 64.3164 21.2247 64.5139 21.4223C64.7114 21.6198 64.8224 21.8878 64.8224 22.1671C64.8228 22.3963 64.7474 22.6191 64.608 22.801C64.8271 22.9366 64.996 23.1399 65.0891 23.3802C65.1822 23.6205 65.1943 23.8846 65.1236 24.1323C65.053 24.3801 64.9034 24.5981 64.6977 24.7532C64.4919 24.9083 64.2411 24.992 63.9835 24.9916H62.9814C62.9412 24.9916 62.9014 24.9836 62.8644 24.9681C62.8273 24.9526 62.7937 24.9299 62.7655 24.9012C62.7373 24.8726 62.7151 24.8387 62.7001 24.8014C62.6852 24.7641 62.6778 24.7242 62.6784 24.684ZM63.289 22.6099H63.7551C63.8738 22.6028 63.9853 22.5505 64.0667 22.4639C64.1482 22.3772 64.1934 22.2627 64.1932 22.1438C64.1932 22.0276 64.147 21.9162 64.0649 21.834C63.9827 21.7519 63.8713 21.7057 63.7551 21.7057H63.289V22.6099ZM63.289 24.3717H63.9835C64.0585 24.3717 64.1329 24.3569 64.2022 24.328C64.2715 24.2991 64.3343 24.2568 64.3872 24.2035C64.4401 24.1502 64.4819 24.087 64.5102 24.0175C64.5385 23.9479 64.5527 23.8735 64.5521 23.7984C64.5521 23.6472 64.4923 23.5021 64.3858 23.3947C64.2793 23.2873 64.1347 23.2264 63.9835 23.2251H63.289V24.3717Z" fill="white"/>
<path d="M65.969 24.684V21.4214C65.9683 21.3812 65.9757 21.3413 65.9907 21.304C66.0056 21.2667 66.0278 21.2328 66.056 21.2041C66.0842 21.1755 66.1178 21.1528 66.1549 21.1373C66.192 21.1218 66.2317 21.1138 66.2719 21.1138C66.3535 21.1138 66.4317 21.1462 66.4894 21.2039C66.5471 21.2616 66.5795 21.3398 66.5795 21.4214V24.3764H68.085C68.1662 24.3788 68.2432 24.4128 68.2998 24.4711C68.3563 24.5294 68.388 24.6074 68.3879 24.6887C68.3867 24.7686 68.3544 24.845 68.2979 24.9015C68.2413 24.9581 68.1649 24.9904 68.085 24.9916H66.2719C66.2315 24.9923 66.1915 24.9847 66.1541 24.9694C66.1168 24.9541 66.0829 24.9314 66.0546 24.9027C66.0263 24.8739 66.0041 24.8397 65.9893 24.8021C65.9746 24.7645 65.9677 24.7243 65.969 24.684Z" fill="white"/>
<path d="M71.9211 21.5939C72.2791 21.9714 72.4787 22.4719 72.4787 22.9922C72.4787 23.5124 72.2791 24.0129 71.9211 24.3904C71.7531 24.5749 71.5488 24.7226 71.321 24.8245C71.0933 24.9263 70.8469 24.9801 70.5975 24.9824C70.343 24.9815 70.0913 24.9285 69.8581 24.8267C69.6248 24.7249 69.4149 24.5764 69.2412 24.3904C68.8894 24.0098 68.694 23.5105 68.694 22.9922C68.694 22.4738 68.8894 21.9746 69.2412 21.5939C69.4136 21.4063 69.6233 21.2568 69.8569 21.1549C70.0904 21.0529 70.3426 21.0009 70.5975 21.002C70.8473 21.002 71.0944 21.0547 71.3225 21.1567C71.5506 21.2587 71.7546 21.4077 71.9211 21.5939ZM71.8512 22.9922C71.8501 22.6333 71.7155 22.2878 71.4737 22.0227C71.3614 21.8995 71.2247 21.801 71.0722 21.7336C70.9197 21.6663 70.7548 21.6315 70.5881 21.6315C70.4214 21.6315 70.2566 21.6663 70.1041 21.7336C69.9516 21.801 69.8148 21.8995 69.7026 22.0227C69.4567 22.2853 69.3215 22.6325 69.3251 22.9922C69.3227 23.3502 69.4578 23.6956 69.7026 23.957C69.8132 24.0828 69.9495 24.1836 70.1022 24.2527C70.2549 24.3218 70.4205 24.3575 70.5881 24.3575C70.7557 24.3575 70.9214 24.3218 71.0741 24.2527C71.2268 24.1836 71.363 24.0828 71.4737 23.957C71.7184 23.6956 71.8536 23.3502 71.8512 22.9922Z" fill="white"/>
<path d="M73.4032 23.0014C73.4056 22.7359 73.4604 22.4736 73.5644 22.2294C73.6683 21.9851 73.8195 21.7638 74.0091 21.5781C74.1987 21.3923 74.4231 21.2458 74.6695 21.147C74.9158 21.0481 75.1792 20.9988 75.4446 21.0018C75.9016 21.0004 76.3461 21.1513 76.7077 21.4306C76.7449 21.4543 76.7767 21.4855 76.8012 21.5222C76.8256 21.5589 76.8422 21.6003 76.8497 21.6437C76.8573 21.6872 76.8556 21.7317 76.845 21.7745C76.8344 21.8173 76.8149 21.8574 76.7879 21.8922C76.7608 21.9271 76.7269 21.9559 76.6881 21.9768C76.6493 21.9978 76.6065 22.0104 76.5626 22.0139C76.5186 22.0174 76.4744 22.0117 76.4328 21.9971C76.3912 21.9826 76.3531 21.9595 76.3209 21.9294C76.0693 21.7368 75.7615 21.6321 75.4446 21.6311C75.2598 21.6294 75.0765 21.6644 74.9053 21.734C74.7341 21.8036 74.5784 21.9064 74.4472 22.0366C74.3164 22.1595 74.2122 22.3079 74.141 22.4726C74.0697 22.6373 74.033 22.8149 74.033 22.9944C74.033 23.1738 74.0697 23.3514 74.141 23.5161C74.2122 23.6809 74.3164 23.8293 74.4472 23.9522C74.5784 24.0823 74.7341 24.1852 74.9053 24.2548C75.0765 24.3244 75.2598 24.3593 75.4446 24.3577C75.7117 24.3545 75.9735 24.2822 76.2044 24.1479V23.3882H75.412C75.3283 23.387 75.2484 23.3532 75.1892 23.294C75.1301 23.2349 75.0963 23.155 75.0951 23.0713C75.0951 23.0301 75.1033 22.9893 75.1194 22.9514C75.1354 22.9134 75.1589 22.8791 75.1884 22.8504C75.218 22.8217 75.253 22.7992 75.2914 22.7843C75.3298 22.7694 75.3708 22.7624 75.412 22.7636H76.5166C76.5578 22.7624 76.5988 22.7694 76.6372 22.7843C76.6756 22.7992 76.7106 22.8217 76.7402 22.8504C76.7698 22.8791 76.7933 22.9134 76.8093 22.9514C76.8253 22.9893 76.8336 23.0301 76.8336 23.0713V24.2878C76.8362 24.3188 76.8362 24.35 76.8336 24.381V24.4089C76.8124 24.4639 76.775 24.511 76.7264 24.5441C76.3661 24.8228 75.9234 24.9737 75.4679 24.9729C75.2027 24.9797 74.9388 24.934 74.6913 24.8385C74.4438 24.743 74.2176 24.5995 74.0258 24.4163C73.8339 24.2331 73.6801 24.0138 73.5733 23.771C73.4664 23.5281 73.4086 23.2666 73.4032 23.0014Z" fill="white"/>
<path d="M81.0426 23.4814H80.3575V24.6839C80.3575 24.7655 80.3251 24.8437 80.2674 24.9014C80.2097 24.9591 80.1314 24.9915 80.0499 24.9915C79.9683 24.9915 79.89 24.9591 79.8323 24.9014C79.7747 24.8437 79.7422 24.7655 79.7422 24.6839V21.4213C79.7422 21.3397 79.7747 21.2614 79.8323 21.2038C79.89 21.1461 79.9683 21.1137 80.0499 21.1137H81.0426C81.2046 21.1035 81.367 21.1266 81.5198 21.1816C81.6725 21.2367 81.8123 21.3224 81.9307 21.4335C82.049 21.5447 82.1433 21.6789 82.2078 21.8279C82.2723 21.9769 82.3055 22.1375 82.3055 22.2998C82.3055 22.4622 82.2723 22.6228 82.2078 22.7718C82.1433 22.9208 82.049 23.055 81.9307 23.1662C81.8123 23.2773 81.6725 23.363 81.5198 23.418C81.367 23.4731 81.2046 23.4962 81.0426 23.486V23.4814ZM80.3575 22.8894H81.0426C81.1219 22.8966 81.2019 22.8872 81.2773 22.8618C81.3528 22.8363 81.4221 22.7954 81.4809 22.7417C81.5397 22.688 81.5867 22.6226 81.6188 22.5498C81.6509 22.4769 81.6675 22.3981 81.6675 22.3185C81.6675 22.2388 81.6509 22.1601 81.6188 22.0872C81.5867 22.0143 81.5397 21.949 81.4809 21.8953C81.4221 21.8415 81.3528 21.8007 81.2773 21.7752C81.2019 21.7498 81.1219 21.7404 81.0426 21.7475H80.3575V22.8894Z" fill="white"/>
<path d="M86.029 21.5939C86.387 21.9714 86.5866 22.4719 86.5866 22.9921C86.5866 23.5124 86.387 24.0129 86.029 24.3904C85.861 24.5748 85.6567 24.7226 85.429 24.8245C85.2012 24.9263 84.9549 24.9801 84.7054 24.9823C84.4509 24.9815 84.1992 24.9285 83.966 24.8267C83.7327 24.7249 83.5228 24.5764 83.3491 24.3904C82.9973 24.0097 82.8019 23.5105 82.8019 22.9921C82.8019 22.4738 82.9973 21.9745 83.3491 21.5939C83.5228 21.4079 83.7327 21.2594 83.966 21.1576C84.1992 21.0558 84.4509 21.0028 84.7054 21.002C84.9552 21.0019 85.2023 21.0547 85.4304 21.1567C85.6585 21.2587 85.8625 21.4076 86.029 21.5939ZM85.9591 22.9921C85.958 22.6333 85.8235 22.2877 85.5816 22.0227C85.4693 21.8994 85.3326 21.801 85.1801 21.7336C85.0276 21.6662 84.8628 21.6314 84.6961 21.6314C84.5293 21.6314 84.3645 21.6662 84.212 21.7336C84.0595 21.801 83.9228 21.8994 83.8105 22.0227C83.5646 22.2852 83.4294 22.6325 83.433 22.9921C83.4306 23.3502 83.5658 23.6955 83.8105 23.9569C83.9212 24.0828 84.0574 24.1836 84.2101 24.2527C84.3628 24.3218 84.5285 24.3575 84.6961 24.3575C84.8636 24.3575 85.0293 24.3218 85.182 24.2527C85.3347 24.1836 85.4709 24.0828 85.5816 23.9569C85.8263 23.6955 85.9615 23.3502 85.9591 22.9921Z" fill="white"/>
<path d="M87.5302 24.0266C87.5785 23.9675 87.6483 23.9298 87.7243 23.922C87.8003 23.9141 87.8763 23.9367 87.9357 23.9847C88.2328 24.2381 88.604 24.3886 88.9937 24.4135C89.2407 24.4181 89.4832 24.3465 89.6881 24.2084C89.7569 24.1654 89.8143 24.1066 89.8557 24.0369C89.897 23.9671 89.9211 23.8885 89.9258 23.8076C89.9261 23.7448 89.9083 23.6834 89.8746 23.6305C89.833 23.5634 89.7773 23.5061 89.7114 23.4627C89.4749 23.334 89.2179 23.2472 88.9517 23.2063C88.7056 23.1643 88.4659 23.0907 88.2386 22.9873C88.0296 22.8953 87.8504 22.7468 87.7213 22.5585C87.6374 22.4176 87.5939 22.2563 87.5954 22.0924C87.6006 21.9326 87.6434 21.7763 87.7203 21.6362C87.7973 21.4961 87.9062 21.3762 88.0382 21.2861C88.3193 21.0894 88.6553 20.9866 88.9983 20.9924C89.4391 21.02 89.8606 21.1828 90.2055 21.4585C90.2675 21.5002 90.3106 21.5647 90.3254 21.638C90.3403 21.7113 90.3256 21.7875 90.2847 21.85C90.2649 21.8823 90.2387 21.9101 90.2077 21.9319C90.1767 21.9537 90.1417 21.969 90.1046 21.9769C90.0676 21.9847 90.0293 21.9849 89.9922 21.9776C89.955 21.9702 89.9198 21.9553 89.8886 21.9339C89.6356 21.7265 89.3246 21.6028 88.9983 21.5797C88.7772 21.5746 88.5601 21.6399 88.3784 21.7661C88.3193 21.8047 88.2697 21.8562 88.2333 21.9168C88.197 21.9773 88.1749 22.0453 88.1687 22.1157C88.1649 22.1696 88.178 22.2233 88.206 22.2695C88.2449 22.3277 88.2958 22.3769 88.3552 22.414C88.5679 22.5417 88.804 22.6257 89.0496 22.661C89.3136 22.7043 89.5707 22.7827 89.814 22.8941C90.0401 22.9924 90.2328 23.1543 90.3686 23.3601C90.4541 23.5006 90.4993 23.6618 90.4991 23.8262C90.496 23.9961 90.452 24.1627 90.3709 24.312C90.2898 24.4613 90.1739 24.5888 90.033 24.6838C89.7338 24.8961 89.3745 25.0072 89.0077 25.0008C88.4938 24.9725 88.003 24.7778 87.6094 24.4461C87.5758 24.4245 87.5469 24.3963 87.5245 24.3632C87.5022 24.3301 87.4868 24.2927 87.4794 24.2535C87.472 24.2142 87.4727 24.1738 87.4814 24.1348C87.4901 24.0958 87.5067 24.059 87.5302 24.0266Z" fill="white"/>
<path d="M93.6355 21.7244H92.7546V24.6841C92.7546 24.7644 92.7227 24.8415 92.6659 24.8983C92.6091 24.9551 92.532 24.987 92.4517 24.987C92.3713 24.987 92.2943 24.9551 92.2375 24.8983C92.1806 24.8415 92.1487 24.7644 92.1487 24.6841V21.7244H91.2725C91.1913 21.7232 91.1137 21.6904 91.0563 21.633C90.9989 21.5755 90.9661 21.498 90.9649 21.4168C90.9643 21.3762 90.9718 21.3359 90.987 21.2983C91.0022 21.2607 91.0249 21.2266 91.0536 21.1979C91.0823 21.1692 91.1164 21.1465 91.154 21.1313C91.1916 21.1161 91.2319 21.1085 91.2725 21.1092H93.6355C93.7171 21.1092 93.7954 21.1416 93.853 21.1993C93.9107 21.257 93.9432 21.3352 93.9432 21.4168C93.942 21.498 93.9092 21.5755 93.8517 21.633C93.7943 21.6904 93.7167 21.7232 93.6355 21.7244Z" fill="white"/>
<path d="M99.4669 26.1475H56.9089V26.7114H99.4669V26.1475Z" fill="white"/>
<path d="M43.6112 56.4385H16.2662V83.7838H43.6112V56.4385Z" fill="#EBEBEB"/>
<path d="M16.2665 75.5806H43.6069V56.4337H16.2665L16.2665 75.5806Z" fill="#EBEBEB"/>
<path d="M19.4634 61.8775C19.4634 62.3255 19.5962 62.7634 19.8451 63.136C20.094 63.5085 20.4478 63.7988 20.8617 63.9702C21.2756 64.1417 21.7311 64.1865 22.1705 64.0991C22.6099 64.0117 23.0135 63.796 23.3303 63.4792C23.647 63.1624 23.8628 62.7588 23.9502 62.3194C24.0376 61.88 23.9927 61.4246 23.8213 61.0106C23.6498 60.5967 23.3595 60.243 22.987 59.9941C22.6145 59.7452 22.1766 59.6123 21.7285 59.6123C21.4309 59.6117 21.1361 59.6699 20.861 59.7835C20.5859 59.8971 20.3359 60.0639 20.1255 60.2744C19.915 60.4849 19.7482 60.7348 19.6346 61.0099C19.5209 61.285 19.4628 61.5798 19.4634 61.8775Z" fill="#DBDBDB"/>
<path d="M28.4076 71.4184H43.6112L36.0094 61.1133L28.4076 71.4184Z" fill="#C7C7C7"/>
<path d="M22.4463 71.465H34.9979L28.7244 64.7581L22.4463 71.465Z" fill="#DBDBDB"/>
<path d="M43.6066 71.4556H16.2662V75.5804H43.6066V71.4556Z" fill="#DBDBDB"/>
<path d="M41.6722 77.4822H18.2097V78.2372H41.6722V77.4822Z" fill="white"/>
<path d="M34.4666 79.3838H18.2097V80.1388H34.4666V79.3838Z" fill="white"/>
<path d="M37.9809 81.2854H18.2097V82.0405H37.9809V81.2854Z" fill="white"/>
<path d="M75.3 56.4385H47.9549V83.7838H75.3V56.4385Z" fill="#EBEBEB"/>
<path d="M47.9547 75.5806H75.2951V56.4337H47.9547V75.5806Z" fill="#DBDBDB"/>
<path d="M61.6252 71.4651C64.4979 71.4651 66.8267 69.1363 66.8267 66.2635C66.8267 63.3908 64.4979 61.062 61.6252 61.062C58.7525 61.062 56.4238 63.3908 56.4238 66.2635C56.4238 69.1363 58.7525 71.4651 61.6252 71.4651Z" fill="#EBEBEB"/>
<path d="M59.1364 63.439V69.0879L65.1162 66.2634L59.1364 63.439Z" fill="white"/>
<path d="M73.3615 77.4822H49.8989V78.2372H73.3615V77.4822Z" fill="white"/>
<path d="M66.1558 79.3838H49.8989V80.1388H66.1558V79.3838Z" fill="white"/>
<path d="M69.6701 81.2854H49.8989V82.0405H69.6701V81.2854Z" fill="white"/>
<path d="M140.137 17.208H112.083V21.7663H140.137V17.208Z" fill="white"/>
<path d="M140.137 17.208H135.578V21.7663H140.137V17.208Z" fill="#263238"/>
<path d="M138.007 19.0496L137.587 19.3677L138.879 21.0728L139.299 20.7548L138.007 19.0496Z" fill="white"/>
<path d="M138.473 18.3405C138.61 18.5208 138.691 18.7376 138.705 18.9636C138.719 19.1897 138.665 19.4148 138.552 19.6105C138.438 19.8063 138.269 19.964 138.065 20.0637C137.862 20.1635 137.634 20.2008 137.409 20.1709C137.185 20.1411 136.974 20.0454 136.804 19.896C136.634 19.7467 136.512 19.5502 136.453 19.3315C136.394 19.1128 136.402 18.8816 136.474 18.6671C136.547 18.4526 136.681 18.2643 136.861 18.1261C137.103 17.9409 137.409 17.8595 137.711 17.8997C138.014 17.9399 138.288 18.0984 138.473 18.3405Z" fill="white"/>
<path d="M138.109 18.6201C138.193 18.7281 138.242 18.8585 138.252 18.9948C138.261 19.1311 138.23 19.267 138.162 19.3855C138.094 19.504 137.992 19.5996 137.87 19.6602C137.747 19.7208 137.61 19.7438 137.474 19.7261C137.339 19.7085 137.212 19.651 137.109 19.561C137.006 19.471 136.933 19.3525 136.897 19.2206C136.862 19.0886 136.867 18.9492 136.911 18.8199C136.955 18.6906 137.036 18.5772 137.144 18.4942C137.289 18.3835 137.472 18.3345 137.653 18.3581C137.834 18.3817 137.998 18.4759 138.109 18.6201Z" fill="#263238"/>
</svg>
