<svg width="375" height="137" viewBox="0 0 375 137" fill="none" xmlns="http://www.w3.org/2000/svg">
<g clip-path="url(#clip0_73_9259)">
<mask id="path-1-inside-1_73_9259" fill="white">
<path d="M-2 0H375V137H-2V0Z"/>
</mask>
<path d="M-2 0H375V137H-2V0Z" fill="white"/>
<g filter="url(#filter0_d_73_9259)">
<rect x="9.3335" y="-58" width="57.7072" height="55.7836" rx="8" transform="rotate(11.9415 9.3335 -58)" fill="#484742"/>
<rect x="-4.59692" y="7.86816" width="57.7072" height="55.7836" rx="8" transform="rotate(11.9415 -4.59692 7.86816)" fill="#7D8BBD"/>
<g clip-path="url(#clip1_73_9259)">
<path d="M9.04587 35.8574L12.3951 36.5658C13.3764 36.7819 14.0288 37.216 14.3524 37.8675C14.676 38.519 14.6605 39.3122 14.3061 40.247C14.1544 40.6763 13.9336 41.0821 13.6438 41.4647C13.3622 41.8491 13.0148 42.1759 12.6008 42.4453C12.0926 42.7904 11.5888 42.971 11.0892 42.9873C10.5896 43.0036 10.0857 42.9579 9.57756 42.8504L8.07791 42.5333L7.10086 44.8073L5.36377 44.4399L9.04587 35.8574ZM10.2067 37.5913L8.664 41.1819C8.71225 41.2007 8.76134 41.2155 8.81133 41.2261C8.86957 41.2384 8.92804 41.2508 8.98628 41.2631C9.78435 41.4405 10.4676 41.5025 11.036 41.4485C11.6062 41.3863 12.0932 40.854 12.4967 39.8512C12.8316 39.0082 12.7883 38.4723 12.3666 38.244C11.9531 38.0173 11.4124 37.8377 10.7441 37.705C10.6424 37.6921 10.5457 37.6761 10.454 37.6567C10.3708 37.6391 10.2833 37.6206 10.1916 37.6012L10.2067 37.5913Z" fill="black"/>
<path d="M17.4529 35.1418L19.1775 35.5066L18.1853 37.7904L19.7349 38.1181C20.5812 38.3146 21.1773 38.6235 21.5235 39.0448C21.8779 39.4678 21.8689 40.1276 21.4967 41.0236L19.7792 45.008L18.0297 44.638L19.6699 40.8331C19.8413 40.4341 19.8788 40.1331 19.7826 39.93C19.6864 39.7268 19.4174 39.5786 18.9758 39.4852L17.5913 39.1793L15.4802 44.0989L13.7557 43.7341L17.4529 35.1418Z" fill="black"/>
<path d="M23.8613 38.9907L27.2105 39.6991C28.1918 39.9152 28.8442 40.3493 29.1678 41.0008C29.4914 41.6523 29.4759 42.4455 29.1215 43.3803C28.9699 43.8096 28.7491 44.2154 28.4592 44.598C28.1777 44.9824 27.8302 45.3092 27.4163 45.5786C26.908 45.9237 26.4042 46.1043 25.9046 46.1206C25.4051 46.1369 24.9011 46.0912 24.393 45.9837L22.8933 45.6666L21.9163 47.9406L20.1792 47.5732L23.8613 38.9907ZM25.0222 40.7246L23.4794 44.3152C23.5277 44.334 23.5768 44.3488 23.6268 44.3594C23.685 44.3717 23.7435 44.3841 23.8017 44.3964C24.5998 44.5738 25.2831 44.6358 25.8515 44.5818C26.4216 44.5196 26.9086 43.9873 27.3121 42.9845C27.6471 42.1415 27.6037 41.6056 27.182 41.3773C26.7685 41.1506 26.2279 40.971 25.5595 40.8383C25.4578 40.8254 25.3612 40.8094 25.2695 40.79C25.1862 40.7724 25.0987 40.7539 25.007 40.7345L25.0222 40.7246Z" fill="black"/>
</g>
<rect x="-18.5273" y="73.7361" width="57.7072" height="55.7836" rx="8" transform="rotate(11.9415 -18.5273 73.7361)" fill="#F5C4CF"/>
<rect x="77.0835" y="-43.6716" width="57.7072" height="55.7836" rx="8" transform="rotate(11.9415 77.0835 -43.6716)" fill="#BEDAF0"/>
<g clip-path="url(#clip2_73_9259)">
<path d="M101.795 -21.7332C100.863 -21.9258 99.9569 -22.0345 99.1451 -22.0615C96.7539 -22.1418 96.1552 -21.3779 95.8227 -19.806L95.3837 -17.73L100.831 -16.5779L100.684 -15.8859L93.193 -17.4703C91.6099 -17.8051 90.0225 -17.1467 89.2061 -15.4283C88.2671 -13.4592 87.9711 -12.1692 88.0353 -9.89223C88.0814 -8.1977 88.7631 -6.8531 90.3462 -6.51829L92.2191 -6.1222L92.7454 -8.61089C93.1256 -10.4088 95.0166 -11.6657 96.8639 -11.2751L102.305 -10.1244C103.819 -9.80408 105.292 -10.7954 105.614 -12.3164L106.711 -17.5033C107.023 -18.9795 106.012 -20.3518 104.586 -20.9108C103.683 -21.2645 102.727 -21.5406 101.795 -21.7332ZM98.4962 -20.6865C99.0588 -20.5675 99.4196 -20.0033 99.2981 -19.4291C99.1771 -18.857 98.6198 -18.4915 98.0571 -18.6105C97.4925 -18.7299 97.1328 -19.2893 97.2538 -19.8615C97.3753 -20.4357 97.9315 -20.8059 98.4962 -20.6865Z" fill="url(#paint0_linear_73_9259)"/>
<path d="M106.805 -14.5916L106.293 -12.1727C105.896 -10.2974 103.973 -9.0553 102.16 -9.43873L96.7189 -10.5894C95.2286 -10.9046 93.7256 -9.88989 93.4099 -8.39739L92.313 -3.2105C92.0008 -1.73428 93.1008 -0.594504 94.4511 0.133542C96.0682 1.00521 97.7023 1.44653 99.892 1.28422C101.347 1.17719 102.869 0.664109 103.201 -0.907806L103.64 -2.98383L98.1992 -4.13451L98.3455 -4.82651L106.51 -3.09983C108.093 -2.76502 108.917 -3.74451 109.818 -5.2855C110.747 -6.87153 111.07 -8.51754 110.988 -10.8216C110.931 -12.4803 110.434 -13.824 108.849 -14.1593L106.805 -14.5916ZM100.967 -2.10332C101.531 -1.9839 101.891 -1.42447 101.77 -0.852309C101.648 -0.278113 101.092 0.092128 100.528 -0.0272939C99.9649 -0.14629 99.6041 -0.710455 99.7256 -1.28465C99.8466 -1.85681 100.404 -2.22231 100.967 -2.10332Z" fill="url(#paint1_linear_73_9259)"/>
</g>
<rect x="63.1531" y="22.1965" width="57.7072" height="55.7836" rx="8" transform="rotate(11.9415 63.1531 22.1965)" fill="white"/>
<rect x="49.2229" y="88.0647" width="57.7072" height="55.7836" rx="8" transform="rotate(11.9415 49.2229 88.0647)" fill="#F8D1C1"/>
<rect x="144.834" y="-29.3433" width="57.7072" height="55.7836" rx="8" transform="rotate(11.9415 144.834 -29.3433)" fill="#ECE5F7"/>
<g clip-path="url(#clip3_73_9259)">
<path d="M173.238 4.58764L174.297 4.81166L174.073 5.87094L173.014 5.64692L173.238 4.58764Z" fill="#A179DC"/>
<path fill-rule="evenodd" clip-rule="evenodd" d="M178.323 1.38786C178.403 1.0081 178.393 0.655381 178.29 0.332668C178.188 0.0153665 177.997 -0.273078 177.713 -0.529276C176.706 -1.43277 175.699 -2.33551 174.691 -3.23824C173.348 -4.44187 172.005 -5.64549 170.664 -6.85093C170.031 -7.41961 169.329 -7.55227 168.524 -7.28142C167.802 -7.0387 165.345 -6.24246 163.115 -5.52018L163.115 -5.52012C161.646 -5.04395 160.275 -4.59993 159.567 -4.36785C158.832 -4.1275 158.391 -3.61524 158.232 -2.86196C157.903 -1.31112 157.575 0.239807 157.247 1.79074C156.919 3.34168 156.591 4.89262 156.263 6.4435C156.184 6.81489 156.193 7.16039 156.29 7.47725C156.389 7.80313 156.583 8.09882 156.874 8.36084C157.426 8.8581 158.493 9.81385 159.64 10.8401L159.642 10.8419C161.391 12.4074 163.322 14.1362 163.885 14.6515C164.512 15.2253 165.207 15.3882 166.017 15.1244C167.756 14.5573 169.495 13.9926 171.235 13.428L171.237 13.4275C172.499 13.018 173.76 12.6084 175.022 12.198C175.394 12.0763 175.691 11.884 175.914 11.6267C176.13 11.3762 176.278 11.0636 176.357 10.6922C176.357 10.6922 177.668 4.49005 178.323 1.38786ZM168.926 -3.54225C171.689 -2.95792 173.783 -0.947215 174.604 1.55643L174.596 1.5323L170.949 2.71657C170.538 1.49668 169.519 0.516542 168.175 0.216623L168.133 0.207413C166.079 -0.226974 164.061 1.08595 163.627 3.1399C163.485 3.81159 163.531 4.47908 163.727 5.08877C164.132 6.3435 165.177 7.35321 166.559 7.64558C167.939 7.9374 169.302 7.43975 170.18 6.45931L173.028 9.02615C171.282 10.9674 168.587 11.9601 165.85 11.4124L165.766 11.3952C162.995 10.8091 160.895 8.78768 160.08 6.27293C159.683 5.04526 159.591 3.70012 159.877 2.34689C160.75 -1.77791 164.801 -4.41464 168.926 -3.54225ZM170.201 6.43541L170.18 6.45931C170.187 6.45138 170.194 6.44341 170.201 6.43541ZM173.35 4.058L173.574 2.99872L173.044 2.88671L172.82 3.94599L171.761 3.72196L171.649 4.2516L172.708 4.47563L172.484 5.5349L171.425 5.31088L171.313 5.84052L172.372 6.06455L172.148 7.12383L172.678 7.23584L172.902 6.17656L173.961 6.40058L173.737 7.45986L174.267 7.57188L174.491 6.5126L175.55 6.73662L175.662 6.20698L174.603 5.98296L174.827 4.92368L175.886 5.1477L175.998 4.61806L174.939 4.39404L175.163 3.33476L174.633 3.22274L174.409 4.28202L173.35 4.058Z" fill="#A179DC"/>
<path d="M160.073 6.2488L156.29 7.47725C156.389 7.80313 156.583 8.09882 156.874 8.36084C157.426 8.85823 158.494 9.81438 159.641 10.8409C161.39 12.4066 163.322 14.1361 163.885 14.6515C164.512 15.2253 165.207 15.3882 166.017 15.1244C167.756 14.5572 169.496 13.9925 171.236 13.4278C172.498 13.0182 173.76 12.6085 175.022 12.198C175.394 12.0763 175.691 11.884 175.914 11.6267L173.028 9.02615C171.282 10.9674 168.587 11.9601 165.85 11.4124L165.766 11.3952C162.995 10.8091 160.895 8.78768 160.08 6.27293C160.078 6.26489 160.075 6.25685 160.073 6.2488Z" fill="#280068"/>
<path d="M170.18 6.45931C169.302 7.43975 167.939 7.9374 166.559 7.64558C165.177 7.35321 164.132 6.3435 163.727 5.08877C163.725 5.08069 163.722 5.0726 163.719 5.0645L167.331 3.89171L170.18 6.45931Z" fill="#280068"/>
<path d="M173.238 4.58764L174.297 4.81166L174.073 5.87094L173.014 5.64692L173.238 4.58764Z" fill="#390091"/>
<path fill-rule="evenodd" clip-rule="evenodd" d="M178.29 0.332668C178.393 0.655381 178.403 1.0081 178.323 1.38786C177.668 4.49005 176.357 10.6922 176.357 10.6922C176.278 11.0636 176.13 11.3762 175.914 11.6267L167.331 3.89171L178.29 0.332668ZM173.35 4.058L173.574 2.99872L173.044 2.88671L172.82 3.94599L171.761 3.72196L171.649 4.2516L172.708 4.47563L172.484 5.5349L171.425 5.31088L171.313 5.84052L172.372 6.06455L172.148 7.12383L172.678 7.23584L172.902 6.17656L173.961 6.40058L173.737 7.45986L174.267 7.57188L174.491 6.5126L175.55 6.73662L175.662 6.20698L174.603 5.98296L174.827 4.92368L175.886 5.1477L175.998 4.61806L174.939 4.39404L175.163 3.33476L174.633 3.22274L174.409 4.28202L173.35 4.058Z" fill="#390091"/>
</g>
<rect x="130.903" y="36.5249" width="57.7072" height="55.7836" rx="8" transform="rotate(11.9415 130.903 36.5249)" fill="#FDC9B3"/>
<rect x="116.973" y="102.393" width="57.7072" height="55.7836" rx="8" transform="rotate(11.9415 116.973 102.393)" fill="#323232"/>
<g clip-path="url(#clip4_73_9259)">
<path fill-rule="evenodd" clip-rule="evenodd" d="M78.6738 43.1741L76.286 61.9792L83.4231 65.8058L91.4984 65.1964L96.9287 47.0348L78.6738 43.1741ZM80.5902 54.7792L88.1964 56.3878L87.1906 59.2647L84.7524 59.5215L82.6269 58.2996L82.6375 56.3708L80.3556 55.8882L79.9541 59.6653L84.2051 62.1092L89.0816 61.5957L91.3276 54.7328L86.7639 53.7677L92.0988 52.9649L93.0264 50.4577L81.2368 47.9643L81.148 50.2628L87.233 51.5497L80.7571 52.1111L80.5902 54.7792Z" fill="#1172B8"/>
<path d="M87.4887 46.5831L95.0949 48.1917L90.1337 64.1354L83.6579 64.6968L84.2051 62.1092L89.0816 61.5957L91.3276 54.7328L86.7639 53.7677L92.0988 52.9649L93.0264 50.4577L86.9415 49.1708L87.4887 46.5831Z" fill="#33AADD"/>
<path d="M86.4724 51.3888L86.4235 51.6198L87.233 51.5497L86.4724 51.3888Z" fill="#33AADD"/>
<path d="M85.5342 55.8248L84.7524 59.5215L87.1906 59.2647L88.1964 56.3878L85.5342 55.8248Z" fill="#33AADD"/>
</g>
<g clip-path="url(#clip5_73_9259)">
<path d="M165.481 61.5717L159.655 80.5753L151.428 81.0862L144.132 77.2954L146.502 57.5579L165.481 61.5717Z" fill="#E44D26"/>
<path d="M151.788 79.4417L158.436 79.0288L163.414 62.7893L155.656 61.1487L151.788 79.4417Z" fill="#F16529"/>
<path d="M151.29 65.1896L154.651 65.9005L155.153 63.5245L149.196 62.2645L148.317 69.5849L153.634 70.7094L154.136 68.3335L150.992 67.6685L151.29 65.1896ZM150.557 71.2998L148.172 70.7954L147.716 74.5963L152.297 76.9766L152.308 76.976L152.831 74.504L152.82 74.5046L150.325 73.2305L150.557 71.2998Z" fill="#EBEBEB"/>
<path d="M153.626 70.7077L156.552 71.3265L155.624 74.3496L152.823 74.5044L152.3 76.9762L157.457 76.6564L159.458 70.1256L159.651 69.4998L154.129 68.3318L153.626 70.7077ZM154.643 65.8988L160.382 67.1126L161.097 64.7816L155.146 63.5229L154.643 65.8988Z" fill="white"/>
</g>
<g clip-path="url(#clip6_73_9259)">
<path fill-rule="evenodd" clip-rule="evenodd" d="M151.92 132.319C151.878 132.548 151.833 132.775 151.786 133.003C151.733 133.262 151.678 133.521 151.624 133.779L149.816 142.327C149.763 142.577 149.71 142.826 149.656 143.076C149.606 143.303 149.556 143.529 149.502 143.755C149.384 144.247 149.249 144.74 149.058 145.21C148.863 145.688 148.62 146.12 148.294 146.523C147.975 146.918 147.594 147.262 147.168 147.539C146.742 147.816 146.274 148.026 145.783 148.158C145.283 148.292 144.79 148.34 144.275 148.324C143.766 148.308 143.261 148.232 142.763 148.141C142.535 148.099 142.307 148.053 142.08 148.007C141.839 147.957 141.598 147.906 141.358 147.856L132.728 146.031C132.487 145.98 132.247 145.929 132.007 145.876C131.78 145.827 131.553 145.776 131.328 145.722C130.835 145.604 130.342 145.469 129.871 145.278C129.394 145.084 128.962 144.84 128.56 144.515C128.164 144.196 127.821 143.815 127.543 143.389C127.266 142.962 127.057 142.494 126.925 142.003C126.791 141.503 126.743 141.01 126.759 140.494C126.774 139.987 126.851 139.481 126.942 138.984C126.984 138.755 127.029 138.528 127.076 138.3C127.124 138.062 127.175 137.823 127.225 137.585C127.232 137.554 127.239 137.522 127.245 137.491L129.033 129.036C129.039 129.008 129.045 128.979 129.051 128.951C129.102 128.71 129.153 128.468 129.206 128.227C129.255 128 129.306 127.774 129.36 127.548C129.478 127.056 129.613 126.563 129.804 126.092C129.999 125.614 130.242 125.183 130.567 124.78C130.887 124.384 131.268 124.041 131.694 123.764C131.8 123.694 131.91 123.629 132.021 123.569C132.355 123.387 132.711 123.244 133.079 123.145C133.204 123.112 133.329 123.084 133.453 123.061C133.827 122.991 134.201 122.967 134.587 122.979C134.968 122.99 135.348 123.036 135.724 123.097C135.849 123.117 135.974 123.139 136.099 123.162C136.327 123.204 136.555 123.25 136.782 123.296C137.052 123.352 137.322 123.409 137.592 123.466L146.046 125.254C146.316 125.311 146.586 125.368 146.855 125.426C147.082 125.476 147.309 125.526 147.535 125.581C148.027 125.699 148.52 125.833 148.991 126.025C149.468 126.219 149.9 126.463 150.302 126.788C150.698 127.107 151.041 127.488 151.319 127.914C151.596 128.34 151.805 128.808 151.937 129.3C152.071 129.8 152.119 130.292 152.103 130.808C152.088 131.316 152.012 131.822 151.92 132.319ZM145.473 139.694L145.474 139.696C146.909 142.494 145.84 144.942 145.694 144.406C145.097 142.219 143.101 142.323 142.04 142.617C141.95 142.648 141.86 142.675 141.769 142.702C141.764 142.704 141.758 142.705 141.753 142.707C141.747 142.709 141.74 142.711 141.735 142.713L141.737 142.711C139.522 143.348 136.832 142.861 134.388 141.137C132.339 139.692 130.838 137.641 130.042 135.463C130.558 136.044 131.135 136.581 131.768 137.059C134.327 138.99 137.201 139.497 139.482 138.689C137.075 135.871 135.285 132.485 133.939 129.763C133.674 129.27 133.444 128.767 133.268 128.259C135.045 130.741 137.989 134.008 139.089 134.973C137.031 131.613 135.425 127.671 135.511 127.804C138.796 132.892 142.144 136.084 142.144 136.084C142.272 136.195 142.366 136.282 142.44 136.356C142.562 136.17 142.677 135.977 142.783 135.772C143.964 133.477 143.803 130.533 142.593 127.875C145.973 131.018 147.327 135.917 145.6 139.453C145.566 139.522 145.53 139.588 145.494 139.654C145.487 139.667 145.48 139.681 145.473 139.694Z" fill="#F05138"/>
</g>
<g clip-path="url(#clip7_73_9259)">
<path d="M58.0012 130.226L71.7265 121.293L80.5845 135.002L58.0012 130.226Z" fill="url(#paint2_linear_73_9259)"/>
<path d="M62.7773 107.643L74.1067 110.039L60.1903 119.876L62.7773 107.643Z" fill="url(#paint3_linear_73_9259)"/>
<path d="M74.1067 110.039L60.254 119.575L58.0012 130.226L71.7266 121.293L85.3607 112.419L74.1067 110.039Z" fill="url(#paint4_linear_73_9259)"/>
</g>
<g clip-path="url(#clip8_73_9259)">
<path d="M6.55905 96.7758L-4.4678 98.1765L-5.70299 111.756L2.00698 118.3L3.75043 110.056L1.0146 109.477L-0.940802 112.347L-3.33484 111.841L6.05595 99.1546L6.55905 96.7758Z" fill="#DD0031"/>
<path d="M5.0909 103.718L2.28481 107.722L4.16011 108.119L5.0909 103.718Z" fill="#DD0031"/>
<path d="M6.56219 96.7764L16.0777 102.522L11.7093 115.438L2.01012 118.3L3.75357 110.057L6.4894 110.635L7.11559 114.051L9.50963 114.557L6.05909 99.1553L6.56219 96.7764Z" fill="#C3002F"/>
<path d="M5.09404 103.718L6.03855 108.516L4.16325 108.119L5.09404 103.718Z" fill="#C3002F"/>
</g>
</g>
<rect width="375" height="134" fill="url(#paint5_linear_73_9259)"/>
<path d="M255.824 106.664C254.672 107.976 252.208 107.016 252.336 105.224C252.336 104.072 253.232 103.208 254.384 103.208C255.568 103.208 256.4 104.04 256.4 105.224C256.4 105.8 256.208 106.28 255.824 106.664ZM259.632 107.272C258.448 107.272 257.552 106.376 257.552 105.224C257.552 104.04 258.384 103.208 259.632 103.208C260.784 103.208 261.616 104.072 261.616 105.224C261.616 106.376 260.752 107.272 259.632 107.272ZM267.088 114.28V107.624H270.864V115.624C270.864 118.952 268.816 121 265.104 121H250.768C245.904 121 242.896 118.408 242.896 114.568C242.896 112.968 243.248 111.272 243.92 109.448L247.248 110.312C246.832 111.848 246.64 113 246.64 113.8C246.64 116.264 248.368 117.608 251.344 117.608H263.984C266.192 117.608 267.088 116.712 267.088 114.28ZM278.669 121H274.893V96.808H278.669V121ZM280.666 126.856L280.09 123.592C283.066 123.176 284.186 122.184 284.186 119.528V107.624H287.962V118.76C287.962 123.912 285.69 126.504 280.666 126.856ZM294.383 126.856L294.159 123.464C298.927 123.816 301.615 122.76 301.583 120.2C300.719 120.488 299.663 120.648 298.479 120.648C294.351 120.648 291.727 118.28 291.727 114.28C291.727 112.328 292.367 110.696 293.679 109.32C294.959 107.944 296.687 107.272 298.831 107.272C303.183 107.272 305.391 109.992 305.391 113.8V119.976C305.391 124.616 302.383 126.92 296.399 126.92C295.535 126.92 294.863 126.888 294.383 126.856ZM299.055 117.16C299.855 117.16 300.719 117.064 301.615 116.84V114.632C301.615 112.04 300.623 110.76 298.639 110.76C296.847 110.76 295.535 112.104 295.535 114.056C295.535 116.104 296.783 117.16 299.055 117.16ZM321.497 117.608H323.897C324.313 117.608 324.537 118.216 324.537 119.4C324.537 120.456 324.313 121 323.897 121H308.057V117.608H317.753V117.544C317.753 116.072 317.177 114.632 316.025 113.192C314.841 111.752 313.497 110.568 311.993 109.64L314.265 106.6C316.857 108.264 318.681 109.96 319.737 111.72C320.793 113.48 321.369 115.464 321.497 117.608ZM323.906 121V117.608C326.434 117.608 327.042 116.776 327.042 113.864V96.808H330.818V114.664C330.818 119.304 328.674 121 323.906 121ZM338.826 121H335.049V96.808H338.826V121Z" fill="black"/>
<rect x="345" y="105" width="9" height="9" rx="3" fill="#FFC727"/>
</g>
<path d="M375 136H-2V138H375V136Z" fill="#F3F3F3" mask="url(#path-1-inside-1_73_9259)"/>
<defs>
<filter id="filter0_d_73_9259" x="-50.2654" y="-62.2656" width="257.823" height="305.309" filterUnits="userSpaceOnUse" color-interpolation-filters="sRGB">
<feFlood flood-opacity="0" result="BackgroundImageFix"/>
<feColorMatrix in="SourceAlpha" type="matrix" values="0 0 0 0 0 0 0 0 0 0 0 0 0 0 0 0 0 0 127 0" result="hardAlpha"/>
<feOffset dy="2"/>
<feGaussianBlur stdDeviation="4"/>
<feComposite in2="hardAlpha" operator="out"/>
<feColorMatrix type="matrix" values="0 0 0 0 0.3 0 0 0 0 0.3 0 0 0 0 0.3 0 0 0 0.25 0"/>
<feBlend mode="normal" in2="BackgroundImageFix" result="effect1_dropShadow_73_9259"/>
<feBlend mode="normal" in="SourceGraphic" in2="effect1_dropShadow_73_9259" result="shape"/>
</filter>
<linearGradient id="paint0_linear_73_9259" x1="90.6379" y1="-24.093" x2="104.566" y2="-6.04584" gradientUnits="userSpaceOnUse">
<stop stop-color="#5A9FD4"/>
<stop offset="1" stop-color="#306998"/>
</linearGradient>
<linearGradient id="paint1_linear_73_9259" x1="100.654" y1="-1.27071" x2="97.4829" y2="-8.53836" gradientUnits="userSpaceOnUse">
<stop stop-color="#FFD43B"/>
<stop offset="1" stop-color="#FFE873"/>
</linearGradient>
<linearGradient id="paint2_linear_73_9259" x1="62.8926" y1="136.772" x2="75.8187" y2="128.358" gradientUnits="userSpaceOnUse">
<stop offset="0.09677" stop-color="#0095D5"/>
<stop offset="0.3007" stop-color="#238AD9"/>
<stop offset="0.6211" stop-color="#557BDE"/>
<stop offset="0.8643" stop-color="#7472E2"/>
<stop offset="1" stop-color="#806EE3"/>
</linearGradient>
<linearGradient id="paint3_linear_73_9259" x1="63.4017" y1="112.517" x2="70.9092" y2="107.631" gradientUnits="userSpaceOnUse">
<stop offset="0.1183" stop-color="#0095D5"/>
<stop offset="0.4178" stop-color="#3C83DC"/>
<stop offset="0.6962" stop-color="#6D74E1"/>
<stop offset="0.8333" stop-color="#806EE3"/>
</linearGradient>
<linearGradient id="paint4_linear_73_9259" x1="54.584" y1="127.602" x2="80.0435" y2="111.031" gradientUnits="userSpaceOnUse">
<stop offset="0.1075" stop-color="#C757BC"/>
<stop offset="0.2138" stop-color="#D0609A"/>
<stop offset="0.4254" stop-color="#E1725C"/>
<stop offset="0.6048" stop-color="#EE7E2F"/>
<stop offset="0.743" stop-color="#F58613"/>
<stop offset="0.8232" stop-color="#F88909"/>
</linearGradient>
<linearGradient id="paint5_linear_73_9259" x1="-65" y1="74.1467" x2="187.994" y2="71.3482" gradientUnits="userSpaceOnUse">
<stop stop-color="#454545" stop-opacity="0.1"/>
<stop offset="1" stop-color="white" stop-opacity="0"/>
</linearGradient>
<clipPath id="clip0_73_9259">
<path d="M-2 0H375V137H-2V0Z" fill="white"/>
</clipPath>
<clipPath id="clip1_73_9259">
<rect width="23.0829" height="23.0829" fill="white" transform="translate(8.95752 27.4468) rotate(11.9415)"/>
</clipPath>
<clipPath id="clip2_73_9259">
<rect width="23.0829" height="23.0829" fill="white" transform="translate(90.6379 -24.093) rotate(11.9415)"/>
</clipPath>
<clipPath id="clip3_73_9259">
<rect width="23.0829" height="23.0829" fill="white" transform="translate(158.388 -9.76465) rotate(11.9415)"/>
</clipPath>
<clipPath id="clip4_73_9259">
<rect width="23.0829" height="23.0829" fill="white" transform="translate(76.7078 41.7751) rotate(11.9415)"/>
</clipPath>
<clipPath id="clip5_73_9259">
<rect width="23.0829" height="23.0829" fill="white" transform="translate(144.458 56.1035) rotate(11.9415)"/>
</clipPath>
<clipPath id="clip6_73_9259">
<rect width="23.0829" height="23.0829" fill="white" transform="translate(130.527 121.972) rotate(11.9415)"/>
</clipPath>
<clipPath id="clip7_73_9259">
<rect width="23.0829" height="23.0829" fill="white" transform="translate(62.7773 107.643) rotate(11.9415)"/>
</clipPath>
<clipPath id="clip8_73_9259">
<rect width="23.0829" height="23.0829" fill="white" transform="translate(-4.9729 93.3147) rotate(11.9415)"/>
</clipPath>
</defs>
</svg>
