<svg width="32" height="23" viewBox="0 0 32 23" fill="none" xmlns="http://www.w3.org/2000/svg">
<path d="M16 6H17V3H16V6Z" fill="#808080"/>
<path d="M30.6333 15.5367C30.8556 16.4723 30.2775 17.4109 29.342 17.6332C28.4065 17.8556 27.4679 17.2775 27.2455 16.342C27.0231 15.4064 27.6013 14.4678 28.5368 14.2455C29.4723 14.0231 30.4109 14.6012 30.6333 15.5367Z" stroke="#808080" stroke-width="1.4"/>
<path d="M4.61853 15.8002C4.83124 16.738 4.24348 17.6706 3.30573 17.8833C2.36798 18.096 1.43535 17.5082 1.22264 16.5705C1.00994 15.6327 1.5977 14.7001 2.53545 14.4874C3.4732 14.2747 4.40582 14.8625 4.61853 15.8002Z" stroke="#808080" stroke-width="1.4"/>
<path d="M18.8675 22.9776C16.8099 23.0159 14.4781 23.0079 13.3892 22.9314C13.2941 22.9248 13.1896 22.9182 13.0769 22.9111C10.3395 22.7379 2.69317 22.2542 4.19307 13.7442C5.75477 4.88357 15.6363 5.00626 15.6363 5.00626L18.8675 22.9776ZM18.8675 22.9776C23.4232 22.8964 26.6421 21.985 27.7371 17.6128L18.8675 22.9776ZM15.6276 5.70621L15.6281 5.70621L15.6283 5.70621L15.6284 5.70621L15.6406 5.70637L15.6537 5.70604C20.2315 5.59244 23.1789 7.09036 24.9561 9.10178C26.7502 11.1325 27.4179 13.7613 27.2833 16.0046C27.2535 16.4897 27.1782 16.9705 27.0587 17.4403L27.0581 17.4428C26.5531 19.4593 25.589 20.6022 24.2775 21.2831C22.9176 21.9891 21.1118 22.2375 18.855 22.2778L18.8545 22.2778C16.7962 22.316 14.4927 22.3072 13.4383 22.2332L13.4378 22.2331C13.3417 22.2264 13.238 22.2198 13.1275 22.2127C11.8033 22.1275 9.51109 21.9802 7.633 20.98C6.63715 20.4496 5.78807 19.6927 5.26516 18.5935C4.74121 17.4921 4.51061 15.9753 4.88244 13.8657C5.60964 9.73976 8.24987 7.71665 10.7625 6.70153C12.0262 6.19098 13.2498 5.94097 14.1605 5.81938C14.6146 5.75875 14.9875 5.73049 15.2443 5.71738C15.3726 5.71083 15.4717 5.70808 15.5371 5.70694C15.5698 5.70637 15.594 5.70621 15.6093 5.70618L15.6254 5.70619L15.6276 5.70621Z" stroke="#808080" stroke-width="1.4"/>
<path d="M23.2906 18.1347L23.2902 18.1347L9.13285 18.1563L9.13087 18.1563C8.90472 18.1573 8.67346 18.0986 8.44765 17.9725C8.22027 17.8455 7.99878 17.65 7.80348 17.384C7.6081 17.1179 7.44666 16.7913 7.33546 16.4195C7.22435 16.048 7.16755 15.6448 7.1708 15.2344L7.1708 15.2337C7.17363 14.8231 7.2364 14.419 7.35337 14.0455C7.47043 13.6718 7.63747 13.3424 7.83834 13.0731C8.03919 12.8037 8.26584 12.6048 8.49785 12.4749C8.72833 12.3459 8.96236 12.2856 9.18876 12.2852C9.18879 12.2852 9.18883 12.2852 9.18887 12.2852L23.3461 12.2637L23.3486 12.2637C23.5747 12.2625 23.806 12.3211 24.0317 12.4471L24.3717 11.8379L24.0317 12.4471C24.2591 12.5739 24.4806 12.7693 24.6759 13.0353C24.8713 13.3015 25.0327 13.6281 25.1438 14C25.2549 14.3716 25.3116 14.7748 25.3081 15.1853L25.3081 15.1866C25.3055 15.5971 25.2428 16.0014 25.1259 16.3749C25.0089 16.7487 24.8419 17.0781 24.641 17.3475C24.4402 17.6169 24.2135 17.8157 23.9815 17.9455C23.751 18.0744 23.517 18.1345 23.2906 18.1347Z" stroke="#808080" stroke-width="1.4"/>
<path d="M11.7408 15.0482C11.7073 15.2187 11.6239 15.3755 11.5013 15.4986C11.3787 15.6217 11.2224 15.7058 11.052 15.7401C10.8817 15.7743 10.705 15.7573 10.5443 15.6912C10.3836 15.6251 10.2461 15.5128 10.1493 15.3686C10.0524 15.2243 10.0004 15.0546 10 14.8808C9.99957 14.7071 10.0507 14.5371 10.1468 14.3924C10.243 14.2476 10.3799 14.1347 10.5403 14.0678C10.7007 14.0008 10.8773 13.983 11.0478 14.0164C11.161 14.0386 11.2688 14.083 11.365 14.1468C11.4611 14.2107 11.5437 14.2929 11.6081 14.3887C11.6724 14.4846 11.7173 14.5921 11.7401 14.7053C11.7628 14.8184 11.7631 14.935 11.7408 15.0482Z" fill="#808080"/>
<path d="M21.7411 15.0467C21.7078 15.2174 21.6247 15.3743 21.5023 15.4977C21.3798 15.6211 21.2235 15.7053 21.0531 15.7398C20.8827 15.7744 20.7059 15.7575 20.5451 15.6915C20.3843 15.6255 20.2466 15.5133 20.1496 15.3691C20.0526 15.2248 20.0005 15.0551 20 14.8812C19.9995 14.7074 20.0506 14.5373 20.1468 14.3925C20.2429 14.2477 20.3799 14.1347 20.5404 14.0677C20.7008 14.0008 20.8775 13.983 21.0481 14.0165C21.2765 14.0614 21.4778 14.1951 21.6077 14.3882C21.7377 14.5814 21.7856 14.8182 21.7411 15.0467Z" fill="#808080"/>
<path d="M16.8982 1.46295C17.1595 1.72423 17.1595 2.14784 16.8982 2.40912C16.6369 2.6704 16.2133 2.6704 15.952 2.40912C15.6908 2.14784 15.6908 1.72423 15.952 1.46295C16.2133 1.20167 16.6369 1.20167 16.8982 1.46295Z" stroke="#808080" stroke-width="1.4"/>
<path d="M14.107 15.0002C14.1719 15.0079 14.1395 15.3096 14.3313 15.7226C14.44 15.9597 14.5982 16.1707 14.7954 16.3414C15.0265 16.5447 15.3141 16.6726 15.6199 16.708C15.9273 16.7279 16.2335 16.6545 16.4985 16.4977C16.7229 16.3672 16.9169 16.1905 17.0678 15.9794C17.3308 15.6128 17.354 15.305 17.419 15.3096C17.4453 15.3096 17.4716 15.3869 17.4716 15.5324C17.4657 15.7395 17.4128 15.9427 17.3169 16.1264C17.1727 16.4041 16.9597 16.6401 16.6981 16.8117C16.3747 17.0396 15.9808 17.1449 15.5868 17.1089C15.1929 17.0729 14.8246 16.8979 14.5478 16.6152C14.322 16.3992 14.1557 16.1285 14.0652 15.8294C14.0007 15.6298 13.9838 15.4179 14.0157 15.2106C14.042 15.0667 14.0822 14.9956 14.107 15.0002Z" fill="#808080"/>
</svg>
