<svg width="21" height="21" viewBox="0 0 21 21" fill="none" xmlns="http://www.w3.org/2000/svg">
<path d="M11.287 10.4969L17.1964 4.5817C17.3006 4.47693 17.3591 4.33512 17.359 4.18732C17.3589 4.03952 17.3002 3.89778 17.1959 3.79315C16.9869 3.58525 16.6189 3.5842 16.4078 3.7942L10.5 9.70938L4.59008 3.79263C4.38008 3.58525 4.01206 3.5863 3.80311 3.79368C3.75124 3.84533 3.71019 3.9068 3.68233 3.97449C3.65448 4.04219 3.64039 4.11475 3.64088 4.18795C3.64088 4.33705 3.69863 4.4767 3.80311 4.58013L9.71251 10.4964L3.80363 16.4131C3.69936 16.518 3.64097 16.66 3.64126 16.808C3.64156 16.9559 3.70052 17.0977 3.80521 17.2022C3.90653 17.3025 4.04986 17.3602 4.19791 17.3602H4.20106C4.34963 17.3597 4.49296 17.3014 4.59218 17.2001L10.5 11.2849L16.4099 17.2017C16.5144 17.3056 16.6541 17.3634 16.8021 17.3634C16.8753 17.3636 16.9478 17.3493 17.0155 17.3214C17.0832 17.2935 17.1447 17.2524 17.1964 17.2007C17.2482 17.1489 17.2892 17.0874 17.3172 17.0197C17.3451 16.9521 17.3593 16.8795 17.3591 16.8063C17.3591 16.6578 17.3014 16.5176 17.1964 16.4142L11.287 10.4969Z" fill="black"/>
</svg>
