<svg width="33" height="32" viewBox="0 0 33 32" fill="none" xmlns="http://www.w3.org/2000/svg">
<g clip-path="url(#clip0_73_9734)">
<path fill-rule="evenodd" clip-rule="evenodd" d="M1.3208 0L32.318 0.414402L31.9036 31.4116L0.906399 30.9972L1.3208 0ZM24.6692 26.3023C23.2325 26.2831 22.4302 25.5229 21.8194 24.4951L19.4339 25.8386C20.2665 27.5397 21.9969 28.8521 24.702 28.8883C27.4687 28.9253 29.548 27.5161 29.583 24.8937C29.6155 22.4611 28.2327 21.3605 25.772 20.2661L25.048 19.9444C23.8055 19.3865 23.269 19.0255 23.2807 18.1517C23.2901 17.4446 23.8381 16.9106 24.6913 16.9221C25.5277 16.9332 26.0617 17.2932 26.5492 18.1954L28.8368 16.7693C27.9 15.0689 26.5772 14.4065 24.7252 14.3818C22.1239 14.347 20.4372 15.9878 20.408 18.1723C20.3763 20.5439 21.7576 21.6843 23.8475 22.6079L24.5716 22.9301C25.8922 23.5289 26.6797 23.8933 26.6663 24.8921C26.6552 25.7255 25.8761 26.3184 24.6692 26.3023ZM13.381 26.1332C12.3803 26.1198 11.9732 25.4279 11.5265 24.6099L9.13623 26.0137C9.80365 27.4766 11.1381 28.7015 13.4703 28.7327C16.0514 28.7672 17.8381 27.4181 17.8784 24.402L18.0113 14.4583L15.0986 14.4194L14.9662 24.3237C14.9467 25.7796 14.338 26.146 13.381 26.1332Z" fill="#F7DF1E"/>
</g>
<defs>
<clipPath id="clip0_73_9734">
<rect width="31" height="31" fill="white" transform="translate(1.3208) rotate(0.765942)"/>
</clipPath>
</defs>
</svg>
