<svg width="32" height="32" viewBox="0 0 32 32" fill="none" xmlns="http://www.w3.org/2000/svg">
<path d="M31.982 7.22668C31.9939 7.26922 32 7.3131 32 7.35722V14.214C32 14.3931 31.9013 14.5586 31.7409 14.6476L25.8062 17.9612V24.5285C25.8063 24.6164 25.7825 24.7027 25.7372 24.7789C25.692 24.855 25.6269 24.9183 25.5485 24.9623L13.16 31.8778C13.1316 31.8933 13.1007 31.9033 13.0697 31.9141C13.0581 31.9177 13.0472 31.9246 13.035 31.9278C12.9484 31.9499 12.8574 31.9499 12.7708 31.9278C12.7565 31.9241 12.7436 31.9165 12.7301 31.9115C12.7018 31.9015 12.6721 31.8927 12.6451 31.8778L0.259125 24.9622C0.180418 24.9184 0.115018 24.8552 0.0695226 24.7791C0.0240275 24.7029 4.69204e-05 24.6165 0 24.5285L0 3.95832C0 3.91322 0.0065 3.86947 0.018 3.82704C0.021875 3.81262 0.030875 3.79953 0.036125 3.7851C0.04575 3.75892 0.054875 3.73201 0.069 3.70765C0.078625 3.69141 0.09275 3.67832 0.104375 3.66329C0.11925 3.64329 0.13275 3.62268 0.150125 3.6051C0.165 3.5908 0.184375 3.58013 0.201125 3.56765C0.219875 3.55262 0.2365 3.53638 0.25775 3.5245H0.258375L6.45162 0.0668003C6.53005 0.0230345 6.61895 0 6.70944 0C6.79992 0 6.88882 0.0230345 6.96725 0.0668003L13.1605 3.5245H13.1617C13.1824 3.5371 13.1999 3.55262 13.2185 3.56704C13.2353 3.57953 13.254 3.5908 13.2688 3.60462C13.2869 3.62268 13.2998 3.64341 13.3151 3.66329C13.3261 3.67832 13.341 3.69141 13.35 3.70765C13.3647 3.73262 13.3731 3.75892 13.3835 3.78522C13.3886 3.79953 13.3976 3.81262 13.4015 3.82765C13.4134 3.87019 13.4195 3.91419 13.4196 3.95832V16.8061L18.5804 13.9245V7.35662C18.5804 7.31298 18.5869 7.2685 18.5985 7.22668C18.603 7.21165 18.6114 7.19856 18.6165 7.18426C18.6269 7.15795 18.6359 7.13092 18.65 7.10668C18.6596 7.09044 18.6737 7.07735 18.6849 7.06232C18.7003 7.04232 18.7131 7.02171 18.7311 7.00413C18.7461 6.98983 18.7647 6.97916 18.7815 6.96668C18.8009 6.95165 18.8176 6.93541 18.8382 6.92353H18.8389L25.0327 3.46583C25.1112 3.42201 25.2001 3.39894 25.2906 3.39894C25.3811 3.39894 25.47 3.42201 25.5484 3.46583L31.7416 6.92353C31.7635 6.93601 31.7803 6.95165 31.7996 6.96595C31.8156 6.97856 31.8344 6.98983 31.8493 7.00353C31.8673 7.02171 31.8801 7.04232 31.8955 7.06232C31.9072 7.07735 31.9214 7.09044 31.9305 7.10668C31.9452 7.13092 31.9536 7.15795 31.9639 7.18426C31.9697 7.19856 31.9781 7.21165 31.982 7.22668ZM30.9676 13.9246V8.2228L28.8002 9.43262L25.8061 11.1044V16.8062L30.9683 13.9246H30.9676ZM24.7744 24.2392V18.5333L21.8291 20.1645L13.419 24.819V30.5783L24.7744 24.2389V24.2392ZM1.03237 4.82377V24.2392L12.3865 30.5778V24.8196L6.455 21.5644L6.45312 21.5632L6.45062 21.562C6.43062 21.5507 6.41375 21.5344 6.39512 21.5207C6.37887 21.5081 6.36025 21.4982 6.34613 21.4844L6.34487 21.4826C6.32812 21.4669 6.3165 21.4475 6.30237 21.4301C6.28937 21.4131 6.274 21.3988 6.26363 21.3813L6.263 21.3794C6.25138 21.3607 6.24425 21.3382 6.23588 21.317C6.2275 21.2982 6.21663 21.2806 6.21138 21.2607V21.2601C6.205 21.2364 6.20375 21.2113 6.20113 21.1869C6.19863 21.1683 6.19338 21.1495 6.19338 21.1307V7.70547L3.19975 6.03298L1.03237 4.8245V4.82377ZM6.71012 1.07795L1.54988 3.95832L6.70888 6.83856L11.8684 3.95759L6.70888 1.07795H6.71012ZM9.39363 19.0535L12.3871 17.3824V4.82377L10.22 6.03371L7.22563 7.70535V20.2639L9.39363 19.0535ZM25.2905 4.47698L20.131 7.35722L25.2905 10.2376L30.4494 7.35662L25.2905 4.47698ZM24.7743 11.1044L21.7801 9.43262L19.6129 8.2228V13.9246L22.6064 15.5958L24.7744 16.8062V11.1044H24.7743ZM12.9021 23.9536L20.47 19.764L24.253 17.6704L19.0972 14.792L13.1611 18.106L7.75087 21.1263L12.9021 23.9536Z" fill="#FF2D20"/>
</svg>
