<svg width="143" height="149" viewBox="0 0 143 149" fill="none" xmlns="http://www.w3.org/2000/svg">
<path d="M19.8261 8.30884H7.914V12.1H19.8261V8.30884Z" fill="#EBEBEB"/>
<path d="M101.812 53.2063H89.8999V56.9974H101.812V53.2063Z" fill="#EBEBEB"/>
<path d="M13.1826 3.52819C11.204 3.56207 6.13222 3.64677 4.2214 3.67049H1.27047L1.42631 3.51464V7.30579L1.25691 7.13639C3.23549 7.13639 8.28019 7.1635 10.191 7.1906L13.169 7.22787L13.0877 7.30579L13.169 3.51464L13.1826 3.52819ZM13.1826 3.52819L13.2605 7.31934V7.40065H13.1792C11.6919 7.42098 8.70708 7.45486 7.22315 7.46502L1.26708 7.48874H1.09768V7.31934V3.52819V3.37573H1.25014H4.25528C6.15254 3.39606 11.2006 3.48076 13.1623 3.51464L13.1826 3.52819Z" fill="#EBEBEB"/>
<path d="M46.8895 85.2024C44.9109 85.2363 39.8391 85.321 37.9283 85.3414H34.9774L35.1332 85.1889V88.98L34.9638 88.8106C36.9424 88.8106 41.9871 88.8344 43.8979 88.8615L46.8759 88.8987L46.7946 88.98L46.8759 85.1889L46.8895 85.2024ZM46.8895 85.2024L46.9708 88.9936V89.0715H46.8895C45.4022 89.0715 42.4207 89.1257 40.9334 89.1359L34.9774 89.1596H34.808V88.9902V85.1991V85.0432H34.9604L37.9656 85.0601C39.8628 85.0805 44.9143 85.1652 46.8725 85.1991L46.8895 85.2024Z" fill="#EBEBEB"/>
<path d="M40.2458 80.4151C38.2672 80.449 33.1954 80.5337 31.2846 80.554H28.3336L28.4895 80.4015V84.1927L28.3201 84.0233C30.2987 84.0233 35.3434 84.047 37.2542 84.0741L40.2322 84.1114L40.1509 84.1927L40.2322 80.4015L40.2458 80.4151ZM40.2458 80.4151L40.3271 84.2062V84.2842H40.2458C38.7585 84.3011 35.7736 84.3384 34.2897 84.3485L28.3336 84.3723H28.1642V84.2029V80.4117V80.2559H28.3201H31.3252C33.2225 80.2762 38.2706 80.3609 40.2322 80.3948L40.2458 80.4151Z" fill="#EBEBEB"/>
<path d="M33.6287 85.1956H21.7166V88.9867H33.6287V85.1956Z" fill="#EBEBEB"/>
<path d="M141.424 3.52832H129.512V7.31947H141.424V3.52832Z" fill="#EBEBEB"/>
<path d="M134.78 120.6H122.868V124.391H134.78V120.6Z" fill="#EBEBEB"/>
<path d="M141.424 115.819C139.446 115.853 134.374 115.938 132.463 115.962H129.512L129.668 115.806V119.597L129.499 119.428C131.477 119.428 136.522 119.455 138.433 119.482L141.411 119.519L141.329 119.597L141.411 115.806L141.424 115.819ZM141.424 115.819L141.506 119.611V119.692H141.424C139.937 119.712 136.956 119.746 135.468 119.76L129.512 119.78H129.343V119.607L129.36 115.816V115.664H129.512H132.517C134.415 115.684 139.466 115.772 141.424 115.802V115.819Z" fill="#EBEBEB"/>
<path d="M19.8263 120.6C17.8478 120.634 12.7759 120.718 10.8651 120.742H7.9142L8.07004 120.586V124.377L7.90064 124.208L13.8567 124.232C15.3406 124.232 18.3288 124.279 19.8128 124.3L19.7315 124.377L19.8128 120.586L19.8263 120.6ZM19.8263 120.6L19.9076 124.391V124.472H19.8263C18.339 124.493 15.3542 124.527 13.8703 124.54L7.9142 124.56H7.7448V124.388V120.596V120.437H7.89726H10.9024C12.7997 120.458 17.8478 120.546 19.8094 120.576L19.8263 120.6Z" fill="#EBEBEB"/>
<path d="M55.1088 29.0127L54.4922 33.4171C54.4412 33.8577 54.3013 34.2834 54.0809 34.6683C53.8606 35.0533 53.5643 35.3895 53.2101 35.6565C52.856 35.9236 52.4513 36.1159 52.0206 36.2219C51.5898 36.3279 51.1421 36.3453 50.7044 36.2731C49.8255 36.1471 49.0321 35.6784 48.4976 34.9693C47.963 34.2603 47.7309 33.3685 47.8517 32.4888L48.8377 25.4418C48.8377 25.374 48.9156 25.3842 48.9257 25.3164C48.8681 25.2385 48.8681 25.2385 48.8749 25.1707C49.0218 24.3015 49.4957 23.5214 50.1993 22.9903C50.903 22.4593 51.7831 22.2176 52.6593 22.3147C53.662 22.4675 54.685 22.4198 55.6691 22.1742C56.6532 21.9287 57.5788 21.4903 58.3922 20.8844C59.2056 20.2785 59.8906 19.5171 60.4076 18.6445C60.9245 17.7718 61.2631 16.8052 61.4037 15.8008C61.5443 14.7963 61.484 13.7739 61.2265 12.7928C60.969 11.8118 60.5193 10.8917 59.9035 10.0857C59.2877 9.27978 58.5181 8.60409 57.6392 8.09784C56.7603 7.59158 55.7897 7.26482 54.7836 7.13651C53.468 6.94807 52.1259 7.10937 50.8924 7.60419C49.659 8.09901 48.5775 8.9099 47.7569 9.95531C47.482 10.3081 47.1399 10.603 46.7504 10.823C46.3609 11.0429 45.9318 11.1835 45.4876 11.2368C45.0435 11.29 44.5933 11.2548 44.1628 11.1331C43.7324 11.0114 43.3304 10.8057 42.9798 10.5279C42.6361 10.2541 42.3499 9.91505 42.1378 9.5302C41.9257 9.14535 41.7919 8.72233 41.744 8.28552C41.6962 7.84871 41.7352 7.40675 41.8589 6.9851C41.9826 6.56345 42.1886 6.17045 42.4649 5.82874C43.9337 3.95353 45.8454 2.4726 48.0283 1.51904C50.2111 0.565479 52.5966 0.169152 54.9705 0.365671C57.3444 0.562189 59.6323 1.3454 61.6286 2.64492C63.6249 3.94444 65.2671 5.71957 66.4076 7.8108C67.5481 9.90203 68.1512 12.2438 68.1627 14.6258C68.1742 17.0078 67.5937 19.3554 66.4735 21.4575C65.3532 23.5596 63.7282 25.3505 61.7446 26.6693C59.7609 27.988 57.4807 28.7933 55.1088 29.0127ZM53.032 43.8487L52.8592 45.0683C52.8099 45.5097 52.6713 45.9365 52.4519 46.3226C52.2324 46.7087 51.9366 47.0461 51.5826 47.3142C51.2285 47.5824 50.8236 47.7757 50.3925 47.8823C49.9614 47.9889 49.513 48.0067 49.0748 47.9346C48.195 47.8102 47.4005 47.3419 46.8657 46.6324C46.3309 45.9229 46.0994 45.0302 46.2221 44.1502L46.3915 42.9305C46.5242 42.0547 46.9946 41.2656 47.7019 40.7324C48.4093 40.1992 49.2974 39.9642 50.1759 40.0778C50.6128 40.1339 51.0341 40.2765 51.4152 40.4973C51.7963 40.7181 52.1295 41.0126 52.3954 41.3638C52.6614 41.7148 52.8546 42.1154 52.9639 42.5421C53.0732 42.9688 53.0964 43.4129 53.032 43.8487Z" fill="#EBEBEB"/>
<path d="M22.286 50.0995L23.2719 53.6941C23.3793 54.0494 23.4133 54.4227 23.3719 54.7915C23.3304 55.1603 23.2145 55.5169 23.031 55.8395C22.8475 56.162 22.6004 56.444 22.3046 56.6681C22.0088 56.8922 21.6705 57.0538 21.3103 57.1431C20.5933 57.3396 19.8276 57.2439 19.1811 56.8768C18.5345 56.5097 18.06 55.9013 17.8613 55.1848L16.2791 49.4253C16.2791 49.3745 16.3232 49.3575 16.3062 49.2999C16.2351 49.2627 16.2351 49.2627 16.2181 49.2051C16.0423 48.4884 16.1476 47.7316 16.5124 47.0901C16.8773 46.4487 17.4739 45.9713 18.1798 45.7561C19.0239 45.5621 19.8199 45.1992 20.52 44.6893C21.2201 44.1794 21.8097 43.533 22.2534 42.7891C22.697 42.0453 22.9854 41.2193 23.1013 40.361C23.2172 39.5027 23.1581 38.6298 22.9277 37.7949C22.6972 36.96 22.3001 36.1805 21.7603 35.5031C21.2206 34.8258 20.5492 34.2648 19.7868 33.8538C19.0244 33.4429 18.1867 33.1905 17.3242 33.112C16.4617 33.0334 15.5922 33.1303 14.7681 33.3967C13.6946 33.6874 12.7168 34.2562 11.9334 35.0455C11.15 35.8349 10.5887 36.817 10.3061 37.8926C10.2136 38.2563 10.0496 38.598 9.82374 38.8978C9.59787 39.1975 9.31461 39.4493 8.99046 39.6385C8.66632 39.8277 8.30776 39.9505 7.93569 39.9997C7.56362 40.049 7.18547 40.0237 6.82326 39.9254C6.46836 39.8286 6.13609 39.6626 5.84554 39.437C5.55499 39.2114 5.3119 38.9306 5.13024 38.6107C4.94858 38.2908 4.83193 37.9382 4.78699 37.5731C4.74205 37.208 4.76972 36.8376 4.8684 36.4832C5.37463 34.5543 6.35216 32.7814 7.71314 31.3238C9.07412 29.8662 10.7759 28.7695 12.6656 28.1324C14.5553 27.4952 16.5737 27.3376 18.5394 27.6735C20.5051 28.0094 22.3566 28.8285 23.9274 30.057C25.4982 31.2856 26.7392 32.8852 27.5389 34.712C28.3386 36.5389 28.6718 38.5358 28.5087 40.5233C28.3457 42.5109 27.6914 44.4268 26.6046 46.0988C25.5178 47.7709 24.0327 49.1468 22.2826 50.1029L22.286 50.0995ZM25.613 62.1946L25.8874 63.1873C25.9947 63.5434 26.0283 63.9177 25.9863 64.2872C25.9443 64.6568 25.8275 65.0139 25.643 65.3369C25.4585 65.6599 25.2102 65.942 24.9133 66.1659C24.6163 66.3899 24.2769 66.551 23.9156 66.6396C23.1982 66.8342 22.433 66.7371 21.7869 66.3696C21.1407 66.0021 20.6662 65.394 20.4667 64.678L20.1888 63.6819C20.0034 62.9648 20.1045 62.2037 20.4707 61.5599C20.8369 60.916 21.4394 60.4401 22.1505 60.2329C22.5064 60.1294 22.8795 60.0983 23.2477 60.1413C23.6158 60.1844 23.9716 60.3008 24.2941 60.4837C24.6165 60.6665 24.8991 60.9121 25.125 61.206C25.351 61.4998 25.5157 61.836 25.6096 62.1946H25.613Z" fill="#EBEBEB"/>
<path d="M39.8121 66.26L39.6664 69.0178C39.6568 69.2927 39.5915 69.5628 39.4745 69.8118C39.3574 70.0607 39.1911 70.2833 38.9855 70.466C38.78 70.6488 38.5394 70.7879 38.2785 70.875C38.0176 70.9621 37.7418 70.9953 37.4676 70.9727C36.9175 70.9429 36.4016 70.6961 36.0332 70.2865C35.6648 69.8768 35.474 69.3377 35.5026 68.7875L35.733 64.3831C35.733 64.3424 35.7804 64.3458 35.7838 64.3018C35.7872 64.2577 35.7398 64.2577 35.7431 64.2137C35.7871 63.6686 36.038 63.161 36.4443 62.7949C36.8507 62.4289 37.3817 62.2323 37.9284 62.2453C38.5513 62.2784 39.1746 62.1886 39.7627 61.9808C40.3509 61.7731 40.8924 61.4515 41.3562 61.0345C41.8201 60.6175 42.1973 60.1132 42.4663 59.5504C42.7353 58.9876 42.8908 58.3774 42.924 57.7545C42.9571 57.1316 42.8673 56.5083 42.6595 55.9202C42.4518 55.332 42.1302 54.7905 41.7132 54.3266C41.2962 53.8628 40.7919 53.4856 40.2291 53.2166C39.6663 52.9476 39.0561 52.7921 38.4332 52.7589C37.6097 52.7128 36.7886 52.8841 36.0524 53.2558C35.3161 53.6275 34.6907 54.1864 34.2389 54.8764C34.0886 55.1103 33.8932 55.312 33.6642 55.4696C33.4351 55.6272 33.177 55.7376 32.9048 55.7944C32.6327 55.8511 32.3519 55.8531 32.079 55.8002C31.806 55.7473 31.5463 55.6406 31.3151 55.4863C31.0881 55.3354 30.8933 55.1411 30.7417 54.9146C30.5902 54.6881 30.4849 54.4338 30.432 54.1665C30.3791 53.8991 30.3796 53.624 30.4335 53.3568C30.4873 53.0897 30.5935 52.8358 30.7459 52.6099C31.5535 51.3712 32.6563 50.3527 33.9551 49.6458C35.2539 48.9389 36.708 48.5658 38.1866 48.5601C39.6653 48.5544 41.1222 48.9162 42.4265 49.613C43.7307 50.3099 44.8413 51.3199 45.6585 52.5522C46.4757 53.7846 46.9738 55.2007 47.1082 56.6733C47.2425 58.1458 47.0088 59.6287 46.4281 60.9886C45.8474 62.3485 44.9379 63.5428 43.7813 64.4641C42.6247 65.3854 41.2572 66.0049 39.8019 66.2668L39.8121 66.26ZM39.3209 75.5465L39.2802 76.3088C39.2723 76.5839 39.2086 76.8546 39.093 77.1043C38.9774 77.3541 38.8122 77.5778 38.6076 77.7619C38.4029 77.9459 38.163 78.0865 37.9025 78.1751C37.6419 78.2637 37.366 78.2984 37.0916 78.2772C36.5408 78.2474 36.0244 78.0002 35.6559 77.5897C35.2874 77.1793 35.097 76.6394 35.1265 76.0886L35.1672 75.3263C35.2038 74.7784 35.4525 74.2663 35.8605 73.8988C36.2685 73.5313 36.8037 73.3372 37.3524 73.3578C37.6265 73.369 37.8956 73.4349 38.1438 73.5516C38.392 73.6683 38.6143 73.8335 38.7978 74.0374C38.9812 74.2414 39.122 74.48 39.2118 74.7391C39.3016 74.9983 39.3387 75.2728 39.3209 75.5465Z" fill="#DBDBDB"/>
<path d="M121.466 16.1484H94.3549V43.2591H121.466V16.1484Z" fill="white"/>
<path d="M92.9422 14.7324V44.6618H122.875V14.7324H92.9422ZM121.466 43.2524H94.3618V16.1486H121.466V43.2524Z" fill="#DBDBDB"/>
<path d="M119.511 38.0045V28.6333H98.3798V38.0045H119.511Z" fill="#EBEBEB"/>
<path d="M113.321 35.1178V24.2898H102.493V35.1178H113.321Z" fill="#C7C7C7"/>
<path d="M124.03 14.7358H122.875V44.6686H124.03V14.7358Z" fill="#C7C7C7"/>
<path d="M135.475 55.9878H108.364V83.0984H135.475V55.9878Z" fill="white"/>
<path d="M120.104 60.3245H113.026V80.7743H120.104V60.3245Z" fill="#C7C7C7"/>
<path d="M106.955 54.575V84.5247H136.884V54.575H106.955ZM135.475 83.0984H108.371V55.9945H135.475V83.0984Z" fill="#DBDBDB"/>
<path d="M127.334 64.1292H116.509V74.9537H127.334V64.1292Z" fill="#EBEBEB"/>
<path d="M138.043 54.575H136.888V84.5078H138.043V54.575Z" fill="#C7C7C7"/>
<path d="M2.72055 136.612L19.8773 136.53L37.034 136.5L71.3475 136.442L105.661 136.5L122.818 136.53L139.974 136.612L122.818 136.693L105.661 136.723L71.3475 136.781L37.034 136.723L19.8773 136.693L2.72055 136.612Z" fill="#263238"/>
<path d="M84.1471 70.7085C101.243 88.5733 122.53 125.933 118.345 133.386C113.684 141.677 89.8864 116.639 89.9914 115.199C90.0761 114.112 81.9111 91.4836 75.7043 75.0417C69.4975 58.5998 79.9189 66.2905 84.1471 70.7085Z" fill="#D3766A"/>
<path d="M89.829 115.206C89.1243 112.791 78.0015 82.963 74.8338 73.5342C71.666 64.1055 74.7762 61.2494 84.0965 69.9836C93.4168 78.7178 113.697 107.722 118.19 123.022C122.52 137.76 114.968 137.645 105.105 130.733C97.0284 125.072 89.829 115.206 89.829 115.206Z" fill="#FFC727"/>
<path d="M74.0847 66.1211C74.0204 66.0974 73.956 66.0737 73.8882 66.0432C73.9148 65.9596 73.95 65.879 73.9933 65.8027C74.122 65.8535 74.2541 65.9009 74.3863 65.945C75.4535 66.2838 76.7579 66.3956 77.6963 65.6604C77.8022 65.5775 77.8998 65.4844 77.9877 65.3826L78.2452 65.5113C77.2898 66.6565 75.4535 66.6226 74.0847 66.1211ZM81.4536 67.6796L81.1927 67.473C81.0437 67.5452 80.8946 67.613 80.7455 67.6762C78.6111 68.6147 75.9752 69.5599 74.1288 71.1455L74.2101 71.4843C75.191 70.6382 76.2915 69.9418 77.4761 69.4177C78.7805 68.7875 80.156 68.2895 81.4536 67.6796ZM83.8252 74.0355C84.4543 73.2307 85.1527 72.4825 85.9122 71.7994C85.8444 71.7249 85.7733 71.6537 85.7055 71.5826C83.7574 73.2766 82.3616 75.865 80.5084 77.5082C79.4892 78.4536 78.2645 79.1495 76.9307 79.5409C76.9611 79.629 76.9916 79.7171 77.0255 79.8052C77.9496 79.541 78.8217 79.1205 79.6038 78.5618C81.3554 77.3726 82.5276 75.6617 83.8286 74.0219L83.8252 74.0355ZM93.4504 80.7437C90.6316 84.5687 85.5192 85.4868 81.0335 86.1644C80.4914 86.2458 79.9493 86.3338 79.4073 86.4423C79.4445 86.5405 79.4784 86.6421 79.5157 86.7438C81.4096 86.3576 83.3577 86.1949 85.2414 85.7647C88.382 85.0464 91.6785 83.5591 93.6469 80.9978L93.4504 80.7437ZM97.289 113.719C95.3511 113.234 93.5893 113.878 91.8852 114.779C91.3262 115.077 90.7604 115.393 90.1912 115.687L90.3843 115.938C92.6814 114.756 94.8937 113.282 97.5397 114.142C98.4037 114.424 99.2337 114.976 99.5725 115.836C100.013 116.958 99.5183 118.127 98.7357 118.957C97.6414 120.112 96.1473 120.573 94.7006 121.118L94.9513 121.399L96.2015 120.912C97.926 120.234 99.952 118.974 100.077 116.9C100.169 115.23 98.8068 114.095 97.2924 113.719H97.289ZM90.5469 93.0522C91.9021 91.1244 93.1726 89.1221 94.538 87.191C95.1275 86.3542 95.7475 85.497 96.4251 84.6941L96.232 84.4332C95.8695 84.8601 95.5273 85.2971 95.1953 85.7376C93.8197 87.5637 92.5865 89.4914 91.3059 91.3819C89.3747 94.2312 87.1081 97.4396 84.1335 99.4148C84.1708 99.5199 84.208 99.6215 84.2487 99.7265C86.7964 98.0359 88.8462 95.4441 90.5503 93.0488L90.5469 93.0522ZM91.2245 98.1342C91.1194 98.9615 91.2403 99.8018 91.5743 100.566C91.9084 101.33 92.4431 101.99 93.1218 102.474C94.7006 103.558 96.4657 102.891 97.5872 101.502C98.2648 100.682 98.7289 99.7401 99.3218 98.8728C100.007 97.8526 100.858 96.9538 101.839 96.2132C102.415 95.7864 103.05 95.4442 103.723 95.1968L103.53 94.902C103.11 95.0619 102.706 95.2603 102.324 95.4949C100.409 96.6604 99.2439 98.4594 98.0716 100.306C97.4686 101.248 96.7436 102.251 95.6289 102.606C95.1534 102.739 94.6507 102.742 94.1738 102.614C93.6969 102.486 93.2633 102.231 92.9185 101.878C91.2923 100.36 91.1873 98.0258 92.4137 96.2403C93.7079 94.3498 95.9474 93.3334 98.0649 92.6558C99.149 92.317 100.267 92.0256 101.361 91.6767L101.175 91.4023C98.9729 92.1103 96.625 92.605 94.7379 93.723C93.115 94.6886 91.5396 96.1929 91.2415 98.141L91.2245 98.1342ZM109.181 103.999C108.265 105.104 107.178 106.055 105.962 106.818C103.977 108.135 101.695 108.937 99.3218 109.148C96.9741 109.361 94.6348 108.661 92.7898 107.194C91.1805 105.899 89.7406 104.294 87.6062 103.941C87.0013 103.841 86.3851 103.828 85.7767 103.904C85.8207 104.022 85.8614 104.138 85.9054 104.243C86.7432 104.15 87.5912 104.237 88.3922 104.5C89.517 104.876 90.4453 105.645 91.3262 106.408C92.1449 107.18 93.0445 107.861 94.0095 108.44C94.9587 108.949 95.9914 109.283 97.0586 109.426C99.1882 109.686 101.349 109.394 103.333 108.579C105.478 107.732 107.819 106.275 109.377 104.344L109.181 103.999ZM109.198 133.268C109.513 133.437 109.825 133.606 110.129 133.742C111.175 133.979 112.18 134.37 113.111 134.901C113.504 135.011 113.903 135.097 114.307 135.158C113.276 134.513 112.172 133.994 111.017 133.613C110.425 133.438 109.817 133.324 109.201 133.274L109.198 133.268ZM110.892 107.001L110.743 106.736C107.883 107.349 105.214 109.396 104.15 112.001C103.309 114.058 103.811 116.067 104.699 118.018C105.257 119.109 105.747 120.234 106.166 121.386C106.499 122.445 106.685 123.545 106.718 124.655C106.792 126.797 106.246 128.915 105.146 130.754L105.41 130.937C106.258 129.544 106.788 127.981 106.962 126.359C107.189 124.305 106.897 122.227 106.111 120.315C105.186 118.066 103.614 115.85 104.079 113.295C104.675 110.239 107.7 107.675 110.905 107.007L110.892 107.001ZM118.366 123.68C117.441 123.977 116.492 124.196 115.53 124.333C114.378 124.476 112.989 124.425 112.311 123.317C111.823 122.517 111.912 121.491 112.176 120.63C112.755 118.753 114.273 117.676 115.706 116.487C115.669 116.392 115.625 116.297 115.581 116.202C114.859 116.795 114.1 117.354 113.45 117.978C112.284 119.096 111.417 120.871 111.691 122.517C112.03 124.584 114.131 124.872 115.875 124.601C116.743 124.441 117.599 124.221 118.437 123.944C118.44 123.869 118.406 123.778 118.379 123.686L118.366 123.68Z" fill="white"/>
<path opacity="0.1" d="M105.105 130.733C97.0284 125.076 89.8289 115.206 89.8289 115.206C89.1276 112.791 77.9981 82.9629 74.8337 73.5342C73.6649 70.0479 73.3498 67.4629 73.8918 66.0298L105.105 130.733Z" fill="black"/>
<path d="M89.28 136.551H23.2585C23.2585 136.551 36.763 84.0709 59.0728 62.3539C62.0644 59.4403 73.7157 59.9315 76.4023 64.3189C86.468 80.7744 89.463 136.317 89.28 136.551Z" fill="#FFC727"/>
<path d="M80.8845 107.15C78.2893 110.836 81.1115 115.857 85.2482 116.724C86.0979 116.897 86.9765 116.868 87.8129 116.639L87.8434 116.978C87.0712 117.189 86.2637 117.237 85.4718 117.12C81.7925 116.548 78.6959 112.628 79.6818 108.894C80.4407 105.984 83.4085 103.958 86.3493 103.867C86.3493 103.989 86.3798 104.107 86.3967 104.229C86.1438 104.232 85.8914 104.253 85.6412 104.29C84.6972 104.424 83.7897 104.746 82.9725 105.237C82.1554 105.728 81.4453 106.379 80.8845 107.15ZM26.0941 127.213L25.9924 127.128C25.9552 127.24 25.9213 127.352 25.8874 127.467C28.4657 129.598 28.9976 133.437 29.8243 136.557H30.1631C29.2822 133.288 28.8011 129.517 26.0941 127.213ZM37.1287 108.241C39.1446 108.112 41.1943 107.438 42.4208 105.747C43.3694 104.443 43.864 102.606 43.1627 101.082C42.3496 99.3166 40.3643 98.849 38.589 98.8931C37.8199 98.91 37.061 98.9845 36.3055 99.0692L36.1632 99.408C37.3947 99.2048 38.6475 99.1627 39.8899 99.2827C40.9809 99.4318 42.0549 99.9095 42.6647 100.865C42.9069 101.279 43.0645 101.738 43.1284 102.213C43.1924 102.689 43.1615 103.173 43.0374 103.636C42.5224 105.855 40.7132 107.255 38.5585 107.722C36.651 108.135 34.7097 107.912 32.7989 107.637L32.6769 107.946C34.1476 108.19 35.6387 108.289 37.1287 108.241ZM39.9713 132.936C38.0469 132.597 34.957 134.433 33.9203 131.919C33.1411 130.035 34.2591 127.931 35.4517 126.515C36.9051 124.798 38.7821 123.514 40.6353 122.263C44.0572 119.949 52.3475 112.865 48.3904 109.863C44.7009 107.068 39.9611 115.223 37.1863 117.781C34.7334 120.037 31.1422 122.08 27.6322 122.03L27.5306 122.331C31.0778 122.392 34.5844 120.373 37.2202 118.188C40.6895 115.315 44.108 107.844 48.116 110.134C51.443 112.035 45.2396 118.699 41.8042 121.067C40.0729 122.263 38.2739 123.385 36.6951 124.794C35.2992 126.034 33.9305 127.566 33.507 129.436C33.1953 130.818 33.3545 132.593 34.7605 133.318C35.655 133.782 36.668 133.606 37.6132 133.427C38.8024 133.196 39.917 133.057 41.0215 133.657C41.5728 133.961 42.0558 134.375 42.4404 134.873C42.8251 135.372 43.1032 135.944 43.2576 136.554H43.6201C43.6201 136.554 43.6201 136.554 43.6201 136.537C43.156 134.819 41.7466 133.268 39.9611 132.939L39.9713 132.936ZM64.1242 91.1176C63.2903 90.6369 62.3357 90.4066 61.3744 90.454C60.4131 90.5015 59.4858 90.8248 58.7034 91.3853C57.0094 92.5846 55.9693 94.5226 55.1731 96.3927C54.2855 98.4831 53.4791 100.797 51.7513 102.345C50.8162 103.189 49.3424 103.928 48.1939 103.023C47.4451 102.434 47.1775 101.393 47.1334 100.475C47.0691 98.5102 48.2413 96.6536 49.4136 95.1697C50.6264 93.6281 52.0426 92.2628 53.2657 90.728C54.4007 89.3051 55.3967 87.6789 55.6644 85.8493C55.7965 84.9447 55.6644 83.9656 54.9224 83.3592C54.2816 82.9051 53.4904 82.7158 52.7134 82.8306C50.7891 83.017 49.1459 84.4162 47.9872 85.8798C47.3411 86.7094 46.774 87.5975 46.2932 88.5326C45.7681 89.5321 45.3785 90.5993 44.8466 91.5818C44.2299 92.7337 43.1695 93.2927 41.8889 92.8997C41.0466 92.6215 40.3162 92.0798 39.8052 91.3548C39.7578 91.4531 39.7104 91.5513 39.6663 91.6496C40.6082 92.8049 42.0176 93.7061 43.5185 93.2182C44.4705 92.9065 44.9821 92.046 45.3751 91.1854C45.8291 90.169 46.2695 89.1763 46.8048 88.2142C47.8788 86.2796 49.3729 84.2976 51.4938 83.4405C52.3848 83.0814 53.5266 82.9357 54.4108 83.3998C55.6407 84.0469 55.4848 85.558 55.163 86.6997C54.0856 90.4841 50.5248 92.876 48.387 96.0234C47.4113 97.4667 46.6015 99.2081 46.8319 100.994C47.042 102.6 48.1871 104.094 49.9658 103.704C52.0562 103.25 53.4181 101.044 54.2685 99.2624C55.2375 97.2296 55.888 95.0579 57.2669 93.2555C58.6458 91.4531 60.7633 90.2469 63.0569 91.0296C65.5132 91.8664 66.9192 94.2922 67.0107 96.7891C67.1801 101.353 63.9615 105.13 60.682 107.885C57.5244 110.531 53.9568 112.686 51.0364 115.616C47.8009 118.877 45.6956 123.088 45.0295 127.633C44.6196 130.422 44.6229 133.776 45.7511 136.544H46.178C45.8441 135.724 45.5965 134.871 45.4395 133.999C44.5721 129.344 45.6292 124.303 47.9601 120.22C50.2063 116.287 53.7366 113.594 57.3109 110.941C60.455 108.606 63.7481 106.174 65.7368 102.715C67.8645 99.0659 68.3693 93.4858 64.114 91.121L64.1242 91.1176ZM75.1249 112.662C75.0888 111.627 74.8119 110.615 74.3161 109.705C73.8203 108.796 73.1193 108.015 72.2689 107.424C71.4982 106.895 70.5882 106.605 69.6533 106.591C68.7183 106.577 67.8002 106.84 67.0141 107.346C65.3845 108.39 64.3308 110.236 63.9277 112.089C63.3415 114.783 63.8294 117.547 63.8836 120.264C63.9735 125.474 62.5659 130.6 59.8282 135.033C59.5063 135.551 59.1506 136.049 58.7847 136.55H59.2455C60.3481 135.043 61.2671 133.41 61.983 131.685C62.9744 129.385 63.648 126.961 63.9853 124.479C64.341 121.864 64.175 119.299 64.0361 116.687C63.9039 114.173 63.9853 111.54 65.4523 109.392C66.7431 107.502 68.9995 106.343 71.2389 107.285C73.4784 108.227 74.7353 110.612 74.7828 112.984C74.9183 117.886 71.3948 122.002 68.9791 125.949C67.8272 127.826 66.7939 129.812 66.3094 131.973C65.974 133.48 65.9234 135.036 66.1603 136.561H66.4991C66.2248 134.83 66.3265 133.061 66.7973 131.374C68.0407 126.969 71.283 123.51 73.353 119.516C74.4406 117.388 75.2638 115.057 75.1148 112.665L75.1249 112.662ZM84.967 127.569C83.7067 126.065 81.8806 125.065 79.8851 125.262C78.0555 125.441 76.4496 126.617 76.0566 128.463C75.606 130.598 76.7342 132.814 77.9031 134.524C78.3571 135.202 78.872 135.856 79.3633 136.54H79.7461C78.8246 135.219 77.7913 133.965 77.09 132.505C76.0736 130.391 75.7348 127.491 78.1064 126.132C80.1087 124.977 82.5751 125.648 84.1708 127.166C85.8987 128.812 86.7084 131.164 87.1895 133.444C87.403 134.46 87.5656 135.476 87.7282 136.54H88.0501C87.5554 133.345 87.0743 130.103 84.9569 127.579L84.967 127.569ZM64.1309 60.6089C63.9457 60.627 63.7628 60.6473 63.5821 60.6699C62.8095 61.5709 61.9182 62.363 60.9327 63.0245C59.5765 63.9485 58.0736 64.6358 56.4877 65.0573L56.0743 65.5248C56.4576 65.4469 56.8365 65.3486 57.2093 65.2301C59.6927 64.4305 62.4098 62.8212 64.1309 60.6089ZM64.6053 70.0038C64.1979 69.1926 64.0934 68.2628 64.3105 67.3815C64.69 65.6604 66.0655 63.9935 67.8679 63.7055C70.2022 63.326 72.0453 65.3792 74.0848 66.1211C75.1215 66.5006 76.4225 66.6124 77.4118 66.1482C77.3745 66.0669 77.3339 65.989 77.2966 65.9145C76.4124 66.3617 75.3079 66.2533 74.3864 65.945C72.3129 65.2674 70.6596 63.3599 68.3524 63.387C65.3032 63.4277 62.9655 67.3069 64.2868 70.041C64.7509 70.9897 65.642 71.6334 66.4043 72.311C67.2009 72.9717 67.8389 73.8031 68.2711 74.7435C68.6605 75.626 68.8664 76.5784 68.8763 77.5429C68.8862 78.5074 68.6999 79.4638 68.3286 80.354C67.976 81.2168 67.3831 81.9602 66.6203 82.4959C65.8576 83.0316 64.9571 83.3371 64.0259 83.3761C63.1374 83.3982 62.2555 83.2171 61.4476 82.8466C60.6397 82.4761 59.9271 81.926 59.3641 81.2383C58.8235 80.563 58.5157 79.7312 58.4866 78.8667C58.4561 77.708 58.8931 76.5832 59.1642 75.4787C59.5944 73.8356 59.6588 71.6808 57.7785 70.9287C56.2708 70.3222 54.4854 71.0777 53.3063 72.0365C51.7309 73.3138 51.094 75.3297 50.2131 77.0846C49.2713 78.9582 47.8957 80.7369 45.6563 80.9402C45.514 80.9402 45.3751 80.9605 45.2362 80.9605C45.1752 81.0689 45.1142 81.1807 45.0498 81.2993H45.1379C46.9471 81.3162 48.4581 80.3744 49.505 78.9277C50.7383 77.2337 51.2668 75.1332 52.4593 73.4053C53.4757 71.9383 55.6542 70.5831 57.4905 71.1624C60.1636 72.0061 58.822 75.3127 58.3815 77.1626C57.9818 78.8328 58.1681 80.4082 59.3505 81.716C61.529 84.1181 65.642 84.4264 67.7696 81.8176C69.9515 79.1276 69.484 74.8045 67.0073 72.4634C66.2078 71.6876 65.1575 71.0439 64.6053 70.0038ZM74.3389 79.7577C76.1379 80.4353 78.1233 79.6053 79.6072 78.5787C80.2367 78.1384 80.8182 77.6331 81.3419 77.0711L81.2606 76.7797C81.02 77.0372 80.7693 77.2845 80.5118 77.5149C78.95 78.9006 76.5716 80.293 74.4304 79.4799C72.2248 78.6431 71.7573 76.0682 72.4552 74.0592C73.2412 71.7791 75.3994 70.3968 77.4762 69.421C77.8624 69.2403 78.252 69.0675 78.6451 68.9027C78.6146 68.8146 78.5773 68.7299 78.54 68.6418C75.3621 70.0207 72.0351 71.8062 71.842 75.6143C71.7539 77.3692 72.6144 79.1039 74.3389 79.7577ZM85.5769 98.3307C84.2231 99.5284 82.6222 100.413 80.8879 100.922C78.4655 101.6 76.0092 101.011 74.4711 98.9473C73.8094 98.0219 73.3099 96.9909 72.9939 95.8981C72.5772 94.5429 72.2756 93.0827 72.6551 91.6902C73.2717 89.3525 75.5145 87.8889 77.6964 87.2045C79.5666 86.615 81.5316 86.4185 83.456 86.1034C83.4323 85.995 83.4119 85.8866 83.3916 85.7646C82.5988 85.9069 81.8094 86.0323 81.0403 86.1475C78.7535 86.4863 76.4056 86.9606 74.5422 88.4174C73.6948 89.0411 73.0308 89.8814 72.6201 90.8501C72.2094 91.8188 72.067 92.8802 72.2079 93.9229C72.4755 96.0167 73.3124 98.3273 74.8132 99.8383C76.3141 101.349 78.4147 101.78 80.461 101.346C82.3762 100.895 84.1508 99.9796 85.6277 98.6796C85.604 98.5746 85.5769 98.4526 85.5769 98.3307Z" fill="white"/>
<path d="M117.729 133.003C112.986 137.916 103.52 138.353 76.4938 139.346C72.767 139.485 64.6867 113.353 68.671 113.001C73.692 112.557 93.2711 111.927 94.7076 112.059C106.833 113.194 120.941 129.673 117.729 133.003Z" fill="#D3766A"/>
<path d="M77.3678 113.631C77.3678 113.631 66.7194 111.259 60.7396 111.751C52.7338 112.404 46.09 116.267 43.4033 118.052C37.7962 121.779 26.8022 134.653 29.9767 138.478C32.8396 141.927 43.3965 128.186 43.3965 128.186C43.3965 128.186 30.3189 140.42 34.5268 143.94C38.7347 147.46 50.0844 130.808 50.0844 130.808C50.0844 130.808 36.9322 143.682 41.8448 146.623C45.5716 148.849 56.6876 134.348 56.6876 134.348C56.6876 134.348 45.4564 145.508 49.1764 147.941C53.2894 150.651 64.402 137.909 64.402 137.909C74.9047 142.551 81.8094 140.464 86.5391 138.394C87.6842 137.892 77.3678 113.631 77.3678 113.631Z" fill="#D3766A"/>
<path d="M47.6486 123.663C46.0596 125.045 44.4436 126.434 42.9833 127.952C41.5231 129.47 40.1171 131.038 38.8026 132.695C35.584 136.737 34.2017 139.769 34.3067 139.59C36.8104 135.382 41.9534 129.866 43.4136 128.348C44.8738 126.83 46.2527 125.245 47.7096 123.727C47.7468 123.68 47.6859 123.632 47.6486 123.663Z" fill="#263238"/>
<path d="M53.2252 128.836C51.2737 130.686 49.268 132.454 47.3978 134.392C45.5277 136.33 43.9387 138.316 42.2109 140.369C42.0787 140.525 42.2108 140.545 42.3464 140.392C44.1488 138.41 45.9715 136.716 47.7976 134.758C49.6238 132.8 51.3753 130.764 53.2658 128.88C53.3031 128.85 53.2557 128.809 53.2252 128.836Z" fill="#263238"/>
<path d="M58.812 132.414C55.6849 135.09 53.0525 138.343 50.5521 141.592C50.4268 141.755 50.5962 141.761 50.7317 141.592C53.4218 138.489 55.5054 136.032 58.9035 132.509C58.9577 132.468 58.8764 132.356 58.812 132.414Z" fill="#263238"/>
<path d="M71.7877 112.269L90.713 141.473C90.713 141.473 114.09 139.319 118.447 133.901C121.32 130.337 107.013 112.242 93.5182 112.005L71.7877 112.269Z" fill="#FFC727"/>
<path d="M75.1146 112.665C75.1794 113.992 74.999 115.32 74.5827 116.582L74.3557 116.243C74.6636 115.186 74.8075 114.088 74.7826 112.987C74.7759 112.739 74.7556 112.491 74.7216 112.245H75.0604C75.0875 112.381 75.1056 112.521 75.1146 112.665ZM80.1966 125.252L80.3999 125.563C81.806 125.621 83.1414 126.195 84.1504 127.176C85.8783 128.823 86.688 131.174 87.1691 133.454C87.4096 134.582 87.5824 135.751 87.762 136.927L88.1821 137.577C87.6366 134.05 87.2978 130.374 84.9533 127.579C83.7676 126.16 82.0736 125.18 80.2 125.252H80.1966ZM106.121 120.332C105.444 118.709 104.451 117.107 104.119 115.379L103.804 115.193C103.97 116.175 104.274 117.129 104.709 118.025C105.267 119.116 105.757 120.241 106.176 121.393C106.51 122.452 106.695 123.552 106.728 124.662C106.863 129.124 104.421 133.498 99.9689 134.751C95.9643 135.88 91.421 134.148 90.2996 129.903C89.8041 128.096 90.0061 126.168 90.8654 124.503C92.0003 122.399 94.1009 121.752 96.1947 120.922C97.9191 120.244 99.9452 118.984 100.071 116.91C100.169 115.216 98.8068 114.092 97.2924 113.716C95.3544 113.231 93.5927 113.875 91.8885 114.776C89.8185 115.87 87.6942 117.236 85.2481 116.721C84.0876 116.455 83.0145 115.897 82.1308 115.099C81.2472 114.302 80.5825 113.291 80.2 112.164H79.7901C80.206 113.422 80.9525 114.545 81.9514 115.416C82.9504 116.287 84.1651 116.873 85.4683 117.114C89.8727 117.791 93.1082 112.709 97.5363 114.136C98.4002 114.417 99.2303 114.969 99.5691 115.83C100.01 116.951 99.5149 118.12 98.7323 118.95C97.0179 120.759 94.3279 120.861 92.3629 122.274C89.5745 124.279 89.0697 128.355 90.4859 131.326C92.1562 134.833 96.3437 136.025 99.9147 135.08C103.957 134.01 106.531 130.418 106.979 126.356C107.201 124.308 106.908 122.237 106.125 120.332H106.121ZM114.781 124.699L114.534 124.394C113.663 124.371 112.809 124.123 112.321 123.331C112.019 122.8 111.899 122.184 111.983 121.579L111.688 121.284C111.624 121.697 111.624 122.118 111.688 122.531C111.972 124.164 113.358 124.689 114.785 124.699H114.781ZM111.02 133.62C109.421 133.146 107.544 133.061 105.999 133.776C104.353 134.535 103.655 136.147 103.882 137.916C103.964 138.439 104.077 138.957 104.221 139.468L104.505 139.413C104.167 138.024 103.885 136.639 104.641 135.375C105.617 133.749 107.792 133.444 109.516 133.644C111.678 133.894 113.47 135.107 115.327 136.141L115.696 135.954C114.158 135.104 112.681 134.111 111.02 133.62Z" fill="white"/>
<path d="M108.659 118.587C101.866 113.051 99.5691 112.096 88.8766 111.967C88.7885 111.967 88.7716 112.079 88.8597 112.082C100.585 112.611 105.999 116.944 108.581 118.675C108.649 118.716 108.72 118.638 108.659 118.587Z" fill="#263238"/>
<path d="M97.6687 138.183C95.7613 134.86 93.6743 131.641 91.5703 128.429C89.4664 125.218 87.3862 121.992 85.2111 118.838C83.9813 117.049 82.7616 115.257 81.4843 113.512C81.4504 113.468 81.3657 113.512 81.3962 113.563C83.3003 116.883 85.3737 120.112 87.4438 123.331C89.5138 126.549 91.6245 129.768 93.7624 132.956C94.9719 134.755 96.2119 136.534 97.4891 138.278C97.5671 138.363 97.7263 138.278 97.6687 138.183Z" fill="#263238"/>
<path opacity="0.1" d="M95.6526 112.184L80.0679 125.059L71.7775 112.269L93.5148 112.005C93.7689 112.005 94.0264 112.022 94.2839 112.039L95.5002 112.171L95.6526 112.184Z" fill="black"/>
<path d="M51.104 80.405C48.3292 111.73 52.6659 136.683 65.818 138.482C74.5522 139.674 72.3636 113.187 72.3432 112.621C72.2755 110.683 71.2693 94.5193 65.076 76.9357C58.2628 57.5937 52.344 66.4092 51.104 80.405Z" fill="#D3766A"/>
<path d="M51.104 80.405C48.3292 111.73 52.6659 136.683 65.818 138.482C74.5522 139.674 75.7753 117.337 75.7549 116.772C75.6838 114.834 71.2693 94.5193 65.076 76.9357C58.2628 57.5937 52.344 66.4092 51.104 80.405Z" fill="#FFC727"/>
<path d="M65.8352 79.165C67.7494 85.0635 69.4909 91.0229 71.1815 96.9858C72.7908 102.972 74.5085 108.952 75.5181 115.074C73.2244 104.571 68.6913 89.6982 65.8352 79.1616V79.165Z" fill="#263238"/>
<path d="M67.4546 80.6287C67.8883 82.3227 68.2135 84.1285 67.8138 85.8428C67.8646 84.1251 67.5461 82.343 67.4546 80.6287Z" fill="#263238"/>
<path d="M52.4901 73.4157C52.3376 73.6359 52.1987 73.8595 52.0632 74.0933C52.1332 73.7793 52.2077 73.471 52.2868 73.1683C52.5872 72.7519 52.9402 72.3761 53.3371 72.0503C54.5161 71.0915 56.3016 70.336 57.8092 70.9424C59.6895 71.6946 59.6252 73.8493 59.1949 75.4925C58.9069 76.597 58.4699 77.7218 58.5173 78.8805C58.5465 79.7449 58.8542 80.5768 59.3948 81.2521C59.9578 81.9398 60.6705 82.4899 61.4784 82.8603C62.2863 83.2308 63.1681 83.4119 64.0566 83.3899C65.0996 83.3621 66.1026 82.9824 66.9025 82.3125C66.9398 82.4175 66.9737 82.5225 67.0076 82.631C64.7681 84.3588 61.3259 83.8642 59.3982 81.7399C58.2158 80.4322 58.043 78.8567 58.4292 77.1865C58.8696 75.3366 60.2113 72.03 57.5382 71.1864C55.6849 70.5935 53.5031 71.9487 52.4901 73.4157ZM55.668 85.8597C55.8001 84.9551 55.668 83.976 54.926 83.3695C54.2858 82.911 53.493 82.718 52.7137 82.8308C52.0601 82.8984 51.426 83.0929 50.8469 83.4034C50.8469 83.522 50.8266 83.6406 50.8198 83.7592C51.0381 83.6367 51.2645 83.5292 51.4974 83.4373C52.3884 83.0782 53.5302 82.9325 54.4144 83.3966C55.6443 84.0438 55.4884 85.5548 55.1666 86.6965C54.3772 89.4679 52.2563 91.4939 50.3455 93.6148C50.3455 93.7672 50.3455 93.9197 50.3455 94.0688C51.3178 92.9541 52.3512 91.8937 53.2727 90.735C54.4077 89.3154 55.4004 87.6926 55.668 85.8597ZM65.7608 102.722C67.8647 99.066 68.3695 93.486 64.1142 91.1212C63.2804 90.6405 62.3258 90.4101 61.3645 90.4576C60.4032 90.5051 59.4759 90.8284 58.6935 91.3889C56.9995 92.5882 55.9594 94.5262 55.1632 96.3963C54.2755 98.4867 53.4692 100.801 51.7413 102.349C51.3425 102.714 50.8842 103.009 50.3861 103.22C50.3861 103.342 50.3861 103.46 50.4031 103.579C52.2495 102.935 53.4794 100.916 54.2688 99.2626C55.2377 97.2298 55.8882 95.0581 57.2671 93.2557C58.646 91.4533 60.7635 90.2471 63.0572 91.0298C65.5135 91.8666 66.9195 94.2924 67.011 96.7893C67.1804 101.353 63.9618 105.131 60.6822 107.885C57.6771 110.402 54.3026 112.476 51.4669 115.196C51.4906 115.355 51.5143 115.515 51.5414 115.671C53.35 113.959 55.2744 112.374 57.301 110.927C60.4789 108.613 63.7687 106.181 65.7608 102.722ZM73.36 119.492C74.3764 117.544 75.1455 115.389 75.132 113.177C75.132 113.004 75.1319 112.838 75.115 112.665C75.0603 111.74 74.8303 110.832 74.4374 109.992C73.9612 108.951 73.2046 108.063 72.2522 107.428C71.4815 106.898 70.5715 106.608 69.6366 106.594C68.7016 106.58 67.7834 106.843 66.9974 107.35C65.3678 108.393 64.3141 110.24 63.911 112.093C63.3248 114.786 63.8127 117.551 63.8669 120.268C63.9612 125.475 62.5596 130.599 59.8284 135.033C59.7539 135.155 59.676 135.273 59.5981 135.395C59.6895 135.483 59.7844 135.568 59.8793 135.653C60.6982 134.396 61.4023 133.068 61.9832 131.686C62.9746 129.385 63.6483 126.961 63.9855 124.479C64.3412 121.864 64.1752 119.299 64.0363 116.687C63.9042 114.173 63.9855 111.541 65.4525 109.393C66.7433 107.502 68.9997 106.343 71.2392 107.285C73.4786 108.227 74.7356 110.612 74.783 112.984C74.9185 117.886 71.395 122.003 68.9794 125.95C67.8275 127.827 66.7941 129.812 66.3096 131.973C65.8557 134.023 65.9267 136.155 66.5163 138.17C66.5502 138.292 66.5909 138.414 66.6281 138.536C66.7433 138.536 66.8585 138.536 66.9669 138.512C66.2113 136.201 66.1535 133.718 66.8009 131.374C68.0477 126.956 71.29 123.487 73.36 119.492Z" fill="white"/>
<path d="M50.5077 84.7008C50.4705 92.3475 50.667 100.004 51.3005 107.621C52.1035 117.151 54.3497 137.242 66.5464 138.19C68.4573 138.305 70.219 137.933 71.7639 136.737C74.0779 135.08 76.0125 132.949 77.8623 130.794C81.545 126.444 84.8856 121.616 87.9822 116.924L87.2402 116.168L88.0093 116.897C87.0336 118.55 86.0002 120.166 84.9601 121.772C81.8601 126.397 74.7081 137.018 69.4533 138.539C63.0162 139.966 58.1781 135.544 55.5626 130.09C49.803 117.917 50.1418 98.1816 50.4976 84.6907L50.5077 84.7008Z" fill="#263238"/>
<path d="M49.8778 86.5947C50.0405 88.0448 50.2776 89.444 50.4335 90.8941C49.9088 89.5256 49.7183 88.0516 49.8778 86.5947Z" fill="#263238"/>
<path d="M72.8652 79.104C72.8652 79.104 61.5934 68.791 54.5295 69.2788L48.7055 74.8012C48.7055 74.8012 46.7575 75.5127 46.1036 74.2829C44.4943 71.2337 43.9454 63.7801 50.2064 58.7253C55.9423 54.0871 68.0475 54.5919 76.155 56.4418C83.9473 58.2171 88.3517 62.6181 86.1461 67.7305C83.9405 72.843 72.8652 79.104 72.8652 79.104Z" fill="#FFC727"/>
<path opacity="0.1" d="M73.5597 76.712C73.5597 76.712 82.1991 70.0953 82.9885 66.3143C83.7779 62.5333 76.1549 59.1996 71.2627 57.963C63.6905 56.042 58.5984 56.6959 54.5294 60.8394C50.4605 64.9829 73.5597 76.712 73.5597 76.712Z" fill="black"/>
<path d="M74.8065 75.4518C70.768 75.96 64.6425 69.2145 62.5047 64.0479C62.359 63.7091 63.2501 60.2228 64.1343 55.954C64.6595 53.3622 65.1846 50.4654 65.4726 47.7856C65.5302 47.2333 81.8399 53.6705 81.8399 53.6705C81.8399 53.6705 79.5869 59.1116 79.1126 63.787C79.0804 64.1567 79.0804 64.5285 79.1126 64.8982C79.1126 64.9491 79.1126 65.0134 79.1126 65.0846C79.2312 67.2088 78.7094 74.9572 74.8065 75.4518Z" fill="#D3766A"/>
<path d="M77.3815 64.9862C77.9546 65.0693 78.534 65.101 79.1127 65.081C79.1127 65.0099 79.1127 64.9489 79.1127 64.8947C79.0772 64.5251 79.0772 64.153 79.1127 63.7834C79.5836 59.1148 81.8231 53.6737 81.8231 53.6737C81.8231 53.6737 68.5829 48.4461 65.8996 47.8125C66.1232 50.9633 67.4919 63.7055 77.3815 64.9862Z" fill="#263238"/>
<path d="M60.1263 34.298C59.7028 40.5489 66.7058 56.696 71.7335 59.4911C79.0211 63.5566 89.0122 61.7712 91.9462 53.4604C94.8023 45.4004 85.3024 24.5203 79.8681 22.1826C71.869 18.737 60.7531 25.0624 60.1263 34.298Z" fill="#D3766A"/>
<path d="M78.9636 41.04C78.9365 41.0028 78.8992 41.1281 78.9195 41.1722C79.421 42.2495 79.814 43.5641 78.9839 44.3467C78.9568 44.3738 78.9839 44.4246 79.0178 44.4043C80.1562 43.7199 79.6107 41.9785 78.9636 41.04Z" fill="#263238"/>
<path d="M77.5033 40.3183C75.6942 40.9383 77.0595 44.5126 78.7366 43.94C80.4136 43.3675 79.0212 39.8033 77.5033 40.3183Z" fill="#263238"/>
<path d="M85.699 38.2959C85.699 38.2484 85.804 38.2959 85.821 38.3602C86.2072 39.4816 86.8374 40.6979 87.9859 40.6844C88.0198 40.6844 88.0367 40.7386 87.9859 40.7487C86.712 41.0435 85.8853 39.4173 85.699 38.2959Z" fill="#263238"/>
<path d="M86.2544 36.7542C87.9823 35.9377 89.4899 39.4646 87.8874 40.2099C86.2849 40.9553 84.7942 37.4318 86.2544 36.7542Z" fill="#263238"/>
<path d="M75.9652 40.4606C76.459 40.2856 76.943 40.0843 77.4153 39.8575C77.9709 39.6204 78.4317 39.4882 78.7705 38.9597C78.8511 38.8004 78.8765 38.6188 78.8428 38.4434C78.8091 38.268 78.7181 38.1088 78.5841 37.9908C77.9844 37.513 77.2289 37.635 76.5513 37.8959C75.8593 38.1292 75.2794 38.6125 74.9251 39.2511C74.5558 39.9219 75.2876 40.6706 75.9652 40.4606Z" fill="#263238"/>
<path d="M86.3359 33.7966C85.8187 33.8822 85.2973 33.941 84.774 33.9728C84.1744 34.0338 83.7 34.1422 83.1478 33.8474C82.9999 33.747 82.8892 33.6007 82.8329 33.431C82.7765 33.2614 82.7777 33.0779 82.8361 32.9089C83.1342 32.2009 83.8525 31.9434 84.5674 31.8417C85.2898 31.7139 86.034 31.8601 86.6544 32.2517C87.3048 32.6447 87.027 33.6543 86.3359 33.7966Z" fill="#263238"/>
<path d="M81.8161 51.3226C82.1786 51.4818 82.5818 51.7359 82.9952 51.6173C83.4042 51.4512 83.7736 51.2007 84.0793 50.8821C84.0851 50.8744 84.0934 50.8689 84.1029 50.8667C84.1123 50.8646 84.1222 50.8659 84.1308 50.8704C84.1394 50.8749 84.1461 50.8823 84.1497 50.8913C84.1533 50.9002 84.1536 50.9102 84.1505 50.9194C84.0751 51.1977 83.9261 51.4506 83.7192 51.6515C83.5124 51.8524 83.2552 51.9939 82.9748 52.0611C82.4395 52.1628 82.0262 51.824 81.7281 51.414C81.6874 51.3497 81.7619 51.2921 81.8161 51.3226Z" fill="#263238"/>
<path d="M82.5004 49.571C83.6862 48.4699 85.5496 47.9481 86.7591 47.6466C86.8777 47.5788 86.898 47.2807 86.8709 47.1519L85.8918 44.8413C86.261 44.8752 88.1041 44.9701 87.9076 44.5398C86.2746 40.9824 84.4586 37.0253 82.0837 33.827C82.0693 33.8019 82.0455 33.7834 82.0175 33.7758C81.9896 33.7682 81.9598 33.772 81.9346 33.7864C81.9094 33.8007 81.891 33.8245 81.8834 33.8525C81.8758 33.8804 81.8796 33.9103 81.8939 33.9354C83.3271 37.4149 85.3632 40.6233 86.8607 44.0994C86.2848 44.0994 85.3327 44.0689 84.8957 44.2518C84.7873 44.3298 86.0578 46.6438 86.1628 47.0368C86.1628 47.0368 83.6692 47.2367 82.2971 49.1068C81.938 49.5811 81.9312 50.0961 82.5004 49.571Z" fill="#263238"/>
<path d="M63.7279 49.6286C66.4586 49.3778 67.2413 44.9057 67.2887 43.1236C67.3361 41.3416 64.8358 34.7113 65.1611 31.9433C65.4863 29.1753 68.051 27.3594 70.3108 27.2001C72.5706 27.0409 76.2126 28.7044 77.6593 27.9997C79.106 27.295 78.2353 23.907 79.2788 23.5106C81.5758 22.6399 84.6995 27.3729 86.075 29.7343C86.075 29.7343 83.1106 18.2152 70.9206 21.6032C59.8047 24.6524 59.1575 33.4035 59.4523 36.9948C60.0113 43.8419 63.7279 49.6286 63.7279 49.6286Z" fill="#263238"/>
<path d="M80.0476 48.3512C79.1409 48.6124 78.1791 48.6139 77.2716 48.3555C76.3641 48.0971 75.5473 47.5892 74.9141 46.8896C74.281 46.1899 73.8569 45.3266 73.6901 44.3979C73.5234 43.4692 73.6206 42.5123 73.9708 41.6361C74.3209 40.7599 74.91 39.9995 75.6709 39.4415C76.4318 38.8835 77.3341 38.5503 78.275 38.4797C79.2159 38.4091 80.1578 38.604 80.9935 39.0423C81.8291 39.4805 82.525 40.1445 83.0019 40.9586C83.6758 42.1128 83.8645 43.4871 83.5267 44.7802C83.1888 46.0733 82.3519 47.1796 81.1995 47.8566C80.8373 48.068 80.4504 48.2342 80.0476 48.3512ZM77.4457 39.3087C77.0965 39.4086 76.7617 39.5532 76.4496 39.739C75.4955 40.3015 74.7916 41.2065 74.4814 42.2697C74.1711 43.3329 74.2777 44.4745 74.7796 45.4618C75.2814 46.4492 76.1407 47.2082 77.1825 47.5842C78.2243 47.9603 79.3702 47.9251 80.387 47.4859C81.4038 47.0467 82.2149 46.2364 82.6553 45.2201C83.0956 44.2038 83.1321 43.0579 82.7572 42.0157C82.3823 40.9735 81.6243 40.1134 80.6375 39.6104C79.6506 39.1075 78.5092 38.9996 77.4457 39.3087Z" fill="#EBEBEB"/>
<path d="M90.6893 43.8148C88.8361 44.3501 86.6238 42.9373 85.6074 40.5115C85.0997 39.3608 84.9658 38.0799 85.2245 36.8491C85.3208 36.3206 85.5428 35.8231 85.8719 35.3985C86.2009 34.974 86.6273 34.6348 87.115 34.4097C88.0637 34.01 89.1478 34.1421 90.1811 34.7689C91.2402 35.4463 92.0611 36.4377 92.529 37.6046C93.603 40.1693 92.9254 42.9068 91.018 43.703C90.9112 43.7481 90.8014 43.7854 90.6893 43.8148ZM87.6097 34.9484C87.5268 34.9721 87.4454 35.0004 87.3657 35.0331C86.9764 35.2173 86.6373 35.4928 86.3772 35.8361C86.1171 36.1793 85.9436 36.5803 85.8716 37.0049C85.6447 38.0958 85.7631 39.2302 86.2104 40.2506C87.1455 42.4698 89.1715 43.747 90.7402 43.0864C92.3088 42.4257 92.8204 40.088 91.8887 37.8655C91.4772 36.8297 90.7522 35.9484 89.8152 35.3448C89.4954 35.129 89.134 34.9823 88.7542 34.9141C88.3745 34.8458 87.9847 34.8575 87.6097 34.9484Z" fill="#EBEBEB"/>
<path d="M83.0697 41.5617L82.4701 41.2534C82.9274 40.3658 84.225 38.8819 85.858 39.6238L85.5836 40.237C84.12 39.573 83.1138 41.4974 83.0697 41.5617Z" fill="#EBEBEB"/>
<path d="M62.8774 51.4512L62.1998 51.397C62.2235 51.0853 62.481 48.3139 63.7752 47.5076C64.9847 46.7554 73.641 44.0383 74.0069 43.9231L74.2102 44.5668C71.7268 45.3427 65.0626 47.494 64.1309 48.0768C63.2704 48.6121 62.9248 50.6923 62.8774 51.4512Z" fill="#EBEBEB"/>
<path d="M68.0374 47.5111C68.0374 47.5111 62.8775 43.0457 60.7431 45.0243C58.6086 47.0029 63.4772 54.1447 66.6415 54.4903C69.8059 54.8359 70.1786 51.9087 70.1786 51.9087L68.0374 47.5111Z" fill="#D3766A"/>
<path d="M62.1999 47.0367C62.1891 47.0367 62.1788 47.041 62.1712 47.0486C62.1635 47.0562 62.1593 47.0666 62.1593 47.0773C62.1593 47.0881 62.1635 47.0985 62.1712 47.1061C62.1788 47.1137 62.1891 47.118 62.1999 47.118C64.436 47.4263 65.9809 49.0356 67.2209 50.794C66.4281 50.1977 65.5032 49.9944 64.6799 50.9667C64.6393 51.0176 64.7104 51.0887 64.7646 51.0616C65.5472 50.672 66.1842 50.6652 66.9126 51.187C67.4123 51.5881 67.8667 52.0425 68.2678 52.5422C68.4101 52.698 68.7116 52.5184 68.5896 52.3287C68.5826 52.3129 68.5735 52.2981 68.5625 52.2847C67.9595 49.6996 65.0255 46.5793 62.1999 47.0367Z" fill="#263238"/>
<path d="M73.5599 76.7121C73.5599 76.7121 64.3141 62.1912 53.3371 61.0901L54.5296 69.2788C54.5296 69.2788 61.0481 69.0756 72.8654 79.104L73.5599 76.7121Z" fill="#FFC727"/>
<path d="M51.5886 69.5194C53.5807 69.2043 55.583 69.5804 57.4803 70.1089C59.3811 70.6749 61.2111 71.4558 62.9349 72.4364C64.6725 73.3958 66.3442 74.4699 67.939 75.6516L70.2869 77.4913L72.5534 79.4394L72.8075 79.6596L73.0786 79.5105C75.0816 78.393 77.0059 77.1399 78.8381 75.76C79.765 75.0827 80.6498 74.3495 81.4875 73.5646C82.3332 72.7909 83.1014 71.9365 83.7812 71.0135C82.2159 72.6804 80.3627 73.9983 78.4892 75.2654C77.5473 75.8922 76.5783 76.4817 75.5992 77.0475C74.6201 77.6133 73.6376 78.1858 72.6415 78.6974L73.1633 78.7652L70.8933 76.7493C70.1107 76.109 69.3111 75.4856 68.5217 74.8656C67.7323 74.2456 66.8582 73.7002 66.0011 73.1716C65.1439 72.6431 64.263 72.1146 63.3415 71.6809C61.5317 70.739 59.6086 70.0331 57.6192 69.5804C57.1279 69.4584 56.6198 69.3906 56.1183 69.3059C55.6169 69.2212 55.1019 69.2009 54.5971 69.1941C53.5831 69.1314 52.5658 69.2413 51.5886 69.5194Z" fill="#263238"/>
<path d="M48.7057 74.8012C49.7895 74.0089 50.8184 73.1441 51.7853 72.2127C52.7664 71.2965 53.6833 70.3139 54.5296 69.272C53.4439 70.062 52.4138 70.9257 51.4465 71.857C50.4683 72.7762 49.5526 73.7598 48.7057 74.8012Z" fill="#263238"/>
<path d="M69.3755 73.8187C69.0286 77.2752 68.981 80.7552 69.2332 84.2198C69.3924 86.6388 71.0729 95.2138 73.729 94.6683C76.3852 94.1229 71.5302 88.9088 70.3648 84.4163C69.1857 79.8493 70.1344 76.4681 70.0598 73.7205L69.3755 73.8187Z" fill="#FFC727"/>
<g opacity="0.1">
<path d="M69.3755 73.8187C69.0286 77.2752 68.981 80.7552 69.2332 84.2198C69.3924 86.6388 71.0729 95.2138 73.729 94.6683C76.3852 94.1229 71.5302 88.9088 70.3648 84.4163C69.1857 79.8493 70.1344 76.4681 70.0598 73.7205L69.3755 73.8187Z" fill="black"/>
</g>
<path d="M78.4348 74.249C79.6227 77.166 80.5567 80.1801 81.2265 83.2577C81.711 85.4023 82.453 93.2929 80.0034 93.4995C77.5539 93.7062 80.4371 87.9331 80.2948 83.7184C80.1559 79.4428 78.4619 76.7324 77.8148 74.3371L78.4348 74.249Z" fill="#FFC727"/>
<g opacity="0.1">
<path d="M78.4348 74.249C79.6227 77.166 80.5567 80.1801 81.2265 83.2577C81.711 85.4023 82.453 93.2929 80.0034 93.4995C77.5539 93.7062 80.4371 87.9331 80.2948 83.7184C80.1559 79.4428 78.4619 76.7324 77.8148 74.3371L78.4348 74.249Z" fill="black"/>
</g>
<path d="M68.2642 136.581C75.4738 135.473 87.2877 119.231 94.7752 100.669C96.2015 97.1348 68.7656 82.8477 67.6713 86.7778C64.1885 99.3845 57.3685 115.874 57.5887 126.044C57.7683 133.952 63.2805 137.35 68.2642 136.581Z" fill="#D3766A"/>
<path d="M81.098 73.3987C79.3498 71.2575 79.0822 65.2675 77.5136 61.7373C75.9449 58.207 71.3474 56.5503 70.5377 57.8478C69.728 59.1454 70.9273 60.4532 71.3034 66.2534C71.5439 69.9802 68.6879 77.4338 69.9075 84.2097C70.5208 87.6079 82.8666 75.5399 81.098 73.3987Z" fill="#F7A9A0"/>
<path d="M81.098 73.3987C79.3498 71.2575 79.0822 65.2675 77.5136 61.7373C75.9449 58.207 71.3474 56.5503 70.5377 57.8478C69.728 59.1454 70.9273 60.4532 71.3034 66.2534C71.5439 69.9802 68.6879 77.4338 69.9075 84.2097C70.5208 87.6079 82.8666 75.5399 81.098 73.3987Z" fill="#D3766A"/>
<path opacity="0.06" d="M81.098 73.3987C79.3498 71.2575 79.0822 65.2675 77.5136 61.7373C75.9449 58.207 71.3474 56.5503 70.5377 57.8478C69.728 59.1454 70.9273 60.4532 71.3034 66.2534C71.5439 69.9802 68.6879 77.4338 69.9075 84.2097C70.5208 87.6079 82.8666 75.5399 81.098 73.3987Z" fill="black"/>
<path d="M94.7246 55.1814C97.1741 57.4649 91.0283 63.0245 91.0283 63.0245C91.0283 63.0245 93.261 62.4215 95.2023 63.5056C97.4248 64.7422 96.4559 68.7739 96.4559 68.7739C96.4559 68.7739 98.8444 68.6316 100.779 69.9801C102.788 71.3827 102.388 75.5872 102.388 75.5872C102.388 75.5872 104.685 76.6781 105.519 79.0429C106.948 83.0915 102.47 87.9465 100.301 91.5005C97.9737 95.3052 95.0532 100.028 93.3796 102.373L67.1397 89.0239C67.1397 89.0239 71.6355 68.9569 75.1963 65.5215C78.2082 62.6281 90.9978 51.6883 94.7246 55.1814Z" fill="#D3766A"/>
<path d="M90.9231 63.0076C86.993 65.3182 83.6254 68.5639 80.4204 71.7317C80.4055 71.7465 80.3972 71.7666 80.3972 71.7876C80.3972 71.8085 80.4055 71.8286 80.4204 71.8435C80.4352 71.8583 80.4553 71.8666 80.4763 71.8666C80.4972 71.8666 80.5173 71.8583 80.5322 71.8435C83.6931 68.6554 87.7824 66.2364 91.062 63.1804C91.0849 63.162 91.0996 63.1352 91.1027 63.106C91.1059 63.0768 91.0974 63.0475 91.0789 63.0246C91.0605 63.0016 91.0337 62.987 91.0045 62.9838C90.9753 62.9806 90.946 62.9892 90.9231 63.0076Z" fill="#263238"/>
<path d="M96.1374 68.6284C95.2633 69.1772 94.5755 70.0141 93.8844 70.7662C93.139 71.5759 92.4072 72.4026 91.6923 73.236C90.2558 74.9074 88.8611 76.6139 87.5082 78.3553C87.4472 78.4332 87.5522 78.545 87.62 78.4671C89.0531 76.8036 90.5133 75.1604 92.0244 73.5613C92.7765 72.7595 93.5354 71.9689 94.3011 71.1897C95.0092 70.4545 95.8223 69.7396 96.3576 68.8588C96.3727 68.8443 96.3849 68.827 96.3933 68.8079C96.4017 68.7887 96.4063 68.7681 96.4068 68.7472C96.4073 68.7263 96.4036 68.7054 96.396 68.6859C96.3885 68.6664 96.3771 68.6486 96.3627 68.6335C96.3482 68.6183 96.3309 68.6062 96.3118 68.5978C96.2926 68.5893 96.272 68.5847 96.2511 68.5843C96.2302 68.5838 96.2093 68.5875 96.1898 68.595C96.1703 68.6026 96.1525 68.6139 96.1374 68.6284Z" fill="#263238"/>
<path d="M102.337 75.6551C101.558 76.1023 100.982 77.0103 100.409 77.6879C99.7725 78.4649 99.1299 79.2373 98.4817 80.0053C97.1875 81.54 95.8933 83.0748 94.5449 84.5655C94.4771 84.64 94.5889 84.7518 94.6567 84.6773C96.0322 83.1696 97.428 81.6823 98.79 80.1611C99.4676 79.4158 100.133 78.6659 100.786 77.9115C101.348 77.2712 102.124 76.536 102.415 75.7195C102.419 75.7091 102.419 75.6979 102.416 75.6874C102.413 75.6769 102.407 75.6676 102.398 75.6606C102.39 75.6537 102.379 75.6494 102.369 75.6484C102.358 75.6474 102.347 75.6498 102.337 75.6551Z" fill="#263238"/>
<path d="M91.8074 54.5005C87.3522 56.3435 82.0128 60.2601 78.8823 62.6926C77.7138 63.5984 76.5932 64.5641 75.5248 65.586C74.488 66.6261 73.8105 67.9575 73.1532 69.2619C72.7026 70.1462 72.3197 71.0643 71.9403 71.9723C72.6179 69.6007 73.431 67.0801 75.1182 65.1963C76.1724 64.1205 77.2974 63.1165 78.4859 62.1912C81.6367 59.7688 84.8688 57.3125 88.5346 55.7303L91.8074 54.5005Z" fill="#263238"/>
<path d="M62.0269 94.0991L87.9958 116.91C87.9958 116.91 74.4167 138.858 68.0846 138.427C61.7525 137.997 54.8715 133.898 55.3898 118.676C55.5152 114.864 62.0269 94.0991 62.0269 94.0991Z" fill="#FFC727"/>
<path d="M57.3348 110.951L56.996 111.195C57.0434 111.012 57.0943 110.829 57.1417 110.643C58.3444 109.752 59.5472 108.857 60.6923 107.895C63.5822 105.476 66.4112 102.264 66.9363 98.4087L67.1938 98.6357C66.9576 100.066 66.4677 101.443 65.7472 102.701C63.7686 106.181 60.4789 108.613 57.3348 110.951ZM72.2589 107.431C71.4882 106.901 70.5782 106.612 69.6433 106.598C68.7083 106.584 67.7901 106.847 67.0041 107.353C65.3745 108.396 64.3208 110.243 63.9177 112.096C63.3315 114.79 63.8194 117.554 63.8736 120.271C63.9653 125.426 62.5894 130.501 59.9063 134.904C59.9978 134.999 60.0926 135.09 60.1875 135.178C60.8732 134.059 61.4745 132.891 61.9865 131.682C62.978 129.382 63.6516 126.958 63.9888 124.476C64.3445 121.86 64.1785 119.296 64.0396 116.683C63.9075 114.17 63.9888 111.537 65.4558 109.389C66.7466 107.499 69.003 106.34 71.2425 107.282C73.4819 108.224 74.7355 110.612 74.7829 112.984C74.9184 117.886 71.3949 122.003 68.9793 125.95C67.8274 127.827 66.794 129.812 66.3096 131.973C65.8556 134.023 65.9267 136.155 66.5162 138.17C66.5237 138.199 66.5328 138.227 66.5433 138.255L66.9059 138.312C66.21 136.057 66.1748 133.649 66.8042 131.374C68.0476 126.969 71.2899 123.51 73.36 119.516C74.4407 117.419 75.264 115.081 75.1149 112.689C75.0825 111.65 74.8073 110.633 74.3113 109.719C73.8154 108.806 73.1125 108.021 72.2589 107.427V107.431ZM79.8683 125.275C78.0387 125.455 76.4329 126.631 76.0398 128.477C75.762 129.798 76.0873 131.154 76.6531 132.397C76.731 132.305 76.8157 132.214 76.897 132.122C76.0263 130.056 75.8806 127.42 78.0896 126.146C78.6689 125.823 79.3107 125.629 79.9717 125.575C80.6327 125.521 81.2975 125.61 81.9214 125.834C81.9891 125.743 82.0535 125.651 82.1247 125.56C81.4034 125.297 80.6325 125.198 79.8683 125.272V125.275ZM87.7148 116.667C86.9032 116.868 86.0565 116.883 85.2382 116.711C82.04 116.033 79.6277 112.889 79.8954 109.792L79.5566 109.484C79.0314 113.024 81.9857 116.565 85.4686 117.107C86.3086 117.229 87.1651 117.168 87.9791 116.927L87.996 116.897L87.7148 116.667Z" fill="white"/>
<path d="M61.739 103.535C63.0095 104.595 64.1953 105.767 65.4014 106.899C66.6075 108.031 67.8069 109.179 68.9893 110.341C71.3518 112.665 73.6952 115.007 76.0193 117.365C76.6529 118.012 77.2864 118.659 77.9098 119.319C78.5332 119.98 79.1532 120.814 79.8274 121.508C79.8354 121.52 79.839 121.534 79.8377 121.548C79.8363 121.562 79.8301 121.575 79.8201 121.585C79.8101 121.595 79.7968 121.602 79.7827 121.603C79.7686 121.604 79.7545 121.601 79.7427 121.593C79.1532 121.034 78.4824 120.556 77.8793 120.007C77.2763 119.458 76.6427 118.855 76.0329 118.269C74.8403 117.119 73.6523 115.965 72.4687 114.807C70.0972 112.489 67.7493 110.155 65.4624 107.763C64.1716 106.408 62.8265 105.08 61.617 103.653C61.6013 103.637 61.5927 103.615 61.593 103.593C61.5933 103.57 61.6026 103.549 61.6187 103.533C61.6349 103.517 61.6567 103.509 61.6792 103.509C61.7018 103.509 61.7233 103.519 61.739 103.535Z" fill="#263238"/>
<path d="M64.9676 96.6842L61.9659 94.1704L62.1116 94.1297C60.6852 99.5098 59.1098 104.849 57.6327 110.212C56.9505 112.532 56.3851 114.884 55.9387 117.259C55.5519 120.353 55.5428 123.481 55.9116 126.576C55.1651 123.502 54.9248 120.326 55.2001 117.175C55.9353 111.974 57.6022 106.957 59.1539 101.959C60.0381 99.2659 60.9732 96.5928 61.9862 93.9434L62.0845 94.0315L64.9642 96.6842H64.9676Z" fill="#263238"/>
<path d="M139.422 104.277C134.977 110.294 130.346 117.276 129.217 124.821C129.217 124.933 129.387 124.97 129.414 124.859C129.925 122.801 130.582 120.782 131.379 118.818C134.299 118.015 137.166 117.354 138.7 114.454C140.266 111.473 140.056 107.59 139.768 104.341C139.747 104.175 139.51 104.175 139.422 104.277Z" fill="#FFC727"/>
<path d="M131.423 118.76C133.418 114.281 135.98 109.785 139.236 106.103C139.24 106.098 139.246 106.095 139.253 106.095C139.26 106.094 139.266 106.097 139.271 106.101C139.276 106.106 139.279 106.112 139.279 106.118C139.28 106.125 139.277 106.132 139.273 106.137C137.142 108.762 135.519 111.618 133.937 114.525C135.411 113.031 137.02 111.693 138.416 110.121C138.443 110.087 138.487 110.121 138.46 110.165C137.074 111.825 135.563 113.627 133.764 114.857C133.281 115.747 132.792 116.64 132.297 117.537C132.419 117.469 132.544 117.408 132.666 117.347C132.69 117.347 132.707 117.371 132.687 117.381C132.548 117.452 132.412 117.524 132.27 117.585C132.036 118.008 131.806 118.432 131.565 118.855C131.511 118.936 131.379 118.855 131.423 118.76Z" fill="#263238"/>
<path d="M132.907 117.198C134.101 116.528 135.242 115.767 136.319 114.922C136.346 114.898 136.39 114.922 136.359 114.962C135.322 115.862 134.185 116.64 132.971 117.283C132.9 117.31 132.853 117.229 132.907 117.198Z" fill="#263238"/>
<path d="M128.702 123.7C128.702 123.791 128.869 123.788 128.865 123.7C128.889 121.217 128.865 118.72 128.906 116.223C129.543 114.939 130.908 114.227 131.86 113.201C132.543 112.447 133.137 111.619 133.632 110.731C134.776 108.609 135.476 106.277 135.689 103.877C135.949 101.221 134.94 92.4492 133.822 92.7541C133.239 92.9099 131.359 97.2567 130.861 98.6898C130.052 101.059 129.46 103.497 129.092 105.974C128.184 111.811 128.265 117.815 128.702 123.7Z" fill="#FFC727"/>
<path d="M128.685 112.984C128.821 109.84 129.529 106.665 130.19 103.616C130.905 100.33 131.741 97.2363 133.432 94.3057C133.463 94.2515 133.544 94.3057 133.513 94.3566C132.387 96.6357 131.514 99.0318 130.911 101.502C131.027 101.322 131.162 101.163 131.281 100.987C131.328 100.922 131.437 100.987 131.389 101.051C131.239 101.317 131.062 101.567 130.861 101.797C130.854 101.799 130.847 101.799 130.84 101.797C130.258 104.144 129.841 106.54 129.485 108.942L129.566 108.85C129.583 108.83 129.614 108.85 129.604 108.877C129.56 108.959 129.509 109.037 129.461 109.118C129.278 110.334 129.123 111.547 128.946 112.75C131.111 110.9 132.958 108.718 134.001 106.028C134.001 106.028 134.028 106.028 134.022 106.028C133.005 108.816 131.389 111.293 128.909 112.987C128.865 113.326 128.821 113.634 128.774 113.956C128.774 114.024 128.658 114.007 128.658 113.956C128.658 113.668 128.658 113.38 128.685 113.095C128.676 113.09 128.667 113.082 128.662 113.072C128.656 113.062 128.653 113.051 128.653 113.04C128.653 113.028 128.656 113.017 128.662 113.007C128.667 112.997 128.676 112.989 128.685 112.984Z" fill="#263238"/>
<path d="M129.705 108.423C131.362 105.954 132.907 103.555 134.11 100.828C134.11 100.797 134.178 100.828 134.164 100.848C133.148 103.558 131.714 106.309 129.783 108.488C129.749 108.532 129.672 108.474 129.705 108.423Z" fill="#263238"/>
<path d="M131.904 100.218C132.582 99.0049 133.314 97.8225 133.957 96.5859C133.978 96.552 134.025 96.5859 134.008 96.6164C133.481 97.9074 132.812 99.1358 132.013 100.279C131.965 100.34 131.867 100.286 131.904 100.218Z" fill="#263238"/>
<path d="M131.654 100.743V100.767C131.654 100.767 131.622 100.743 131.654 100.743Z" fill="#263238"/>
<path d="M127.022 116.514C126.989 118.161 126.795 119.801 126.443 121.41C126.466 121.586 126.494 121.749 126.517 121.945C127.026 120.167 127.321 118.335 127.395 116.487C127.41 116.461 127.418 116.432 127.418 116.402C127.418 116.372 127.41 116.343 127.395 116.318C127.468 113.839 127.287 111.36 126.853 108.918C126.084 104.355 124.403 99.9706 121.218 96.5487C121.192 96.5291 121.162 96.5152 121.13 96.5081C121.098 96.5011 121.065 96.5009 121.033 96.5076C121.001 96.5143 120.971 96.5278 120.944 96.5472C120.918 96.5665 120.896 96.5913 120.88 96.6199C119.596 99.8893 120.043 103.789 121.137 107.048C121.733 108.813 122.584 110.481 123.665 111.998C124.742 113.536 126.134 114.834 127.022 116.514Z" fill="#FFC727"/>
<path d="M121.595 98.0766C124.613 102.976 126.714 108.783 126.968 114.569C126.968 114.671 126.802 114.698 126.788 114.593C126.717 114.075 126.636 113.56 126.555 113.048C125.304 111.852 124.024 110.592 123.129 109.094C123.129 109.071 123.153 109.037 123.173 109.064C124.211 110.334 125.322 111.542 126.5 112.682C126.274 111.404 126.016 110.145 125.724 108.905C125.643 108.81 125.565 108.715 125.484 108.623C125.403 108.532 125.521 108.471 125.575 108.535L125.647 108.613C125.222 106.912 124.695 105.239 124.068 103.602C123.302 102.688 122.442 101.908 121.883 100.79C121.88 100.785 121.88 100.779 121.882 100.774C121.884 100.768 121.887 100.763 121.892 100.761C121.897 100.758 121.903 100.757 121.909 100.758C121.915 100.759 121.92 100.762 121.923 100.767C122.374 101.4 122.807 102.034 123.319 102.62C123.522 102.854 123.746 103.07 123.956 103.297C123.262 101.521 122.437 99.799 121.489 98.1443C121.487 98.1312 121.489 98.1176 121.494 98.1054C121.499 98.0932 121.508 98.0828 121.519 98.0755C121.531 98.0683 121.544 98.0645 121.557 98.0647C121.571 98.0649 121.584 98.069 121.595 98.0766Z" fill="#263238"/>
<path d="M122.204 104.121C123.18 105.432 124.291 106.686 125.199 108.044C125.226 108.081 125.169 108.122 125.135 108.092C123.97 106.997 122.984 105.507 122.14 104.158C122.113 104.117 122.167 104.08 122.204 104.121Z" fill="#263238"/>
<path d="M125.335 108.346L125.376 108.39C125.406 108.417 125.376 108.461 125.332 108.434L125.291 108.393C125.26 108.363 125.308 108.319 125.335 108.346Z" fill="#263238"/>
<path d="M116.865 107.495C117.109 110.016 118.434 113.024 120.05 114.966C120.761 115.811 121.641 116.498 122.635 116.982C123.753 117.537 124.925 118.174 126.08 118.628C126.631 120.028 127.04 121.48 127.3 122.961L127.412 122.579C126.67 116.199 122.54 110.744 117.248 107.245C117.207 107.22 117.16 107.207 117.112 107.208C117.064 107.209 117.018 107.224 116.978 107.25C116.938 107.276 116.906 107.313 116.886 107.356C116.866 107.4 116.859 107.448 116.865 107.495Z" fill="#FFC727"/>
<path d="M118.691 109.379C118.654 109.345 118.691 109.281 118.745 109.311C121.647 111.468 123.961 114.32 125.474 117.605C125.511 117.69 125.392 117.768 125.342 117.68C125.098 117.249 124.847 116.833 124.593 116.419C123.387 116.192 122.245 115.342 121.351 114.535C121.327 114.515 121.351 114.481 121.384 114.502C121.846 114.922 122.36 115.281 122.912 115.572C123.404 115.823 123.929 115.979 124.444 116.179C123.992 115.472 123.526 114.794 123.045 114.146C121.743 113.652 120.522 112.967 119.423 112.113C119.418 112.111 119.414 112.109 119.411 112.105C119.407 112.102 119.405 112.097 119.403 112.093C119.401 112.088 119.401 112.083 119.401 112.078C119.402 112.073 119.403 112.068 119.406 112.064C119.408 112.06 119.412 112.056 119.416 112.054C119.42 112.051 119.424 112.049 119.429 112.048C119.434 112.047 119.439 112.047 119.444 112.049C119.448 112.05 119.453 112.052 119.457 112.055C120.546 112.715 121.67 113.316 122.824 113.854C122.089 112.885 121.297 111.96 120.453 111.083C120.043 110.866 119.626 110.649 119.23 110.406C119.223 110.401 119.218 110.394 119.216 110.387C119.214 110.379 119.214 110.371 119.218 110.364C119.221 110.356 119.227 110.35 119.234 110.347C119.241 110.343 119.249 110.343 119.257 110.345C119.587 110.461 119.902 110.615 120.195 110.805C119.707 110.321 119.216 109.843 118.691 109.379Z" fill="#263238"/>
<path d="M118.803 111.581C118.874 111.624 118.942 111.673 119.006 111.727C119.026 111.727 119.006 111.771 118.979 111.761C118.91 111.721 118.843 111.677 118.779 111.628C118.732 111.628 118.779 111.557 118.803 111.581Z" fill="#263238"/>
<path d="M135.655 136.781H121.181L122.35 123.602L122.607 120.695H134.232L134.486 123.602L135.655 136.781Z" fill="#455A64"/>
<path d="M134.486 123.602H122.35L122.607 120.695H134.232L134.486 123.602Z" fill="#263238"/>
<path d="M134.923 118.662H121.917V121.538H134.923V118.662Z" fill="#455A64"/>
<path d="M107.236 33.5965C107.296 34.296 107.147 34.9974 106.808 35.6122C106.469 36.227 105.955 36.7275 105.332 37.0506C104.709 37.3736 104.004 37.5047 103.306 37.4272C102.609 37.3496 101.949 37.067 101.412 36.6151C100.875 36.1631 100.484 35.5621 100.288 34.8879C100.093 34.2137 100.101 33.4967 100.313 32.8274C100.525 32.1581 100.93 31.5666 101.478 31.1276C102.026 30.6886 102.691 30.4218 103.391 30.361C103.856 30.3206 104.324 30.3722 104.769 30.513C105.214 30.6538 105.627 30.8809 105.984 31.1814C106.341 31.4819 106.636 31.8499 106.851 32.2643C107.065 32.6788 107.196 33.1314 107.236 33.5965Z" fill="white"/>
<path d="M107.236 33.5967C107.541 36.7543 103.784 38.7532 101.317 36.7305C100.944 36.4198 100.635 36.0379 100.41 35.6072C100.185 35.1764 100.047 34.7052 100.005 34.2209C99.9635 33.7366 100.018 33.2488 100.166 32.7858C100.314 32.3227 100.552 31.8936 100.867 31.5232C102.947 29.1042 106.996 30.4289 107.236 33.5967ZM107.236 33.5967C106.962 30.5034 103.032 29.3041 101.09 31.7096C100.525 32.4077 100.252 33.2975 100.329 34.1925C100.405 35.0875 100.825 35.9181 101.5 36.5103C103.825 38.5431 107.494 36.6865 107.233 33.5967H107.236Z" fill="#263238"/>
<path d="M97.8245 37.2826C97.8579 37.6718 97.7752 38.0622 97.5867 38.4043C97.3983 38.7465 97.1127 39.0251 96.7659 39.2049C96.4191 39.3847 96.0268 39.4577 95.6386 39.4146C95.2504 39.3715 94.8837 39.2143 94.5848 38.9628C94.2859 38.7113 94.0683 38.3768 93.9595 38.0016C93.8507 37.6265 93.8556 37.2275 93.9736 36.8551C94.0915 36.4827 94.3172 36.1537 94.6221 35.9095C94.9271 35.6654 95.2975 35.5172 95.6867 35.4836C96.2086 35.4395 96.7267 35.604 97.1274 35.9413C97.5282 36.2785 97.7789 36.7609 97.8245 37.2826Z" fill="white"/>
<path d="M97.8242 37.2827C97.8522 37.6231 97.7952 37.9651 97.6584 38.2781C97.5215 38.5911 97.3091 38.8652 97.0403 39.0758C96.7714 39.2865 96.4544 39.4271 96.1177 39.485C95.7811 39.5429 95.4354 39.5163 95.1115 39.4077C94.7877 39.299 94.4959 39.1117 94.2623 38.8624C94.0288 38.6132 93.8607 38.3099 93.7733 37.9797C93.6859 37.6495 93.6818 37.3027 93.7614 36.9706C93.8411 36.6384 94.0019 36.3312 94.2296 36.0765C94.4992 35.7791 94.8496 35.5664 95.2379 35.4645C95.6262 35.3626 96.0358 35.3758 96.4168 35.5026C96.7978 35.6293 97.1336 35.8641 97.3835 36.1784C97.6334 36.4926 97.7865 36.8728 97.8242 37.2725V37.2827ZM97.8242 37.2827C97.5261 34.7857 93.9145 35.1177 94.0568 37.6214C94.3448 40.1015 97.9597 39.8067 97.8242 37.2827Z" fill="#263238"/>
<path d="M138.253 18.3676C138.472 20.1718 138.213 22.0017 137.502 23.6743C136.791 25.3468 135.653 26.8032 134.202 27.8976C132.751 28.9921 131.038 29.6861 129.235 29.9104C127.431 30.1346 125.6 29.8811 123.926 29.1752C123.111 30.2387 122.063 31.0999 120.861 31.6917C119.659 32.2834 118.337 32.5897 116.998 32.5868C115.659 32.5838 114.338 32.2717 113.139 31.6747C111.94 31.0776 110.895 30.2118 110.086 29.1447C109.706 29.2607 109.317 29.3423 108.924 29.3887C107.569 29.5536 106.196 29.3224 104.971 28.7231C103.745 28.1239 102.719 27.1823 102.018 26.0122C101.316 24.8422 100.969 23.4938 101.018 22.1305C101.067 20.7671 101.51 19.4471 102.293 18.3303C100.762 16.3862 99.9758 13.9585 100.078 11.4856C100.18 9.01279 101.163 6.65792 102.849 4.84641C104.535 3.0349 106.814 1.88619 109.273 1.60778C111.732 1.32938 114.21 1.93964 116.259 3.32832C117.218 2.12832 118.479 1.20394 119.912 0.649207C121.345 0.0944733 122.899 -0.0708253 124.417 0.170125C125.935 0.411076 127.361 1.04968 128.552 2.02098C129.743 2.99228 130.655 4.26163 131.196 5.69991C131.558 5.57671 131.931 5.49155 132.311 5.44581C133.465 5.3046 134.634 5.52019 135.662 6.06357C136.69 6.60694 137.527 7.45204 138.06 8.4852C138.593 9.51836 138.797 10.69 138.645 11.8426C138.492 12.9952 137.99 14.0734 137.206 14.9322C137.757 16.0061 138.111 17.1694 138.253 18.3676Z" fill="white"/>
<path d="M138.253 18.3676C138.473 20.1761 138.214 22.0104 137.503 23.6876C136.792 25.3648 135.653 26.8261 134.201 27.9257C132.748 29.0253 131.033 29.7247 129.226 29.9541C127.418 30.1834 125.583 29.9348 123.902 29.2329L123.973 29.2126C123.153 30.2877 122.096 31.1592 120.884 31.7591C119.673 32.3589 118.339 32.671 116.987 32.671C115.635 32.671 114.301 32.3589 113.089 31.7591C111.877 31.1592 110.821 30.2877 110.001 29.2126L110.116 29.2498C109.587 29.4126 109.039 29.5071 108.486 29.531C102.517 29.9003 98.7459 23.1447 102.178 18.2423V18.4252C97.0621 12.0118 101.118 2.37976 109.262 1.48533C111.749 1.20733 114.253 1.82999 116.319 3.2403L116.18 3.26402C120.412 -2.01784 128.879 -0.659263 131.247 5.67965L131.182 5.64916C131.63 5.49593 132.096 5.40584 132.568 5.38151C133.71 5.29676 134.851 5.55664 135.843 6.12749C136.835 6.69835 137.634 7.55392 138.134 8.58346C138.635 9.613 138.815 10.7691 138.652 11.9022C138.488 13.0353 137.988 14.0932 137.216 14.939C137.77 16.0086 138.122 17.1708 138.257 18.3676H138.253ZM138.253 18.3676C138.107 17.1678 137.749 16.0034 137.196 14.9288C138.031 13.9969 138.534 12.8146 138.627 11.5667C138.719 10.3187 138.396 9.07524 137.707 8.03046C137.018 6.98569 136.003 6.19839 134.819 5.79149C133.636 5.3846 132.351 5.38101 131.166 5.78129C128.838 -0.462759 120.487 -1.82473 116.336 3.4097L116.279 3.48424L116.197 3.43003C114.172 2.0538 111.718 1.4525 109.286 1.73604C101.372 2.65079 97.5059 11.9847 102.415 18.2389L102.486 18.3304L102.422 18.4218C99.1017 23.1277 102.72 29.6428 108.473 29.3142C109.034 29.291 109.59 29.1942 110.126 29.0262C110.921 30.0961 111.953 30.9672 113.141 31.571C114.329 32.1748 115.641 32.4948 116.973 32.506C118.306 32.5171 119.623 32.2191 120.821 31.6353C122.019 31.0515 123.066 30.1979 123.878 29.1414L123.908 29.1041L123.949 29.1245C125.618 29.8279 127.442 30.0814 129.24 29.8594C131.037 29.6375 132.745 28.9479 134.192 27.8597C135.64 26.7714 136.777 25.3224 137.489 23.6574C138.202 21.9924 138.465 20.1696 138.253 18.371V18.3676Z" fill="#263238"/>
<path d="M120.558 17.7985L120.473 19.2316C120.469 19.3744 120.436 19.5149 120.376 19.6444C120.315 19.7739 120.229 19.8898 120.123 19.9849C120.016 20.0801 119.891 20.1525 119.756 20.1977C119.62 20.2429 119.477 20.2601 119.335 20.248C119.049 20.2314 118.782 20.1023 118.591 19.8889C118.401 19.6755 118.303 19.3953 118.318 19.1097L118.447 16.8194C118.447 16.7957 118.471 16.7991 118.474 16.7753C118.478 16.7516 118.44 16.7652 118.44 16.7313C118.464 16.4483 118.595 16.185 118.807 15.9958C119.018 15.8067 119.295 15.7061 119.579 15.7149C119.909 15.7437 120.241 15.7059 120.556 15.6038C120.871 15.5017 121.163 15.3374 121.413 15.1206C121.663 14.9037 121.868 14.6388 122.014 14.3416C122.16 14.0443 122.245 13.7207 122.263 13.39C122.282 13.0593 122.234 12.7283 122.122 12.4165C122.01 12.1047 121.837 11.8186 121.613 11.575C121.388 11.3314 121.117 11.1354 120.815 10.9986C120.514 10.8618 120.188 10.787 119.857 10.7786C119.429 10.7533 119.002 10.8411 118.619 11.0332C118.236 11.2254 117.91 11.515 117.675 11.8729C117.6 11.9992 117.501 12.109 117.383 12.1958C117.265 12.2826 117.13 12.3445 116.987 12.3778C116.845 12.4111 116.697 12.4151 116.552 12.3896C116.408 12.364 116.27 12.3095 116.147 12.2292C116.025 12.149 115.92 12.0447 115.838 11.9226C115.757 11.8006 115.702 11.6634 115.675 11.5192C115.648 11.3751 115.651 11.227 115.683 11.084C115.715 10.941 115.776 10.806 115.862 10.6871C116.284 10.0449 116.859 9.5176 117.536 9.15262C118.212 8.78765 118.968 8.59644 119.737 8.59619C120.505 8.59594 121.262 8.78665 121.938 9.15118C122.615 9.51571 123.19 10.0426 123.613 10.6846C124.035 11.3266 124.291 12.0634 124.359 12.829C124.426 13.5946 124.302 14.3648 123.997 15.0705C123.693 15.7762 123.218 16.3953 122.616 16.8721C122.013 17.3488 121.301 17.6683 120.544 17.8019L120.558 17.7985ZM120.287 22.623L120.263 23.0194C120.259 23.162 120.225 23.3022 120.165 23.4315C120.104 23.5608 120.018 23.6765 119.912 23.7715C119.805 23.8666 119.681 23.939 119.545 23.9844C119.41 24.0299 119.267 24.0473 119.125 24.0358C118.839 24.0174 118.572 23.8873 118.382 23.6736C118.192 23.4599 118.094 23.1798 118.108 22.894L118.132 22.4976C118.152 22.2133 118.282 21.9481 118.495 21.7583C118.707 21.5685 118.986 21.4691 119.27 21.4812C119.413 21.4877 119.552 21.5225 119.681 21.5838C119.81 21.645 119.925 21.7314 120.019 21.8378C120.114 21.9442 120.187 22.0685 120.233 22.2033C120.278 22.3382 120.297 22.4809 120.287 22.623Z" fill="#FFC727"/>
</svg>
