<svg width="33" height="33" viewBox="0 0 33 33" fill="none" xmlns="http://www.w3.org/2000/svg">
<path d="M16.1288 0.211602C14.8094 0.200094 13.5479 0.295774 12.4366 0.477127C9.16298 1.01045 8.55387 2.2102 8.52409 4.43736L8.48477 7.37877L16.2026 7.48195L16.1895 8.46242L5.57523 8.32052C3.33221 8.29053 1.35014 9.61245 0.701527 12.1689C-0.0463946 15.0992 -0.102351 16.9332 0.596664 20.0127C1.11473 22.3049 2.40312 23.9504 4.64613 23.9804L7.29969 24.0159L7.34683 20.4898C7.38089 17.9424 9.61499 15.7249 12.2323 15.7598L19.9411 15.8629C22.087 15.8916 23.8237 14.1477 23.8525 11.9926L23.9507 4.6436C23.9787 2.55203 22.2352 0.957262 20.1455 0.580186C18.8226 0.341764 17.4483 0.223111 16.1288 0.211602ZM11.9235 2.52152C12.7207 2.53218 13.3628 3.20254 13.352 4.01608C13.3411 4.82675 12.6814 5.47359 11.8842 5.46293C11.0841 5.45223 10.4447 4.78803 10.4555 3.97736C10.4664 3.16381 11.1234 2.51083 11.9235 2.52152Z" fill="url(#paint0_linear_164_93)"/>
<path d="M24.8608 8.57835L24.815 12.0055C24.7794 14.6625 22.4969 16.8687 19.9282 16.8344L12.2193 16.7313C10.1078 16.7031 8.33626 18.487 8.30799 20.6016L8.20974 27.9506C8.18178 30.0422 9.9841 31.2968 12.0162 31.9241C14.4496 32.6751 16.7906 32.8362 19.725 32.0272C21.6756 31.4906 23.6066 30.384 23.6364 28.1569L23.6757 25.2155L15.9669 25.1124L15.98 24.1319L27.5477 24.2866C29.7907 24.3166 30.6475 22.7632 31.4589 20.4253C32.297 18.0185 32.2938 15.6932 31.5638 12.5815C31.0393 10.3412 30.0031 8.64709 27.7572 8.61707L24.8608 8.57835ZM20.2763 27.1313C21.0764 27.142 21.7158 27.8062 21.7049 28.6169C21.6941 29.4304 21.0371 30.0834 20.237 30.0727C19.4398 30.0621 18.7976 29.3917 18.8085 28.5781C18.8193 27.7675 19.4791 27.1206 20.2763 27.1313Z" fill="url(#paint1_linear_164_93)"/>
<defs>
<linearGradient id="paint0_linear_164_93" x1="0.320801" y1="-1.14653e-07" x2="24.1125" y2="20.8022" gradientUnits="userSpaceOnUse">
<stop stop-color="#5A9FD4"/>
<stop offset="1" stop-color="#306998"/>
</linearGradient>
<linearGradient id="paint1_linear_164_93" x1="20.0745" y1="28.3477" x2="13.8095" y2="19.3155" gradientUnits="userSpaceOnUse">
<stop stop-color="#FFD43B"/>
<stop offset="1" stop-color="#FFE873"/>
</linearGradient>
</defs>
</svg>
