<svg width="32" height="28" viewBox="0 0 32 28" fill="none" xmlns="http://www.w3.org/2000/svg">
<path d="M16.0001 16.8499C17.5742 16.8499 18.8501 15.5739 18.8501 13.9999C18.8501 12.4259 17.5742 11.1499 16.0001 11.1499C14.4261 11.1499 13.1501 12.4259 13.1501 13.9999C13.1501 15.5739 14.4261 16.8499 16.0001 16.8499Z" fill="#61DAFB"/>
<path d="M26.8251 9.2999C26.2751 9.0999 25.7001 8.8999 25.1001 8.7249C25.2501 8.1249 25.3751 7.5249 25.4751 6.9499C26.0001 3.6499 25.4251 1.3249 23.8251 0.424902C23.3501 0.149902 22.8251 0.0249023 22.2251 0.0249023C20.4751 0.0249023 18.2501 1.3249 16.0001 3.4999C13.7501 1.3249 11.5251 0.0249023 9.7751 0.0249023C9.1751 0.0249023 8.6501 0.149902 8.1751 0.424902C6.5751 1.3499 6.0001 3.6749 6.5251 6.9499C6.6251 7.5249 6.7501 8.1249 6.9001 8.7249C6.3001 8.8999 5.7251 9.0749 5.1751 9.2999C2.0501 10.4999 0.350098 12.1499 0.350098 13.9999C0.350098 15.8499 2.0751 17.4999 5.1751 18.6999C5.7251 18.8999 6.3001 19.0999 6.9001 19.2749C6.7501 19.8749 6.6251 20.4749 6.5251 21.0499C6.0001 24.3499 6.5751 26.6749 8.1751 27.5749C8.6501 27.8499 9.1751 27.9749 9.7751 27.9749C11.5501 27.9749 13.7751 26.6749 16.0001 24.4999C18.2501 26.6749 20.4751 27.9749 22.2251 27.9749C22.8251 27.9749 23.3501 27.8499 23.8251 27.5749C25.4251 26.6499 26.0001 24.3249 25.4751 21.0499C25.3751 20.4749 25.2501 19.8749 25.1001 19.2749C25.7001 19.0999 26.2751 18.9249 26.8251 18.6999C29.9501 17.4999 31.6501 15.8499 31.6501 13.9999C31.6501 12.1499 29.9501 10.4999 26.8251 9.2999ZM23.1251 1.6749C24.1501 2.2749 24.5001 4.1249 24.0751 6.7499C24.0001 7.2749 23.8751 7.8249 23.7251 8.3999C22.4251 8.0999 21.0501 7.8999 19.6001 7.7749C18.7501 6.5749 17.8751 5.4999 17.0001 4.5249C18.8501 2.6999 20.7251 1.4499 22.2501 1.4499C22.5751 1.4499 22.8751 1.5249 23.1251 1.6749ZM20.3251 16.4999C19.8751 17.2999 19.3501 18.0999 18.8001 18.8999C17.8751 18.9749 16.9501 18.9999 16.0001 18.9999C15.0251 18.9999 14.1001 18.9749 13.2001 18.8999C12.6501 18.0999 12.1501 17.2999 11.7001 16.4999C11.2251 15.6749 10.7751 14.8249 10.3751 13.9999C10.7751 13.1749 11.2251 12.3249 11.7001 11.4999C12.1501 10.6999 12.6751 9.8999 13.2251 9.0999C14.1501 9.0249 15.0751 8.9999 16.0251 8.9999C17.0001 8.9999 17.9251 9.0249 18.8251 9.0999C19.3751 9.8999 19.8751 10.6999 20.3251 11.4999C20.8001 12.3249 21.2501 13.1749 21.6501 13.9999C21.2251 14.8249 20.8001 15.6499 20.3251 16.4999ZM22.4001 15.6749C22.7751 16.5499 23.0751 17.3999 23.3501 18.2499C22.5001 18.4499 21.6001 18.5999 20.6501 18.7249C20.9501 18.2499 21.2751 17.7499 21.5501 17.2249C21.8501 16.6999 22.1251 16.1749 22.4001 15.6749ZM16.0001 22.4499C15.4001 21.7999 14.8251 21.0999 14.2751 20.3749C14.8501 20.3999 15.4251 20.4249 16.0001 20.4249C16.5751 20.4249 17.1501 20.3999 17.7251 20.3749C17.1751 21.0999 16.6001 21.7999 16.0001 22.4499ZM11.3501 18.6999C10.4001 18.5749 9.5001 18.4249 8.6501 18.2249C8.9251 17.3999 9.2251 16.5249 9.6001 15.6499C9.8751 16.1499 10.1501 16.6749 10.4501 17.1749C10.7501 17.7249 11.0501 18.1999 11.3501 18.6999ZM9.6001 12.3249C9.2251 11.4499 8.9251 10.5999 8.6501 9.7499C9.5001 9.5499 10.4001 9.3999 11.3501 9.2749C11.0501 9.7499 10.7251 10.2499 10.4501 10.7749C10.1501 11.2999 9.8751 11.8249 9.6001 12.3249ZM16.0001 5.5499C16.6001 6.1999 17.1751 6.8999 17.7251 7.6249C17.1501 7.5999 16.5751 7.5749 16.0001 7.5749C15.4251 7.5749 14.8501 7.5999 14.2751 7.6249C14.8251 6.8999 15.4001 6.1999 16.0001 5.5499ZM21.5501 10.7999L20.6501 9.2999C21.6001 9.4249 22.5001 9.5749 23.3501 9.7749C23.0751 10.5999 22.7751 11.4749 22.4001 12.3499C22.1251 11.8249 21.8501 11.2999 21.5501 10.7999ZM7.9251 6.7499C7.5001 4.1249 7.8501 2.2749 8.8751 1.6749C9.1251 1.5249 9.4251 1.4499 9.7501 1.4499C11.2501 1.4499 13.1251 2.6749 15.0001 4.5249C14.1251 5.4749 13.2501 6.5749 12.4001 7.7749C10.9501 7.8999 9.5751 8.1249 8.2751 8.3999C8.1251 7.8249 8.0251 7.2749 7.9251 6.7499ZM1.7501 13.9999C1.7501 12.8249 3.1751 11.5749 5.6751 10.6499C6.1751 10.4499 6.7251 10.2749 7.2751 10.1249C7.6751 11.3749 8.1751 12.6999 8.7751 14.0249C8.1751 15.3499 7.6501 16.6499 7.2751 17.8999C3.8251 16.8999 1.7501 15.3999 1.7501 13.9999ZM8.8751 26.3249C7.8501 25.7249 7.5001 23.8749 7.9251 21.2499C8.0001 20.7249 8.1251 20.1749 8.2751 19.5999C9.5751 19.8999 10.9501 20.0999 12.4001 20.2249C13.2501 21.4249 14.1251 22.4999 15.0001 23.4749C13.1501 25.2999 11.2751 26.5499 9.7501 26.5499C9.4251 26.5499 9.1251 26.4749 8.8751 26.3249ZM24.0751 21.2499C24.5001 23.8749 24.1501 25.7249 23.1251 26.3249C22.8751 26.4749 22.5751 26.5499 22.2501 26.5499C20.7501 26.5499 18.8751 25.3249 17.0001 23.4749C17.8751 22.5249 18.7501 21.4249 19.6001 20.2249C21.0501 20.0999 22.4251 19.8749 23.7251 19.5999C23.8751 20.1749 23.9751 20.7249 24.0751 21.2499ZM26.3251 17.3499C25.8251 17.5499 25.2751 17.7249 24.7251 17.8749C24.3251 16.6249 23.8251 15.2999 23.2251 13.9749C23.8251 12.6499 24.3501 11.3499 24.7251 10.0999C28.1751 11.0999 30.2501 12.5999 30.2501 13.9999C30.2501 15.1749 28.8001 16.4249 26.3251 17.3499Z" fill="#61DAFB"/>
</svg>
